{
  "bpm": 120,
  "end_beat": 608.0,
  "tracks": [
    {
      "instrument": "track_2",
      "channel": 0,
      "notes": [
        {
          "pitch": 55,
          "velocity": 31,
          "start": 60.0,
          "duration": "0.5"
        },
        {
          "pitch": 55,
          "velocity": 48,
          "start": 61.0,
          "duration": "0.5"
        },
        {
          "pitch": 55,
          "velocity": 65,
          "start": 62.0,
          "duration": "0.5"
        },
        {
          "pitch": 55,
          "velocity": 82,
          "start": 63.0,
          "duration": "0.5"
        },
        {
          "pitch": 36,
          "velocity": 82,
          "start": 64.0,
          "duration": "0.5"
        },
        {
          "pitch": 46,
          "velocity": 49,
          "start": 64.0,
          "duration": "0.5"
        },
        {
          "pitch": 57,
          "velocity": 84,
          "start": 64.0,
          "duration": "0.5"
        },
        {
          "pitch": 46,
          "velocity": 49,
          "start": 65.0,
          "duration": "0.5"
        },
        {
          "pitch": 40,
          "velocity": 82,
          "start": 65.0,
          "duration": "0.5"
        },
        {
          "pitch": 36,
          "velocity": 82,
          "start": 66.0,
          "duration": "0.5"
        },
        {
          "pitch": 46,
          "velocity": 49,
          "start": 66.0,
          "duration": "0.5"
        },
        {
          "pitch": 40,
          "velocity": 81,
          "start": 67.0,
          "duration": "0.5"
        },
        {
          "pitch": 46,
          "velocity": 49,
          "start": 67.0,
          "duration": "0.5"
        },
        {
          "pitch": 36,
          "velocity": 81,
          "start": 67.5,
          "duration": "0.5"
        },
        {
          "pitch": 46,
          "velocity": 49,
          "start": 68.0,
          "duration": "0.5"
        },
        {
          "pitch": 36,
          "velocity": 81,
          "start": 68.5,
          "duration": "0.5"
        },
        {
          "pitch": 46,
          "velocity": 49,
          "start": 69.0,
          "duration": "0.5"
        },
        {
          "pitch": 40,
          "velocity": 81,
          "start": 69.0,
          "duration": "0.5"
        },
        {
          "pitch": 36,
          "velocity": 80,
          "start": 69.5,
          "duration": "0.5"
        },
        {
          "pitch": 36,
          "velocity": 80,
          "start": 70.0,
          "duration": "0.5"
        },
        {
          "pitch": 46,
          "velocity": 49,
          "start": 70.0,
          "duration": "0.5"
        },
        {
          "pitch": 46,
          "velocity": 49,
          "start": 71.0,
          "duration": "0.5"
        },
        {
          "pitch": 36,
          "velocity": 80,
          "start": 71.0,
          "duration": "0.5"
        },
        {
          "pitch": 40,
          "velocity": 80,
          "start": 71.0,
          "duration": "0.5"
        },
        {
          "pitch": 36,
          "velocity": 82,
          "start": 72.0,
          "duration": "0.5"
        },
        {
          "pitch": 46,
          "velocity": 49,
          "start": 72.0,
          "duration": "0.5"
        },
        {
          "pitch": 46,
          "velocity": 49,
          "start": 73.0,
          "duration": "0.5"
        },
        {
          "pitch": 40,
          "velocity": 82,
          "start": 73.0,
          "duration": "0.5"
        },
        {
          "pitch": 36,
          "velocity": 82,
          "start": 74.0,
          "duration": "0.5"
        },
        {
          "pitch": 46,
          "velocity": 49,
          "start": 74.0,
          "duration": "0.5"
        },
        {
          "pitch": 46,
          "velocity": 49,
          "start": 75.0,
          "duration": "0.5"
        },
        {
          "pitch": 40,
          "velocity": 81,
          "start": 75.0,
          "duration": "0.5"
        },
        {
          "pitch": 36,
          "velocity": 81,
          "start": 75.5,
          "duration": "0.5"
        },
        {
          "pitch": 46,
          "velocity": 49,
          "start": 76.0,
          "duration": "0.5"
        },
        {
          "pitch": 36,
          "velocity": 81,
          "start": 76.5,
          "duration": "0.5"
        },
        {
          "pitch": 40,
          "velocity": 81,
          "start": 77.0,
          "duration": "0.5"
        },
        {
          "pitch": 46,
          "velocity": 49,
          "start": 77.0,
          "duration": "0.5"
        },
        {
          "pitch": 36,
          "velocity": 80,
          "start": 77.5,
          "duration": "0.5"
        },
        {
          "pitch": 36,
          "velocity": 80,
          "start": 78.0,
          "duration": "0.5"
        },
        {
          "pitch": 46,
          "velocity": 49,
          "start": 78.0,
          "duration": "0.5"
        },
        {
          "pitch": 40,
          "velocity": 80,
          "start": 79.0,
          "duration": "0.5"
        },
        {
          "pitch": 36,
          "velocity": 80,
          "start": 79.0,
          "duration": "0.5"
        },
        {
          "pitch": 46,
          "velocity": 49,
          "start": 79.0,
          "duration": "0.5"
        },
        {
          "pitch": 36,
          "velocity": 82,
          "start": 80.0,
          "duration": "0.5"
        },
        {
          "pitch": 46,
          "velocity": 49,
          "start": 80.0,
          "duration": "0.5"
        },
        {
          "pitch": 40,
          "velocity": 82,
          "start": 81.0,
          "duration": "0.5"
        },
        {
          "pitch": 46,
          "velocity": 49,
          "start": 81.0,
          "duration": "0.5"
        },
        {
          "pitch": 36,
          "velocity": 82,
          "start": 82.0,
          "duration": "0.5"
        },
        {
          "pitch": 46,
          "velocity": 49,
          "start": 82.0,
          "duration": "0.5"
        },
        {
          "pitch": 46,
          "velocity": 49,
          "start": 83.0,
          "duration": "0.5"
        },
        {
          "pitch": 40,
          "velocity": 81,
          "start": 83.0,
          "duration": "0.5"
        },
        {
          "pitch": 36,
          "velocity": 81,
          "start": 83.5,
          "duration": "0.5"
        },
        {
          "pitch": 46,
          "velocity": 49,
          "start": 84.0,
          "duration": "0.5"
        },
        {
          "pitch": 36,
          "velocity": 81,
          "start": 84.5,
          "duration": "0.5"
        },
        {
          "pitch": 40,
          "velocity": 81,
          "start": 85.0,
          "duration": "0.5"
        },
        {
          "pitch": 46,
          "velocity": 49,
          "start": 85.0,
          "duration": "0.5"
        },
        {
          "pitch": 36,
          "velocity": 80,
          "start": 85.5,
          "duration": "0.5"
        },
        {
          "pitch": 36,
          "velocity": 80,
          "start": 86.0,
          "duration": "0.5"
        },
        {
          "pitch": 46,
          "velocity": 49,
          "start": 86.0,
          "duration": "0.5"
        },
        {
          "pitch": 40,
          "velocity": 80,
          "start": 87.0,
          "duration": "0.5"
        },
        {
          "pitch": 36,
          "velocity": 80,
          "start": 87.0,
          "duration": "0.5"
        },
        {
          "pitch": 46,
          "velocity": 49,
          "start": 87.0,
          "duration": "0.5"
        },
        {
          "pitch": 36,
          "velocity": 82,
          "start": 88.0,
          "duration": "0.5"
        },
        {
          "pitch": 46,
          "velocity": 49,
          "start": 88.0,
          "duration": "0.5"
        },
        {
          "pitch": 40,
          "velocity": 82,
          "start": 89.0,
          "duration": "0.5"
        },
        {
          "pitch": 46,
          "velocity": 49,
          "start": 89.0,
          "duration": "0.5"
        },
        {
          "pitch": 36,
          "velocity": 82,
          "start": 90.0,
          "duration": "0.5"
        },
        {
          "pitch": 46,
          "velocity": 49,
          "start": 90.0,
          "duration": "0.5"
        },
        {
          "pitch": 40,
          "velocity": 81,
          "start": 90.5,
          "duration": "0.5"
        },
        {
          "pitch": 46,
          "velocity": 49,
          "start": 91.0,
          "duration": "0.5"
        },
        {
          "pitch": 40,
          "velocity": 81,
          "start": 91.5,
          "duration": "0.5"
        },
        {
          "pitch": 36,
          "velocity": 81,
          "start": 91.5,
          "duration": "0.5"
        },
        {
          "pitch": 46,
          "velocity": 49,
          "start": 92.0,
          "duration": "0.5"
        },
        {
          "pitch": 36,
          "velocity": 81,
          "start": 92.5,
          "duration": "0.5"
        },
        {
          "pitch": 46,
          "velocity": 49,
          "start": 93.0,
          "duration": "0.5"
        },
        {
          "pitch": 40,
          "velocity": 81,
          "start": 93.0,
          "duration": "0.5"
        },
        {
          "pitch": 36,
          "velocity": 80,
          "start": 93.5,
          "duration": "0.5"
        },
        {
          "pitch": 40,
          "velocity": 81,
          "start": 94.0,
          "duration": "0.5"
        },
        {
          "pitch": 46,
          "velocity": 49,
          "start": 94.0,
          "duration": "0.5"
        },
        {
          "pitch": 36,
          "velocity": 80,
          "start": 94.0,
          "duration": "0.5"
        },
        {
          "pitch": 46,
          "velocity": 49,
          "start": 95.0,
          "duration": "0.5"
        },
        {
          "pitch": 36,
          "velocity": 80,
          "start": 95.0,
          "duration": "0.5"
        },
        {
          "pitch": 40,
          "velocity": 80,
          "start": 95.0,
          "duration": "0.5"
        },
        {
          "pitch": 36,
          "velocity": 82,
          "start": 96.0,
          "duration": "0.5"
        },
        {
          "pitch": 46,
          "velocity": 49,
          "start": 96.0,
          "duration": "0.5"
        },
        {
          "pitch": 57,
          "velocity": 82,
          "start": 96.0,
          "duration": "0.5"
        },
        {
          "pitch": 46,
          "velocity": 49,
          "start": 97.0,
          "duration": "0.5"
        },
        {
          "pitch": 40,
          "velocity": 82,
          "start": 97.0,
          "duration": "0.5"
        },
        {
          "pitch": 36,
          "velocity": 82,
          "start": 98.0,
          "duration": "0.5"
        },
        {
          "pitch": 46,
          "velocity": 49,
          "start": 98.0,
          "duration": "0.5"
        },
        {
          "pitch": 40,
          "velocity": 81,
          "start": 99.0,
          "duration": "0.5"
        },
        {
          "pitch": 46,
          "velocity": 49,
          "start": 99.0,
          "duration": "0.5"
        },
        {
          "pitch": 36,
          "velocity": 81,
          "start": 99.5,
          "duration": "0.5"
        },
        {
          "pitch": 46,
          "velocity": 49,
          "start": 100.0,
          "duration": "0.5"
        },
        {
          "pitch": 36,
          "velocity": 81,
          "start": 100.5,
          "duration": "0.5"
        },
        {
          "pitch": 46,
          "velocity": 49,
          "start": 101.0,
          "duration": "0.5"
        },
        {
          "pitch": 40,
          "velocity": 81,
          "start": 101.0,
          "duration": "0.5"
        },
        {
          "pitch": 36,
          "velocity": 80,
          "start": 101.5,
          "duration": "0.5"
        },
        {
          "pitch": 36,
          "velocity": 80,
          "start": 102.0,
          "duration": "0.5"
        },
        {
          "pitch": 46,
          "velocity": 49,
          "start": 102.0,
          "duration": "0.5"
        },
        {
          "pitch": 46,
          "velocity": 49,
          "start": 103.0,
          "duration": "0.5"
        },
        {
          "pitch": 36,
          "velocity": 80,
          "start": 103.0,
          "duration": "0.5"
        },
        {
          "pitch": 40,
          "velocity": 80,
          "start": 103.0,
          "duration": "0.5"
        },
        {
          "pitch": 36,
          "velocity": 82,
          "start": 104.0,
          "duration": "0.5"
        },
        {
          "pitch": 46,
          "velocity": 49,
          "start": 104.0,
          "duration": "0.5"
        },
        {
          "pitch": 46,
          "velocity": 49,
          "start": 105.0,
          "duration": "0.5"
        },
        {
          "pitch": 40,
          "velocity": 82,
          "start": 105.0,
          "duration": "0.5"
        },
        {
          "pitch": 36,
          "velocity": 82,
          "start": 106.0,
          "duration": "0.5"
        },
        {
          "pitch": 46,
          "velocity": 49,
          "start": 106.0,
          "duration": "0.5"
        },
        {
          "pitch": 46,
          "velocity": 49,
          "start": 107.0,
          "duration": "0.5"
        },
        {
          "pitch": 40,
          "velocity": 81,
          "start": 107.0,
          "duration": "0.5"
        },
        {
          "pitch": 36,
          "velocity": 81,
          "start": 107.5,
          "duration": "0.5"
        },
        {
          "pitch": 46,
          "velocity": 49,
          "start": 108.0,
          "duration": "0.5"
        },
        {
          "pitch": 36,
          "velocity": 81,
          "start": 108.5,
          "duration": "0.5"
        },
        {
          "pitch": 40,
          "velocity": 81,
          "start": 109.0,
          "duration": "0.5"
        },
        {
          "pitch": 46,
          "velocity": 49,
          "start": 109.0,
          "duration": "0.5"
        },
        {
          "pitch": 36,
          "velocity": 80,
          "start": 109.5,
          "duration": "0.5"
        },
        {
          "pitch": 36,
          "velocity": 80,
          "start": 110.0,
          "duration": "0.5"
        },
        {
          "pitch": 46,
          "velocity": 49,
          "start": 110.0,
          "duration": "0.5"
        },
        {
          "pitch": 40,
          "velocity": 80,
          "start": 111.0,
          "duration": "0.5"
        },
        {
          "pitch": 36,
          "velocity": 80,
          "start": 111.0,
          "duration": "0.5"
        },
        {
          "pitch": 46,
          "velocity": 49,
          "start": 111.0,
          "duration": "0.5"
        },
        {
          "pitch": 36,
          "velocity": 82,
          "start": 112.0,
          "duration": "0.5"
        },
        {
          "pitch": 46,
          "velocity": 49,
          "start": 112.0,
          "duration": "0.5"
        },
        {
          "pitch": 46,
          "velocity": 49,
          "start": 113.0,
          "duration": "0.5"
        },
        {
          "pitch": 40,
          "velocity": 82,
          "start": 113.0,
          "duration": "0.5"
        },
        {
          "pitch": 36,
          "velocity": 82,
          "start": 114.0,
          "duration": "0.5"
        },
        {
          "pitch": 46,
          "velocity": 49,
          "start": 114.0,
          "duration": "0.5"
        },
        {
          "pitch": 40,
          "velocity": 81,
          "start": 115.0,
          "duration": "0.5"
        },
        {
          "pitch": 46,
          "velocity": 49,
          "start": 115.0,
          "duration": "0.5"
        },
        {
          "pitch": 36,
          "velocity": 81,
          "start": 115.5,
          "duration": "0.5"
        },
        {
          "pitch": 46,
          "velocity": 49,
          "start": 116.0,
          "duration": "0.5"
        },
        {
          "pitch": 36,
          "velocity": 81,
          "start": 116.5,
          "duration": "0.5"
        },
        {
          "pitch": 46,
          "velocity": 49,
          "start": 117.0,
          "duration": "0.5"
        },
        {
          "pitch": 40,
          "velocity": 81,
          "start": 117.0,
          "duration": "0.5"
        },
        {
          "pitch": 36,
          "velocity": 80,
          "start": 117.5,
          "duration": "0.5"
        },
        {
          "pitch": 36,
          "velocity": 80,
          "start": 118.0,
          "duration": "0.5"
        },
        {
          "pitch": 46,
          "velocity": 49,
          "start": 118.0,
          "duration": "0.5"
        },
        {
          "pitch": 46,
          "velocity": 49,
          "start": 119.0,
          "duration": "0.5"
        },
        {
          "pitch": 36,
          "velocity": 80,
          "start": 119.0,
          "duration": "0.5"
        },
        {
          "pitch": 40,
          "velocity": 80,
          "start": 119.0,
          "duration": "0.5"
        },
        {
          "pitch": 36,
          "velocity": 82,
          "start": 120.0,
          "duration": "0.5"
        },
        {
          "pitch": 46,
          "velocity": 49,
          "start": 120.0,
          "duration": "0.5"
        },
        {
          "pitch": 46,
          "velocity": 49,
          "start": 121.0,
          "duration": "0.5"
        },
        {
          "pitch": 40,
          "velocity": 82,
          "start": 121.0,
          "duration": "0.5"
        },
        {
          "pitch": 36,
          "velocity": 82,
          "start": 122.0,
          "duration": "0.5"
        },
        {
          "pitch": 46,
          "velocity": 49,
          "start": 122.0,
          "duration": "0.5"
        },
        {
          "pitch": 40,
          "velocity": 81,
          "start": 122.5,
          "duration": "0.5"
        },
        {
          "pitch": 46,
          "velocity": 49,
          "start": 123.0,
          "duration": "0.5"
        },
        {
          "pitch": 40,
          "velocity": 81,
          "start": 123.5,
          "duration": "0.5"
        },
        {
          "pitch": 36,
          "velocity": 81,
          "start": 123.5,
          "duration": "0.5"
        },
        {
          "pitch": 46,
          "velocity": 49,
          "start": 124.0,
          "duration": "0.5"
        },
        {
          "pitch": 36,
          "velocity": 81,
          "start": 124.5,
          "duration": "0.5"
        },
        {
          "pitch": 40,
          "velocity": 81,
          "start": 125.0,
          "duration": "0.5"
        },
        {
          "pitch": 46,
          "velocity": 49,
          "start": 125.0,
          "duration": "0.5"
        },
        {
          "pitch": 36,
          "velocity": 80,
          "start": 125.5,
          "duration": "0.5"
        },
        {
          "pitch": 40,
          "velocity": 81,
          "start": 126.0,
          "duration": "0.5"
        },
        {
          "pitch": 46,
          "velocity": 49,
          "start": 126.0,
          "duration": "0.5"
        },
        {
          "pitch": 36,
          "velocity": 80,
          "start": 126.0,
          "duration": "0.5"
        },
        {
          "pitch": 40,
          "velocity": 80,
          "start": 127.0,
          "duration": "0.5"
        },
        {
          "pitch": 36,
          "velocity": 80,
          "start": 127.0,
          "duration": "0.5"
        },
        {
          "pitch": 46,
          "velocity": 49,
          "start": 127.0,
          "duration": "0.5"
        },
        {
          "pitch": 36,
          "velocity": 82,
          "start": 128.0,
          "duration": "0.5"
        },
        {
          "pitch": 57,
          "velocity": 82,
          "start": 128.0,
          "duration": "0.5"
        },
        {
          "pitch": 44,
          "velocity": 63,
          "start": 128.0,
          "duration": "0.5"
        },
        {
          "pitch": 44,
          "velocity": 63,
          "start": 128.5,
          "duration": "0.5"
        },
        {
          "pitch": 40,
          "velocity": 82,
          "start": 129.0,
          "duration": "0.5"
        },
        {
          "pitch": 44,
          "velocity": 63,
          "start": 129.5,
          "duration": "0.5"
        },
        {
          "pitch": 36,
          "velocity": 82,
          "start": 130.0,
          "duration": "0.5"
        },
        {
          "pitch": 44,
          "velocity": 63,
          "start": 130.0,
          "duration": "0.5"
        },
        {
          "pitch": 44,
          "velocity": 63,
          "start": 130.5,
          "duration": "0.5"
        },
        {
          "pitch": 40,
          "velocity": 81,
          "start": 131.0,
          "duration": "0.5"
        },
        {
          "pitch": 36,
          "velocity": 81,
          "start": 131.5,
          "duration": "0.5"
        },
        {
          "pitch": 44,
          "velocity": 63,
          "start": 132.0,
          "duration": "0.5"
        },
        {
          "pitch": 44,
          "velocity": 63,
          "start": 132.5,
          "duration": "0.5"
        },
        {
          "pitch": 36,
          "velocity": 81,
          "start": 132.5,
          "duration": "0.5"
        },
        {
          "pitch": 40,
          "velocity": 81,
          "start": 133.0,
          "duration": "0.5"
        },
        {
          "pitch": 36,
          "velocity": 80,
          "start": 133.5,
          "duration": "0.5"
        },
        {
          "pitch": 44,
          "velocity": 63,
          "start": 133.5,
          "duration": "0.5"
        },
        {
          "pitch": 36,
          "velocity": 80,
          "start": 134.0,
          "duration": "0.5"
        },
        {
          "pitch": 44,
          "velocity": 63,
          "start": 134.0,
          "duration": "0.5"
        },
        {
          "pitch": 44,
          "velocity": 63,
          "start": 134.5,
          "duration": "0.5"
        },
        {
          "pitch": 36,
          "velocity": 80,
          "start": 135.0,
          "duration": "0.5"
        },
        {
          "pitch": 40,
          "velocity": 80,
          "start": 135.0,
          "duration": "0.5"
        },
        {
          "pitch": 44,
          "velocity": 63,
          "start": 136.0,
          "duration": "0.5"
        },
        {
          "pitch": 36,
          "velocity": 82,
          "start": 136.0,
          "duration": "0.5"
        },
        {
          "pitch": 44,
          "velocity": 63,
          "start": 136.5,
          "duration": "0.5"
        },
        {
          "pitch": 40,
          "velocity": 82,
          "start": 137.0,
          "duration": "0.5"
        },
        {
          "pitch": 44,
          "velocity": 63,
          "start": 137.5,
          "duration": "0.5"
        },
        {
          "pitch": 44,
          "velocity": 63,
          "start": 138.0,
          "duration": "0.5"
        },
        {
          "pitch": 36,
          "velocity": 82,
          "start": 138.0,
          "duration": "0.5"
        },
        {
          "pitch": 44,
          "velocity": 63,
          "start": 138.5,
          "duration": "0.5"
        },
        {
          "pitch": 40,
          "velocity": 81,
          "start": 139.0,
          "duration": "0.5"
        },
        {
          "pitch": 36,
          "velocity": 81,
          "start": 139.5,
          "duration": "0.5"
        },
        {
          "pitch": 44,
          "velocity": 63,
          "start": 140.0,
          "duration": "0.5"
        },
        {
          "pitch": 44,
          "velocity": 63,
          "start": 140.5,
          "duration": "0.5"
        },
        {
          "pitch": 36,
          "velocity": 81,
          "start": 140.5,
          "duration": "0.5"
        },
        {
          "pitch": 40,
          "velocity": 81,
          "start": 141.0,
          "duration": "0.5"
        },
        {
          "pitch": 36,
          "velocity": 80,
          "start": 141.5,
          "duration": "0.5"
        },
        {
          "pitch": 44,
          "velocity": 63,
          "start": 141.5,
          "duration": "0.5"
        },
        {
          "pitch": 36,
          "velocity": 80,
          "start": 142.0,
          "duration": "0.5"
        },
        {
          "pitch": 44,
          "velocity": 63,
          "start": 142.0,
          "duration": "0.5"
        },
        {
          "pitch": 44,
          "velocity": 63,
          "start": 142.5,
          "duration": "0.5"
        },
        {
          "pitch": 40,
          "velocity": 80,
          "start": 143.0,
          "duration": "0.5"
        },
        {
          "pitch": 36,
          "velocity": 80,
          "start": 143.0,
          "duration": "0.5"
        },
        {
          "pitch": 36,
          "velocity": 82,
          "start": 144.0,
          "duration": "0.5"
        },
        {
          "pitch": 44,
          "velocity": 63,
          "start": 144.0,
          "duration": "0.5"
        },
        {
          "pitch": 44,
          "velocity": 63,
          "start": 144.5,
          "duration": "0.5"
        },
        {
          "pitch": 40,
          "velocity": 82,
          "start": 145.0,
          "duration": "0.5"
        },
        {
          "pitch": 44,
          "velocity": 63,
          "start": 145.5,
          "duration": "0.5"
        },
        {
          "pitch": 36,
          "velocity": 82,
          "start": 146.0,
          "duration": "0.5"
        },
        {
          "pitch": 44,
          "velocity": 63,
          "start": 146.0,
          "duration": "0.5"
        },
        {
          "pitch": 44,
          "velocity": 63,
          "start": 146.5,
          "duration": "0.5"
        },
        {
          "pitch": 40,
          "velocity": 81,
          "start": 147.0,
          "duration": "0.5"
        },
        {
          "pitch": 36,
          "velocity": 81,
          "start": 147.5,
          "duration": "0.5"
        },
        {
          "pitch": 44,
          "velocity": 63,
          "start": 148.0,
          "duration": "0.5"
        },
        {
          "pitch": 36,
          "velocity": 81,
          "start": 148.5,
          "duration": "0.5"
        },
        {
          "pitch": 44,
          "velocity": 63,
          "start": 148.5,
          "duration": "0.5"
        },
        {
          "pitch": 40,
          "velocity": 81,
          "start": 149.0,
          "duration": "0.5"
        },
        {
          "pitch": 44,
          "velocity": 63,
          "start": 149.5,
          "duration": "0.5"
        },
        {
          "pitch": 36,
          "velocity": 80,
          "start": 149.5,
          "duration": "0.5"
        },
        {
          "pitch": 36,
          "velocity": 80,
          "start": 150.0,
          "duration": "0.5"
        },
        {
          "pitch": 44,
          "velocity": 63,
          "start": 150.0,
          "duration": "0.5"
        },
        {
          "pitch": 44,
          "velocity": 63,
          "start": 150.5,
          "duration": "0.5"
        },
        {
          "pitch": 36,
          "velocity": 80,
          "start": 151.0,
          "duration": "0.5"
        },
        {
          "pitch": 40,
          "velocity": 80,
          "start": 151.0,
          "duration": "0.5"
        },
        {
          "pitch": 36,
          "velocity": 82,
          "start": 152.0,
          "duration": "0.5"
        },
        {
          "pitch": 44,
          "velocity": 63,
          "start": 152.0,
          "duration": "0.5"
        },
        {
          "pitch": 44,
          "velocity": 63,
          "start": 152.5,
          "duration": "0.5"
        },
        {
          "pitch": 40,
          "velocity": 82,
          "start": 153.0,
          "duration": "0.5"
        },
        {
          "pitch": 44,
          "velocity": 63,
          "start": 153.5,
          "duration": "0.5"
        },
        {
          "pitch": 36,
          "velocity": 82,
          "start": 154.0,
          "duration": "0.5"
        },
        {
          "pitch": 44,
          "velocity": 63,
          "start": 154.0,
          "duration": "0.5"
        },
        {
          "pitch": 40,
          "velocity": 81,
          "start": 154.5,
          "duration": "0.5"
        },
        {
          "pitch": 44,
          "velocity": 63,
          "start": 154.5,
          "duration": "0.5"
        },
        {
          "pitch": 40,
          "velocity": 81,
          "start": 155.5,
          "duration": "0.5"
        },
        {
          "pitch": 36,
          "velocity": 81,
          "start": 155.5,
          "duration": "0.5"
        },
        {
          "pitch": 44,
          "velocity": 63,
          "start": 156.0,
          "duration": "0.5"
        },
        {
          "pitch": 36,
          "velocity": 81,
          "start": 156.5,
          "duration": "0.5"
        },
        {
          "pitch": 44,
          "velocity": 63,
          "start": 156.5,
          "duration": "0.5"
        },
        {
          "pitch": 57,
          "velocity": 82,
          "start": 156.5,
          "duration": "0.5"
        },
        {
          "pitch": 40,
          "velocity": 81,
          "start": 157.0,
          "duration": "0.5"
        },
        {
          "pitch": 49,
          "velocity": 83,
          "start": 157.5,
          "duration": "0.5"
        },
        {
          "pitch": 36,
          "velocity": 80,
          "start": 157.5,
          "duration": "0.5"
        },
        {
          "pitch": 36,
          "velocity": 80,
          "start": 158.0,
          "duration": "0.5"
        },
        {
          "pitch": 40,
          "velocity": 81,
          "start": 158.0,
          "duration": "0.5"
        },
        {
          "pitch": 44,
          "velocity": 63,
          "start": 158.0,
          "duration": "0.5"
        },
        {
          "pitch": 44,
          "velocity": 63,
          "start": 158.5,
          "duration": "0.5"
        },
        {
          "pitch": 44,
          "velocity": 63,
          "start": 159.0,
          "duration": "0.5"
        },
        {
          "pitch": 57,
          "velocity": 82,
          "start": 158.5,
          "duration": "1.0"
        },
        {
          "pitch": 36,
          "velocity": 80,
          "start": 159.0,
          "duration": "0.5"
        },
        {
          "pitch": 40,
          "velocity": 80,
          "start": 159.0,
          "duration": "0.5"
        },
        {
          "pitch": 36,
          "velocity": 82,
          "start": 160.0,
          "duration": "0.5"
        },
        {
          "pitch": 46,
          "velocity": 49,
          "start": 160.0,
          "duration": "0.5"
        },
        {
          "pitch": 57,
          "velocity": 82,
          "start": 160.0,
          "duration": "0.5"
        },
        {
          "pitch": 40,
          "velocity": 82,
          "start": 161.0,
          "duration": "0.5"
        },
        {
          "pitch": 46,
          "velocity": 49,
          "start": 161.0,
          "duration": "0.5"
        },
        {
          "pitch": 36,
          "velocity": 82,
          "start": 162.0,
          "duration": "0.5"
        },
        {
          "pitch": 46,
          "velocity": 49,
          "start": 162.0,
          "duration": "0.5"
        },
        {
          "pitch": 46,
          "velocity": 49,
          "start": 163.0,
          "duration": "0.5"
        },
        {
          "pitch": 40,
          "velocity": 81,
          "start": 163.0,
          "duration": "0.5"
        },
        {
          "pitch": 36,
          "velocity": 81,
          "start": 163.5,
          "duration": "0.5"
        },
        {
          "pitch": 46,
          "velocity": 49,
          "start": 164.0,
          "duration": "0.5"
        },
        {
          "pitch": 36,
          "velocity": 81,
          "start": 164.5,
          "duration": "0.5"
        },
        {
          "pitch": 40,
          "velocity": 81,
          "start": 165.0,
          "duration": "0.5"
        },
        {
          "pitch": 46,
          "velocity": 49,
          "start": 165.0,
          "duration": "0.5"
        },
        {
          "pitch": 36,
          "velocity": 80,
          "start": 165.5,
          "duration": "0.5"
        },
        {
          "pitch": 36,
          "velocity": 80,
          "start": 166.0,
          "duration": "0.5"
        },
        {
          "pitch": 46,
          "velocity": 49,
          "start": 166.0,
          "duration": "0.5"
        },
        {
          "pitch": 40,
          "velocity": 80,
          "start": 167.0,
          "duration": "0.5"
        },
        {
          "pitch": 36,
          "velocity": 80,
          "start": 167.0,
          "duration": "0.5"
        },
        {
          "pitch": 46,
          "velocity": 49,
          "start": 167.0,
          "duration": "0.5"
        },
        {
          "pitch": 36,
          "velocity": 82,
          "start": 168.0,
          "duration": "0.5"
        },
        {
          "pitch": 46,
          "velocity": 49,
          "start": 168.0,
          "duration": "0.5"
        },
        {
          "pitch": 40,
          "velocity": 82,
          "start": 169.0,
          "duration": "0.5"
        },
        {
          "pitch": 46,
          "velocity": 49,
          "start": 169.0,
          "duration": "0.5"
        },
        {
          "pitch": 36,
          "velocity": 82,
          "start": 170.0,
          "duration": "0.5"
        },
        {
          "pitch": 46,
          "velocity": 49,
          "start": 170.0,
          "duration": "0.5"
        },
        {
          "pitch": 40,
          "velocity": 81,
          "start": 171.0,
          "duration": "0.5"
        },
        {
          "pitch": 46,
          "velocity": 49,
          "start": 171.0,
          "duration": "0.5"
        },
        {
          "pitch": 36,
          "velocity": 81,
          "start": 171.5,
          "duration": "0.5"
        },
        {
          "pitch": 46,
          "velocity": 49,
          "start": 172.0,
          "duration": "0.5"
        },
        {
          "pitch": 36,
          "velocity": 81,
          "start": 172.5,
          "duration": "0.5"
        },
        {
          "pitch": 46,
          "velocity": 49,
          "start": 173.0,
          "duration": "0.5"
        },
        {
          "pitch": 40,
          "velocity": 81,
          "start": 173.0,
          "duration": "0.5"
        },
        {
          "pitch": 36,
          "velocity": 80,
          "start": 173.5,
          "duration": "0.5"
        },
        {
          "pitch": 36,
          "velocity": 80,
          "start": 174.0,
          "duration": "0.5"
        },
        {
          "pitch": 46,
          "velocity": 49,
          "start": 174.0,
          "duration": "0.5"
        },
        {
          "pitch": 46,
          "velocity": 49,
          "start": 175.0,
          "duration": "0.5"
        },
        {
          "pitch": 36,
          "velocity": 80,
          "start": 175.0,
          "duration": "0.5"
        },
        {
          "pitch": 40,
          "velocity": 80,
          "start": 175.0,
          "duration": "0.5"
        },
        {
          "pitch": 36,
          "velocity": 82,
          "start": 176.0,
          "duration": "0.5"
        },
        {
          "pitch": 46,
          "velocity": 49,
          "start": 176.0,
          "duration": "0.5"
        },
        {
          "pitch": 40,
          "velocity": 82,
          "start": 177.0,
          "duration": "0.5"
        },
        {
          "pitch": 46,
          "velocity": 49,
          "start": 177.0,
          "duration": "0.5"
        },
        {
          "pitch": 36,
          "velocity": 82,
          "start": 178.0,
          "duration": "0.5"
        },
        {
          "pitch": 46,
          "velocity": 49,
          "start": 178.0,
          "duration": "0.5"
        },
        {
          "pitch": 40,
          "velocity": 81,
          "start": 179.0,
          "duration": "0.5"
        },
        {
          "pitch": 46,
          "velocity": 49,
          "start": 179.0,
          "duration": "0.5"
        },
        {
          "pitch": 36,
          "velocity": 81,
          "start": 179.5,
          "duration": "0.5"
        },
        {
          "pitch": 46,
          "velocity": 49,
          "start": 180.0,
          "duration": "0.5"
        },
        {
          "pitch": 36,
          "velocity": 81,
          "start": 180.5,
          "duration": "0.5"
        },
        {
          "pitch": 40,
          "velocity": 81,
          "start": 181.0,
          "duration": "0.5"
        },
        {
          "pitch": 46,
          "velocity": 49,
          "start": 181.0,
          "duration": "0.5"
        },
        {
          "pitch": 36,
          "velocity": 80,
          "start": 181.5,
          "duration": "0.5"
        },
        {
          "pitch": 36,
          "velocity": 80,
          "start": 182.0,
          "duration": "0.5"
        },
        {
          "pitch": 46,
          "velocity": 49,
          "start": 182.0,
          "duration": "0.5"
        },
        {
          "pitch": 40,
          "velocity": 80,
          "start": 183.0,
          "duration": "0.5"
        },
        {
          "pitch": 36,
          "velocity": 80,
          "start": 183.0,
          "duration": "0.5"
        },
        {
          "pitch": 46,
          "velocity": 49,
          "start": 183.0,
          "duration": "0.5"
        },
        {
          "pitch": 36,
          "velocity": 82,
          "start": 184.0,
          "duration": "0.5"
        },
        {
          "pitch": 46,
          "velocity": 49,
          "start": 184.0,
          "duration": "0.5"
        },
        {
          "pitch": 40,
          "velocity": 82,
          "start": 185.0,
          "duration": "0.5"
        },
        {
          "pitch": 46,
          "velocity": 49,
          "start": 185.0,
          "duration": "0.5"
        },
        {
          "pitch": 36,
          "velocity": 82,
          "start": 186.0,
          "duration": "0.5"
        },
        {
          "pitch": 46,
          "velocity": 49,
          "start": 186.0,
          "duration": "0.5"
        },
        {
          "pitch": 40,
          "velocity": 81,
          "start": 186.5,
          "duration": "0.5"
        },
        {
          "pitch": 46,
          "velocity": 49,
          "start": 187.0,
          "duration": "0.5"
        },
        {
          "pitch": 40,
          "velocity": 81,
          "start": 187.5,
          "duration": "0.5"
        },
        {
          "pitch": 36,
          "velocity": 81,
          "start": 187.5,
          "duration": "0.5"
        },
        {
          "pitch": 46,
          "velocity": 49,
          "start": 188.0,
          "duration": "0.5"
        },
        {
          "pitch": 57,
          "velocity": 82,
          "start": 188.5,
          "duration": "0.5"
        },
        {
          "pitch": 36,
          "velocity": 81,
          "start": 188.5,
          "duration": "0.5"
        },
        {
          "pitch": 46,
          "velocity": 49,
          "start": 189.0,
          "duration": "0.5"
        },
        {
          "pitch": 40,
          "velocity": 81,
          "start": 189.0,
          "duration": "0.5"
        },
        {
          "pitch": 36,
          "velocity": 80,
          "start": 189.5,
          "duration": "0.5"
        },
        {
          "pitch": 49,
          "velocity": 83,
          "start": 189.5,
          "duration": "0.5"
        },
        {
          "pitch": 40,
          "velocity": 81,
          "start": 190.0,
          "duration": "0.5"
        },
        {
          "pitch": 36,
          "velocity": 80,
          "start": 190.0,
          "duration": "0.5"
        },
        {
          "pitch": 46,
          "velocity": 49,
          "start": 190.0,
          "duration": "0.5"
        },
        {
          "pitch": 57,
          "velocity": 82,
          "start": 190.5,
          "duration": "1.0"
        },
        {
          "pitch": 46,
          "velocity": 49,
          "start": 191.0,
          "duration": "0.5"
        },
        {
          "pitch": 36,
          "velocity": 80,
          "start": 191.0,
          "duration": "0.5"
        },
        {
          "pitch": 40,
          "velocity": 80,
          "start": 191.0,
          "duration": "0.5"
        },
        {
          "pitch": 57,
          "velocity": 82,
          "start": 192.0,
          "duration": "0.5"
        },
        {
          "pitch": 36,
          "velocity": 82,
          "start": 192.0,
          "duration": "0.5"
        },
        {
          "pitch": 46,
          "velocity": 49,
          "start": 192.0,
          "duration": "0.5"
        },
        {
          "pitch": 40,
          "velocity": 82,
          "start": 193.0,
          "duration": "0.5"
        },
        {
          "pitch": 46,
          "velocity": 49,
          "start": 193.0,
          "duration": "0.5"
        },
        {
          "pitch": 36,
          "velocity": 82,
          "start": 194.0,
          "duration": "0.5"
        },
        {
          "pitch": 46,
          "velocity": 49,
          "start": 194.0,
          "duration": "0.5"
        },
        {
          "pitch": 46,
          "velocity": 49,
          "start": 195.0,
          "duration": "0.5"
        },
        {
          "pitch": 40,
          "velocity": 81,
          "start": 195.0,
          "duration": "0.5"
        },
        {
          "pitch": 36,
          "velocity": 81,
          "start": 195.5,
          "duration": "0.5"
        },
        {
          "pitch": 46,
          "velocity": 49,
          "start": 196.0,
          "duration": "0.5"
        },
        {
          "pitch": 36,
          "velocity": 81,
          "start": 196.5,
          "duration": "0.5"
        },
        {
          "pitch": 40,
          "velocity": 81,
          "start": 197.0,
          "duration": "0.5"
        },
        {
          "pitch": 46,
          "velocity": 49,
          "start": 197.0,
          "duration": "0.5"
        },
        {
          "pitch": 36,
          "velocity": 80,
          "start": 197.5,
          "duration": "0.5"
        },
        {
          "pitch": 36,
          "velocity": 80,
          "start": 198.0,
          "duration": "0.5"
        },
        {
          "pitch": 46,
          "velocity": 49,
          "start": 198.0,
          "duration": "0.5"
        },
        {
          "pitch": 40,
          "velocity": 80,
          "start": 199.0,
          "duration": "0.5"
        },
        {
          "pitch": 36,
          "velocity": 80,
          "start": 199.0,
          "duration": "0.5"
        },
        {
          "pitch": 46,
          "velocity": 49,
          "start": 199.0,
          "duration": "0.5"
        },
        {
          "pitch": 36,
          "velocity": 82,
          "start": 200.0,
          "duration": "0.5"
        },
        {
          "pitch": 46,
          "velocity": 49,
          "start": 200.0,
          "duration": "0.5"
        },
        {
          "pitch": 40,
          "velocity": 82,
          "start": 201.0,
          "duration": "0.5"
        },
        {
          "pitch": 46,
          "velocity": 49,
          "start": 201.0,
          "duration": "0.5"
        },
        {
          "pitch": 36,
          "velocity": 82,
          "start": 202.0,
          "duration": "0.5"
        },
        {
          "pitch": 46,
          "velocity": 49,
          "start": 202.0,
          "duration": "0.5"
        },
        {
          "pitch": 40,
          "velocity": 81,
          "start": 203.0,
          "duration": "0.5"
        },
        {
          "pitch": 46,
          "velocity": 49,
          "start": 203.0,
          "duration": "0.5"
        },
        {
          "pitch": 36,
          "velocity": 81,
          "start": 203.5,
          "duration": "0.5"
        },
        {
          "pitch": 46,
          "velocity": 49,
          "start": 204.0,
          "duration": "0.5"
        },
        {
          "pitch": 36,
          "velocity": 81,
          "start": 204.5,
          "duration": "0.5"
        },
        {
          "pitch": 46,
          "velocity": 49,
          "start": 205.0,
          "duration": "0.5"
        },
        {
          "pitch": 40,
          "velocity": 81,
          "start": 205.0,
          "duration": "0.5"
        },
        {
          "pitch": 36,
          "velocity": 80,
          "start": 205.5,
          "duration": "0.5"
        },
        {
          "pitch": 36,
          "velocity": 80,
          "start": 206.0,
          "duration": "0.5"
        },
        {
          "pitch": 46,
          "velocity": 49,
          "start": 206.0,
          "duration": "0.5"
        },
        {
          "pitch": 46,
          "velocity": 49,
          "start": 207.0,
          "duration": "0.5"
        },
        {
          "pitch": 36,
          "velocity": 80,
          "start": 207.0,
          "duration": "0.5"
        },
        {
          "pitch": 40,
          "velocity": 80,
          "start": 207.0,
          "duration": "0.5"
        },
        {
          "pitch": 36,
          "velocity": 82,
          "start": 208.0,
          "duration": "0.5"
        },
        {
          "pitch": 46,
          "velocity": 49,
          "start": 208.0,
          "duration": "0.5"
        },
        {
          "pitch": 40,
          "velocity": 82,
          "start": 209.0,
          "duration": "0.5"
        },
        {
          "pitch": 46,
          "velocity": 49,
          "start": 209.0,
          "duration": "0.5"
        },
        {
          "pitch": 36,
          "velocity": 82,
          "start": 210.0,
          "duration": "0.5"
        },
        {
          "pitch": 46,
          "velocity": 49,
          "start": 210.0,
          "duration": "0.5"
        },
        {
          "pitch": 40,
          "velocity": 81,
          "start": 211.0,
          "duration": "0.5"
        },
        {
          "pitch": 46,
          "velocity": 49,
          "start": 211.0,
          "duration": "0.5"
        },
        {
          "pitch": 36,
          "velocity": 81,
          "start": 211.5,
          "duration": "0.5"
        },
        {
          "pitch": 46,
          "velocity": 49,
          "start": 212.0,
          "duration": "0.5"
        },
        {
          "pitch": 36,
          "velocity": 81,
          "start": 212.5,
          "duration": "0.5"
        },
        {
          "pitch": 40,
          "velocity": 81,
          "start": 213.0,
          "duration": "0.5"
        },
        {
          "pitch": 46,
          "velocity": 49,
          "start": 213.0,
          "duration": "0.5"
        },
        {
          "pitch": 36,
          "velocity": 80,
          "start": 213.5,
          "duration": "0.5"
        },
        {
          "pitch": 36,
          "velocity": 80,
          "start": 214.0,
          "duration": "0.5"
        },
        {
          "pitch": 46,
          "velocity": 49,
          "start": 214.0,
          "duration": "0.5"
        },
        {
          "pitch": 40,
          "velocity": 80,
          "start": 215.0,
          "duration": "0.5"
        },
        {
          "pitch": 36,
          "velocity": 80,
          "start": 215.0,
          "duration": "0.5"
        },
        {
          "pitch": 46,
          "velocity": 49,
          "start": 215.0,
          "duration": "0.5"
        },
        {
          "pitch": 36,
          "velocity": 82,
          "start": 216.0,
          "duration": "0.5"
        },
        {
          "pitch": 46,
          "velocity": 49,
          "start": 216.0,
          "duration": "0.5"
        },
        {
          "pitch": 40,
          "velocity": 82,
          "start": 217.0,
          "duration": "0.5"
        },
        {
          "pitch": 46,
          "velocity": 49,
          "start": 217.0,
          "duration": "0.5"
        },
        {
          "pitch": 36,
          "velocity": 82,
          "start": 218.0,
          "duration": "0.5"
        },
        {
          "pitch": 46,
          "velocity": 49,
          "start": 218.0,
          "duration": "0.5"
        },
        {
          "pitch": 40,
          "velocity": 81,
          "start": 218.5,
          "duration": "0.5"
        },
        {
          "pitch": 46,
          "velocity": 49,
          "start": 219.0,
          "duration": "0.5"
        },
        {
          "pitch": 40,
          "velocity": 81,
          "start": 219.5,
          "duration": "0.5"
        },
        {
          "pitch": 36,
          "velocity": 81,
          "start": 219.5,
          "duration": "0.5"
        },
        {
          "pitch": 46,
          "velocity": 49,
          "start": 220.0,
          "duration": "0.5"
        },
        {
          "pitch": 57,
          "velocity": 82,
          "start": 220.5,
          "duration": "0.5"
        },
        {
          "pitch": 36,
          "velocity": 81,
          "start": 220.5,
          "duration": "0.5"
        },
        {
          "pitch": 46,
          "velocity": 49,
          "start": 221.0,
          "duration": "0.5"
        },
        {
          "pitch": 40,
          "velocity": 81,
          "start": 221.0,
          "duration": "0.5"
        },
        {
          "pitch": 40,
          "velocity": 81,
          "start": 221.5,
          "duration": "0.5"
        },
        {
          "pitch": 36,
          "velocity": 80,
          "start": 221.5,
          "duration": "0.5"
        },
        {
          "pitch": 49,
          "velocity": 83,
          "start": 221.5,
          "duration": "0.5"
        },
        {
          "pitch": 36,
          "velocity": 80,
          "start": 222.0,
          "duration": "0.5"
        },
        {
          "pitch": 46,
          "velocity": 49,
          "start": 222.0,
          "duration": "0.5"
        },
        {
          "pitch": 40,
          "velocity": 80,
          "start": 222.5,
          "duration": "0.5"
        },
        {
          "pitch": 57,
          "velocity": 82,
          "start": 222.5,
          "duration": "1.0"
        },
        {
          "pitch": 46,
          "velocity": 49,
          "start": 223.0,
          "duration": "0.5"
        },
        {
          "pitch": 36,
          "velocity": 80,
          "start": 223.0,
          "duration": "0.5"
        },
        {
          "pitch": 40,
          "velocity": 80,
          "start": 223.0,
          "duration": "0.5"
        },
        {
          "pitch": 57,
          "velocity": 82,
          "start": 224.0,
          "duration": "0.5"
        },
        {
          "pitch": 36,
          "velocity": 82,
          "start": 224.0,
          "duration": "0.5"
        },
        {
          "pitch": 46,
          "velocity": 49,
          "start": 224.0,
          "duration": "0.5"
        },
        {
          "pitch": 40,
          "velocity": 82,
          "start": 225.0,
          "duration": "0.5"
        },
        {
          "pitch": 46,
          "velocity": 49,
          "start": 225.0,
          "duration": "0.5"
        },
        {
          "pitch": 46,
          "velocity": 49,
          "start": 226.0,
          "duration": "0.5"
        },
        {
          "pitch": 36,
          "velocity": 82,
          "start": 226.0,
          "duration": "0.5"
        },
        {
          "pitch": 46,
          "velocity": 49,
          "start": 227.0,
          "duration": "0.5"
        },
        {
          "pitch": 40,
          "velocity": 81,
          "start": 227.0,
          "duration": "0.5"
        },
        {
          "pitch": 36,
          "velocity": 81,
          "start": 227.5,
          "duration": "0.5"
        },
        {
          "pitch": 46,
          "velocity": 49,
          "start": 228.0,
          "duration": "0.5"
        },
        {
          "pitch": 36,
          "velocity": 81,
          "start": 228.5,
          "duration": "0.5"
        },
        {
          "pitch": 46,
          "velocity": 49,
          "start": 229.0,
          "duration": "0.5"
        },
        {
          "pitch": 40,
          "velocity": 81,
          "start": 229.0,
          "duration": "0.5"
        },
        {
          "pitch": 36,
          "velocity": 80,
          "start": 229.5,
          "duration": "0.5"
        },
        {
          "pitch": 46,
          "velocity": 49,
          "start": 230.0,
          "duration": "0.5"
        },
        {
          "pitch": 36,
          "velocity": 80,
          "start": 230.0,
          "duration": "0.5"
        },
        {
          "pitch": 40,
          "velocity": 80,
          "start": 231.0,
          "duration": "0.5"
        },
        {
          "pitch": 36,
          "velocity": 80,
          "start": 231.0,
          "duration": "0.5"
        },
        {
          "pitch": 46,
          "velocity": 49,
          "start": 231.0,
          "duration": "0.5"
        },
        {
          "pitch": 36,
          "velocity": 82,
          "start": 232.0,
          "duration": "0.5"
        },
        {
          "pitch": 46,
          "velocity": 49,
          "start": 232.0,
          "duration": "0.5"
        },
        {
          "pitch": 40,
          "velocity": 82,
          "start": 233.0,
          "duration": "0.5"
        },
        {
          "pitch": 46,
          "velocity": 49,
          "start": 233.0,
          "duration": "0.5"
        },
        {
          "pitch": 46,
          "velocity": 49,
          "start": 234.0,
          "duration": "0.5"
        },
        {
          "pitch": 36,
          "velocity": 82,
          "start": 234.0,
          "duration": "0.5"
        },
        {
          "pitch": 46,
          "velocity": 49,
          "start": 235.0,
          "duration": "0.5"
        },
        {
          "pitch": 40,
          "velocity": 81,
          "start": 235.0,
          "duration": "0.5"
        },
        {
          "pitch": 36,
          "velocity": 81,
          "start": 235.5,
          "duration": "0.5"
        },
        {
          "pitch": 46,
          "velocity": 49,
          "start": 236.0,
          "duration": "0.5"
        },
        {
          "pitch": 36,
          "velocity": 81,
          "start": 236.5,
          "duration": "0.5"
        },
        {
          "pitch": 40,
          "velocity": 81,
          "start": 237.0,
          "duration": "0.5"
        },
        {
          "pitch": 46,
          "velocity": 49,
          "start": 237.0,
          "duration": "0.5"
        },
        {
          "pitch": 36,
          "velocity": 80,
          "start": 237.5,
          "duration": "0.5"
        },
        {
          "pitch": 46,
          "velocity": 49,
          "start": 238.0,
          "duration": "0.5"
        },
        {
          "pitch": 36,
          "velocity": 80,
          "start": 238.0,
          "duration": "0.5"
        },
        {
          "pitch": 46,
          "velocity": 49,
          "start": 239.0,
          "duration": "0.5"
        },
        {
          "pitch": 36,
          "velocity": 80,
          "start": 239.0,
          "duration": "0.5"
        },
        {
          "pitch": 40,
          "velocity": 80,
          "start": 239.0,
          "duration": "0.5"
        },
        {
          "pitch": 36,
          "velocity": 82,
          "start": 240.0,
          "duration": "0.5"
        },
        {
          "pitch": 46,
          "velocity": 49,
          "start": 240.0,
          "duration": "0.5"
        },
        {
          "pitch": 40,
          "velocity": 82,
          "start": 241.0,
          "duration": "0.5"
        },
        {
          "pitch": 46,
          "velocity": 49,
          "start": 241.0,
          "duration": "0.5"
        },
        {
          "pitch": 46,
          "velocity": 49,
          "start": 242.0,
          "duration": "0.5"
        },
        {
          "pitch": 36,
          "velocity": 82,
          "start": 242.0,
          "duration": "0.5"
        },
        {
          "pitch": 40,
          "velocity": 81,
          "start": 243.0,
          "duration": "0.5"
        },
        {
          "pitch": 46,
          "velocity": 49,
          "start": 243.0,
          "duration": "0.5"
        },
        {
          "pitch": 36,
          "velocity": 81,
          "start": 243.5,
          "duration": "0.5"
        },
        {
          "pitch": 46,
          "velocity": 49,
          "start": 244.0,
          "duration": "0.5"
        },
        {
          "pitch": 36,
          "velocity": 81,
          "start": 244.5,
          "duration": "0.5"
        },
        {
          "pitch": 46,
          "velocity": 49,
          "start": 245.0,
          "duration": "0.5"
        },
        {
          "pitch": 40,
          "velocity": 81,
          "start": 245.0,
          "duration": "0.5"
        },
        {
          "pitch": 36,
          "velocity": 80,
          "start": 245.5,
          "duration": "0.5"
        },
        {
          "pitch": 46,
          "velocity": 49,
          "start": 246.0,
          "duration": "0.5"
        },
        {
          "pitch": 36,
          "velocity": 80,
          "start": 246.0,
          "duration": "0.5"
        },
        {
          "pitch": 46,
          "velocity": 49,
          "start": 247.0,
          "duration": "0.5"
        },
        {
          "pitch": 36,
          "velocity": 80,
          "start": 247.0,
          "duration": "0.5"
        },
        {
          "pitch": 40,
          "velocity": 80,
          "start": 247.0,
          "duration": "0.5"
        },
        {
          "pitch": 36,
          "velocity": 82,
          "start": 248.0,
          "duration": "0.5"
        },
        {
          "pitch": 46,
          "velocity": 49,
          "start": 248.0,
          "duration": "0.5"
        },
        {
          "pitch": 40,
          "velocity": 82,
          "start": 249.0,
          "duration": "0.5"
        },
        {
          "pitch": 46,
          "velocity": 49,
          "start": 249.0,
          "duration": "0.5"
        },
        {
          "pitch": 46,
          "velocity": 49,
          "start": 250.0,
          "duration": "0.5"
        },
        {
          "pitch": 36,
          "velocity": 82,
          "start": 250.0,
          "duration": "0.5"
        },
        {
          "pitch": 40,
          "velocity": 81,
          "start": 250.5,
          "duration": "0.5"
        },
        {
          "pitch": 46,
          "velocity": 49,
          "start": 251.0,
          "duration": "0.5"
        },
        {
          "pitch": 36,
          "velocity": 81,
          "start": 251.5,
          "duration": "0.5"
        },
        {
          "pitch": 40,
          "velocity": 81,
          "start": 251.5,
          "duration": "0.5"
        },
        {
          "pitch": 46,
          "velocity": 49,
          "start": 252.0,
          "duration": "0.5"
        },
        {
          "pitch": 36,
          "velocity": 81,
          "start": 252.5,
          "duration": "0.5"
        },
        {
          "pitch": 57,
          "velocity": 82,
          "start": 252.5,
          "duration": "0.5"
        },
        {
          "pitch": 40,
          "velocity": 81,
          "start": 253.0,
          "duration": "0.5"
        },
        {
          "pitch": 46,
          "velocity": 49,
          "start": 253.0,
          "duration": "0.5"
        },
        {
          "pitch": 49,
          "velocity": 83,
          "start": 253.5,
          "duration": "0.5"
        },
        {
          "pitch": 36,
          "velocity": 80,
          "start": 253.5,
          "duration": "0.5"
        },
        {
          "pitch": 40,
          "velocity": 81,
          "start": 253.5,
          "duration": "0.5"
        },
        {
          "pitch": 46,
          "velocity": 49,
          "start": 254.0,
          "duration": "0.5"
        },
        {
          "pitch": 36,
          "velocity": 80,
          "start": 254.0,
          "duration": "0.5"
        },
        {
          "pitch": 40,
          "velocity": 80,
          "start": 254.5,
          "duration": "0.5"
        },
        {
          "pitch": 46,
          "velocity": 49,
          "start": 255.0,
          "duration": "0.5"
        },
        {
          "pitch": 57,
          "velocity": 82,
          "start": 254.5,
          "duration": "1.0"
        },
        {
          "pitch": 36,
          "velocity": 80,
          "start": 255.0,
          "duration": "0.5"
        },
        {
          "pitch": 40,
          "velocity": 80,
          "start": 255.0,
          "duration": "0.5"
        },
        {
          "pitch": 57,
          "velocity": 82,
          "start": 256.0,
          "duration": "0.5"
        },
        {
          "pitch": 36,
          "velocity": 82,
          "start": 256.0,
          "duration": "0.5"
        },
        {
          "pitch": 46,
          "velocity": 49,
          "start": 256.0,
          "duration": "0.5"
        },
        {
          "pitch": 40,
          "velocity": 82,
          "start": 257.0,
          "duration": "0.5"
        },
        {
          "pitch": 46,
          "velocity": 49,
          "start": 257.0,
          "duration": "0.5"
        },
        {
          "pitch": 46,
          "velocity": 49,
          "start": 258.0,
          "duration": "0.5"
        },
        {
          "pitch": 36,
          "velocity": 82,
          "start": 258.0,
          "duration": "0.5"
        },
        {
          "pitch": 40,
          "velocity": 81,
          "start": 259.0,
          "duration": "0.5"
        },
        {
          "pitch": 46,
          "velocity": 49,
          "start": 259.0,
          "duration": "0.5"
        },
        {
          "pitch": 36,
          "velocity": 81,
          "start": 259.5,
          "duration": "0.5"
        },
        {
          "pitch": 46,
          "velocity": 49,
          "start": 260.0,
          "duration": "0.5"
        },
        {
          "pitch": 36,
          "velocity": 81,
          "start": 260.5,
          "duration": "0.5"
        },
        {
          "pitch": 46,
          "velocity": 49,
          "start": 261.0,
          "duration": "0.5"
        },
        {
          "pitch": 40,
          "velocity": 81,
          "start": 261.0,
          "duration": "0.5"
        },
        {
          "pitch": 36,
          "velocity": 80,
          "start": 261.5,
          "duration": "0.5"
        },
        {
          "pitch": 46,
          "velocity": 49,
          "start": 262.0,
          "duration": "0.5"
        },
        {
          "pitch": 36,
          "velocity": 80,
          "start": 262.0,
          "duration": "0.5"
        },
        {
          "pitch": 40,
          "velocity": 80,
          "start": 263.0,
          "duration": "0.5"
        },
        {
          "pitch": 36,
          "velocity": 80,
          "start": 263.0,
          "duration": "0.5"
        },
        {
          "pitch": 46,
          "velocity": 49,
          "start": 263.0,
          "duration": "0.5"
        },
        {
          "pitch": 36,
          "velocity": 82,
          "start": 264.0,
          "duration": "0.5"
        },
        {
          "pitch": 46,
          "velocity": 49,
          "start": 264.0,
          "duration": "0.5"
        },
        {
          "pitch": 40,
          "velocity": 82,
          "start": 265.0,
          "duration": "0.5"
        },
        {
          "pitch": 46,
          "velocity": 49,
          "start": 265.0,
          "duration": "0.5"
        },
        {
          "pitch": 46,
          "velocity": 49,
          "start": 266.0,
          "duration": "0.5"
        },
        {
          "pitch": 36,
          "velocity": 82,
          "start": 266.0,
          "duration": "0.5"
        },
        {
          "pitch": 46,
          "velocity": 49,
          "start": 267.0,
          "duration": "0.5"
        },
        {
          "pitch": 40,
          "velocity": 81,
          "start": 267.0,
          "duration": "0.5"
        },
        {
          "pitch": 36,
          "velocity": 81,
          "start": 267.5,
          "duration": "0.5"
        },
        {
          "pitch": 46,
          "velocity": 49,
          "start": 268.0,
          "duration": "0.5"
        },
        {
          "pitch": 36,
          "velocity": 81,
          "start": 268.5,
          "duration": "0.5"
        },
        {
          "pitch": 40,
          "velocity": 81,
          "start": 269.0,
          "duration": "0.5"
        },
        {
          "pitch": 46,
          "velocity": 49,
          "start": 269.0,
          "duration": "0.5"
        },
        {
          "pitch": 36,
          "velocity": 80,
          "start": 269.5,
          "duration": "0.5"
        },
        {
          "pitch": 46,
          "velocity": 49,
          "start": 270.0,
          "duration": "0.5"
        },
        {
          "pitch": 36,
          "velocity": 80,
          "start": 270.0,
          "duration": "0.5"
        },
        {
          "pitch": 46,
          "velocity": 49,
          "start": 271.0,
          "duration": "0.5"
        },
        {
          "pitch": 36,
          "velocity": 80,
          "start": 271.0,
          "duration": "0.5"
        },
        {
          "pitch": 40,
          "velocity": 80,
          "start": 271.0,
          "duration": "0.5"
        },
        {
          "pitch": 36,
          "velocity": 82,
          "start": 272.0,
          "duration": "0.5"
        },
        {
          "pitch": 46,
          "velocity": 49,
          "start": 272.0,
          "duration": "0.5"
        },
        {
          "pitch": 40,
          "velocity": 82,
          "start": 273.0,
          "duration": "0.5"
        },
        {
          "pitch": 46,
          "velocity": 49,
          "start": 273.0,
          "duration": "0.5"
        },
        {
          "pitch": 46,
          "velocity": 49,
          "start": 274.0,
          "duration": "0.5"
        },
        {
          "pitch": 36,
          "velocity": 82,
          "start": 274.0,
          "duration": "0.5"
        },
        {
          "pitch": 46,
          "velocity": 49,
          "start": 275.0,
          "duration": "0.5"
        },
        {
          "pitch": 40,
          "velocity": 81,
          "start": 275.0,
          "duration": "0.5"
        },
        {
          "pitch": 36,
          "velocity": 81,
          "start": 275.5,
          "duration": "0.5"
        },
        {
          "pitch": 46,
          "velocity": 49,
          "start": 276.0,
          "duration": "0.5"
        },
        {
          "pitch": 36,
          "velocity": 81,
          "start": 276.5,
          "duration": "0.5"
        },
        {
          "pitch": 46,
          "velocity": 49,
          "start": 277.0,
          "duration": "0.5"
        },
        {
          "pitch": 40,
          "velocity": 81,
          "start": 277.0,
          "duration": "0.5"
        },
        {
          "pitch": 36,
          "velocity": 80,
          "start": 277.5,
          "duration": "0.5"
        },
        {
          "pitch": 46,
          "velocity": 49,
          "start": 278.0,
          "duration": "0.5"
        },
        {
          "pitch": 36,
          "velocity": 80,
          "start": 278.0,
          "duration": "0.5"
        },
        {
          "pitch": 46,
          "velocity": 49,
          "start": 279.0,
          "duration": "0.5"
        },
        {
          "pitch": 36,
          "velocity": 80,
          "start": 279.0,
          "duration": "0.5"
        },
        {
          "pitch": 40,
          "velocity": 80,
          "start": 279.0,
          "duration": "0.5"
        },
        {
          "pitch": 36,
          "velocity": 82,
          "start": 280.0,
          "duration": "0.5"
        },
        {
          "pitch": 46,
          "velocity": 49,
          "start": 280.0,
          "duration": "0.5"
        },
        {
          "pitch": 40,
          "velocity": 82,
          "start": 281.0,
          "duration": "0.5"
        },
        {
          "pitch": 46,
          "velocity": 49,
          "start": 281.0,
          "duration": "0.5"
        },
        {
          "pitch": 46,
          "velocity": 49,
          "start": 282.0,
          "duration": "0.5"
        },
        {
          "pitch": 36,
          "velocity": 82,
          "start": 282.0,
          "duration": "0.5"
        },
        {
          "pitch": 40,
          "velocity": 81,
          "start": 282.5,
          "duration": "0.5"
        },
        {
          "pitch": 46,
          "velocity": 49,
          "start": 283.0,
          "duration": "0.5"
        },
        {
          "pitch": 36,
          "velocity": 81,
          "start": 283.5,
          "duration": "0.5"
        },
        {
          "pitch": 40,
          "velocity": 81,
          "start": 283.5,
          "duration": "0.5"
        },
        {
          "pitch": 46,
          "velocity": 49,
          "start": 284.0,
          "duration": "0.5"
        },
        {
          "pitch": 36,
          "velocity": 81,
          "start": 284.5,
          "duration": "0.5"
        },
        {
          "pitch": 57,
          "velocity": 82,
          "start": 284.5,
          "duration": "0.5"
        },
        {
          "pitch": 40,
          "velocity": 81,
          "start": 285.0,
          "duration": "0.5"
        },
        {
          "pitch": 46,
          "velocity": 49,
          "start": 285.0,
          "duration": "0.5"
        },
        {
          "pitch": 49,
          "velocity": 83,
          "start": 285.5,
          "duration": "0.5"
        },
        {
          "pitch": 36,
          "velocity": 80,
          "start": 285.5,
          "duration": "0.5"
        },
        {
          "pitch": 40,
          "velocity": 81,
          "start": 285.5,
          "duration": "0.5"
        },
        {
          "pitch": 46,
          "velocity": 49,
          "start": 286.0,
          "duration": "0.5"
        },
        {
          "pitch": 36,
          "velocity": 80,
          "start": 286.0,
          "duration": "0.5"
        },
        {
          "pitch": 40,
          "velocity": 80,
          "start": 286.5,
          "duration": "0.5"
        },
        {
          "pitch": 46,
          "velocity": 49,
          "start": 287.0,
          "duration": "0.5"
        },
        {
          "pitch": 57,
          "velocity": 82,
          "start": 286.5,
          "duration": "1.0"
        },
        {
          "pitch": 36,
          "velocity": 80,
          "start": 287.0,
          "duration": "0.5"
        },
        {
          "pitch": 40,
          "velocity": 80,
          "start": 287.0,
          "duration": "0.5"
        },
        {
          "pitch": 57,
          "velocity": 82,
          "start": 288.0,
          "duration": "0.5"
        },
        {
          "pitch": 36,
          "velocity": 82,
          "start": 288.0,
          "duration": "0.5"
        },
        {
          "pitch": 46,
          "velocity": 49,
          "start": 288.0,
          "duration": "0.5"
        },
        {
          "pitch": 46,
          "velocity": 49,
          "start": 289.0,
          "duration": "0.5"
        },
        {
          "pitch": 40,
          "velocity": 82,
          "start": 289.0,
          "duration": "0.5"
        },
        {
          "pitch": 46,
          "velocity": 49,
          "start": 290.0,
          "duration": "0.5"
        },
        {
          "pitch": 36,
          "velocity": 82,
          "start": 290.0,
          "duration": "0.5"
        },
        {
          "pitch": 40,
          "velocity": 81,
          "start": 291.0,
          "duration": "0.5"
        },
        {
          "pitch": 46,
          "velocity": 49,
          "start": 291.0,
          "duration": "0.5"
        },
        {
          "pitch": 36,
          "velocity": 81,
          "start": 291.5,
          "duration": "0.5"
        },
        {
          "pitch": 46,
          "velocity": 49,
          "start": 292.0,
          "duration": "0.5"
        },
        {
          "pitch": 36,
          "velocity": 81,
          "start": 292.5,
          "duration": "0.5"
        },
        {
          "pitch": 40,
          "velocity": 81,
          "start": 293.0,
          "duration": "0.5"
        },
        {
          "pitch": 46,
          "velocity": 49,
          "start": 293.0,
          "duration": "0.5"
        },
        {
          "pitch": 36,
          "velocity": 80,
          "start": 293.5,
          "duration": "0.5"
        },
        {
          "pitch": 46,
          "velocity": 49,
          "start": 294.0,
          "duration": "0.5"
        },
        {
          "pitch": 36,
          "velocity": 80,
          "start": 294.0,
          "duration": "0.5"
        },
        {
          "pitch": 46,
          "velocity": 49,
          "start": 295.0,
          "duration": "0.5"
        },
        {
          "pitch": 36,
          "velocity": 80,
          "start": 295.0,
          "duration": "0.5"
        },
        {
          "pitch": 40,
          "velocity": 80,
          "start": 295.0,
          "duration": "0.5"
        },
        {
          "pitch": 36,
          "velocity": 82,
          "start": 296.0,
          "duration": "0.5"
        },
        {
          "pitch": 46,
          "velocity": 49,
          "start": 296.0,
          "duration": "0.5"
        },
        {
          "pitch": 46,
          "velocity": 49,
          "start": 297.0,
          "duration": "0.5"
        },
        {
          "pitch": 40,
          "velocity": 82,
          "start": 297.0,
          "duration": "0.5"
        },
        {
          "pitch": 46,
          "velocity": 49,
          "start": 298.0,
          "duration": "0.5"
        },
        {
          "pitch": 36,
          "velocity": 82,
          "start": 298.0,
          "duration": "0.5"
        },
        {
          "pitch": 40,
          "velocity": 81,
          "start": 299.0,
          "duration": "0.5"
        },
        {
          "pitch": 46,
          "velocity": 49,
          "start": 299.0,
          "duration": "0.5"
        },
        {
          "pitch": 36,
          "velocity": 81,
          "start": 299.5,
          "duration": "0.5"
        },
        {
          "pitch": 46,
          "velocity": 49,
          "start": 300.0,
          "duration": "0.5"
        },
        {
          "pitch": 36,
          "velocity": 81,
          "start": 300.5,
          "duration": "0.5"
        },
        {
          "pitch": 46,
          "velocity": 49,
          "start": 301.0,
          "duration": "0.5"
        },
        {
          "pitch": 40,
          "velocity": 81,
          "start": 301.0,
          "duration": "0.5"
        },
        {
          "pitch": 36,
          "velocity": 80,
          "start": 301.5,
          "duration": "0.5"
        },
        {
          "pitch": 46,
          "velocity": 49,
          "start": 302.0,
          "duration": "0.5"
        },
        {
          "pitch": 36,
          "velocity": 80,
          "start": 302.0,
          "duration": "0.5"
        },
        {
          "pitch": 40,
          "velocity": 80,
          "start": 303.0,
          "duration": "0.5"
        },
        {
          "pitch": 36,
          "velocity": 80,
          "start": 303.0,
          "duration": "0.5"
        },
        {
          "pitch": 46,
          "velocity": 49,
          "start": 303.0,
          "duration": "0.5"
        },
        {
          "pitch": 36,
          "velocity": 82,
          "start": 304.0,
          "duration": "0.5"
        },
        {
          "pitch": 46,
          "velocity": 49,
          "start": 304.0,
          "duration": "0.5"
        },
        {
          "pitch": 46,
          "velocity": 49,
          "start": 305.0,
          "duration": "0.5"
        },
        {
          "pitch": 40,
          "velocity": 82,
          "start": 305.0,
          "duration": "0.5"
        },
        {
          "pitch": 46,
          "velocity": 49,
          "start": 306.0,
          "duration": "0.5"
        },
        {
          "pitch": 36,
          "velocity": 82,
          "start": 306.0,
          "duration": "0.5"
        },
        {
          "pitch": 46,
          "velocity": 49,
          "start": 307.0,
          "duration": "0.5"
        },
        {
          "pitch": 40,
          "velocity": 81,
          "start": 307.0,
          "duration": "0.5"
        },
        {
          "pitch": 36,
          "velocity": 81,
          "start": 307.5,
          "duration": "0.5"
        },
        {
          "pitch": 46,
          "velocity": 49,
          "start": 308.0,
          "duration": "0.5"
        },
        {
          "pitch": 36,
          "velocity": 81,
          "start": 308.5,
          "duration": "0.5"
        },
        {
          "pitch": 40,
          "velocity": 81,
          "start": 309.0,
          "duration": "0.5"
        },
        {
          "pitch": 46,
          "velocity": 49,
          "start": 309.0,
          "duration": "0.5"
        },
        {
          "pitch": 36,
          "velocity": 80,
          "start": 309.5,
          "duration": "0.5"
        },
        {
          "pitch": 46,
          "velocity": 49,
          "start": 310.0,
          "duration": "0.5"
        },
        {
          "pitch": 36,
          "velocity": 80,
          "start": 310.0,
          "duration": "0.5"
        },
        {
          "pitch": 40,
          "velocity": 80,
          "start": 311.0,
          "duration": "0.5"
        },
        {
          "pitch": 36,
          "velocity": 80,
          "start": 311.0,
          "duration": "0.5"
        },
        {
          "pitch": 46,
          "velocity": 49,
          "start": 311.0,
          "duration": "0.5"
        },
        {
          "pitch": 36,
          "velocity": 82,
          "start": 312.0,
          "duration": "0.5"
        },
        {
          "pitch": 46,
          "velocity": 49,
          "start": 312.0,
          "duration": "0.5"
        },
        {
          "pitch": 46,
          "velocity": 49,
          "start": 313.0,
          "duration": "0.5"
        },
        {
          "pitch": 40,
          "velocity": 82,
          "start": 313.0,
          "duration": "0.5"
        },
        {
          "pitch": 46,
          "velocity": 49,
          "start": 314.0,
          "duration": "0.5"
        },
        {
          "pitch": 36,
          "velocity": 82,
          "start": 314.0,
          "duration": "0.5"
        },
        {
          "pitch": 40,
          "velocity": 81,
          "start": 314.5,
          "duration": "0.5"
        },
        {
          "pitch": 46,
          "velocity": 49,
          "start": 315.0,
          "duration": "0.5"
        },
        {
          "pitch": 36,
          "velocity": 81,
          "start": 315.5,
          "duration": "0.5"
        },
        {
          "pitch": 40,
          "velocity": 81,
          "start": 315.5,
          "duration": "0.5"
        },
        {
          "pitch": 46,
          "velocity": 49,
          "start": 316.0,
          "duration": "0.5"
        },
        {
          "pitch": 36,
          "velocity": 81,
          "start": 316.5,
          "duration": "0.5"
        },
        {
          "pitch": 57,
          "velocity": 82,
          "start": 316.5,
          "duration": "0.5"
        },
        {
          "pitch": 46,
          "velocity": 49,
          "start": 317.0,
          "duration": "0.5"
        },
        {
          "pitch": 40,
          "velocity": 81,
          "start": 317.0,
          "duration": "0.5"
        },
        {
          "pitch": 49,
          "velocity": 82,
          "start": 317.5,
          "duration": "0.5"
        },
        {
          "pitch": 36,
          "velocity": 80,
          "start": 317.5,
          "duration": "0.5"
        },
        {
          "pitch": 40,
          "velocity": 81,
          "start": 317.5,
          "duration": "0.5"
        },
        {
          "pitch": 36,
          "velocity": 80,
          "start": 318.0,
          "duration": "0.5"
        },
        {
          "pitch": 46,
          "velocity": 49,
          "start": 318.0,
          "duration": "0.5"
        },
        {
          "pitch": 40,
          "velocity": 80,
          "start": 318.5,
          "duration": "0.5"
        },
        {
          "pitch": 36,
          "velocity": 80,
          "start": 319.0,
          "duration": "0.5"
        },
        {
          "pitch": 57,
          "velocity": 82,
          "start": 318.5,
          "duration": "1.0"
        },
        {
          "pitch": 40,
          "velocity": 80,
          "start": 319.0,
          "duration": "0.5"
        },
        {
          "pitch": 46,
          "velocity": 49,
          "start": 319.0,
          "duration": "0.5"
        },
        {
          "pitch": 57,
          "velocity": 82,
          "start": 320.0,
          "duration": "0.5"
        },
        {
          "pitch": 36,
          "velocity": 80,
          "start": 320.0,
          "duration": "0.5"
        },
        {
          "pitch": 44,
          "velocity": 49,
          "start": 320.0,
          "duration": "0.5"
        },
        {
          "pitch": 44,
          "velocity": 49,
          "start": 321.0,
          "duration": "0.5"
        },
        {
          "pitch": 40,
          "velocity": 80,
          "start": 322.0,
          "duration": "0.5"
        },
        {
          "pitch": 44,
          "velocity": 49,
          "start": 322.0,
          "duration": "0.5"
        },
        {
          "pitch": 44,
          "velocity": 49,
          "start": 323.0,
          "duration": "0.5"
        },
        {
          "pitch": 36,
          "velocity": 80,
          "start": 323.5,
          "duration": "0.5"
        },
        {
          "pitch": 44,
          "velocity": 49,
          "start": 324.0,
          "duration": "0.5"
        },
        {
          "pitch": 36,
          "velocity": 80,
          "start": 324.5,
          "duration": "0.5"
        },
        {
          "pitch": 44,
          "velocity": 49,
          "start": 325.0,
          "duration": "0.5"
        },
        {
          "pitch": 36,
          "velocity": 80,
          "start": 325.5,
          "duration": "0.5"
        },
        {
          "pitch": 40,
          "velocity": 80,
          "start": 326.0,
          "duration": "0.5"
        },
        {
          "pitch": 36,
          "velocity": 80,
          "start": 326.0,
          "duration": "0.5"
        },
        {
          "pitch": 44,
          "velocity": 49,
          "start": 326.0,
          "duration": "0.5"
        },
        {
          "pitch": 44,
          "velocity": 49,
          "start": 327.0,
          "duration": "0.5"
        },
        {
          "pitch": 40,
          "velocity": 80,
          "start": 327.5,
          "duration": "0.5"
        },
        {
          "pitch": 36,
          "velocity": 80,
          "start": 328.0,
          "duration": "0.5"
        },
        {
          "pitch": 44,
          "velocity": 49,
          "start": 328.0,
          "duration": "0.5"
        },
        {
          "pitch": 44,
          "velocity": 49,
          "start": 329.0,
          "duration": "0.5"
        },
        {
          "pitch": 40,
          "velocity": 80,
          "start": 330.0,
          "duration": "0.5"
        },
        {
          "pitch": 44,
          "velocity": 49,
          "start": 330.0,
          "duration": "0.5"
        },
        {
          "pitch": 44,
          "velocity": 49,
          "start": 331.0,
          "duration": "0.5"
        },
        {
          "pitch": 36,
          "velocity": 80,
          "start": 331.5,
          "duration": "0.5"
        },
        {
          "pitch": 44,
          "velocity": 49,
          "start": 332.0,
          "duration": "0.5"
        },
        {
          "pitch": 36,
          "velocity": 80,
          "start": 332.5,
          "duration": "0.5"
        },
        {
          "pitch": 44,
          "velocity": 49,
          "start": 333.0,
          "duration": "0.5"
        },
        {
          "pitch": 36,
          "velocity": 80,
          "start": 333.5,
          "duration": "0.5"
        },
        {
          "pitch": 40,
          "velocity": 80,
          "start": 334.0,
          "duration": "0.5"
        },
        {
          "pitch": 44,
          "velocity": 49,
          "start": 334.0,
          "duration": "0.5"
        },
        {
          "pitch": 36,
          "velocity": 80,
          "start": 334.0,
          "duration": "0.5"
        },
        {
          "pitch": 44,
          "velocity": 49,
          "start": 335.0,
          "duration": "0.5"
        },
        {
          "pitch": 40,
          "velocity": 80,
          "start": 335.5,
          "duration": "0.5"
        },
        {
          "pitch": 36,
          "velocity": 80,
          "start": 336.0,
          "duration": "0.5"
        },
        {
          "pitch": 44,
          "velocity": 49,
          "start": 336.0,
          "duration": "0.5"
        },
        {
          "pitch": 44,
          "velocity": 49,
          "start": 337.0,
          "duration": "0.5"
        },
        {
          "pitch": 40,
          "velocity": 80,
          "start": 338.0,
          "duration": "0.5"
        },
        {
          "pitch": 44,
          "velocity": 49,
          "start": 338.0,
          "duration": "0.5"
        },
        {
          "pitch": 44,
          "velocity": 49,
          "start": 339.0,
          "duration": "0.5"
        },
        {
          "pitch": 36,
          "velocity": 80,
          "start": 339.5,
          "duration": "0.5"
        },
        {
          "pitch": 44,
          "velocity": 49,
          "start": 340.0,
          "duration": "0.5"
        },
        {
          "pitch": 36,
          "velocity": 80,
          "start": 340.5,
          "duration": "0.5"
        },
        {
          "pitch": 44,
          "velocity": 49,
          "start": 341.0,
          "duration": "0.5"
        },
        {
          "pitch": 36,
          "velocity": 80,
          "start": 341.5,
          "duration": "0.5"
        },
        {
          "pitch": 40,
          "velocity": 80,
          "start": 342.0,
          "duration": "0.5"
        },
        {
          "pitch": 44,
          "velocity": 49,
          "start": 342.0,
          "duration": "0.5"
        },
        {
          "pitch": 36,
          "velocity": 80,
          "start": 342.0,
          "duration": "0.5"
        },
        {
          "pitch": 44,
          "velocity": 49,
          "start": 343.0,
          "duration": "0.5"
        },
        {
          "pitch": 40,
          "velocity": 80,
          "start": 343.5,
          "duration": "0.5"
        },
        {
          "pitch": 36,
          "velocity": 80,
          "start": 344.0,
          "duration": "0.5"
        },
        {
          "pitch": 44,
          "velocity": 49,
          "start": 344.0,
          "duration": "0.5"
        },
        {
          "pitch": 44,
          "velocity": 49,
          "start": 345.0,
          "duration": "0.5"
        },
        {
          "pitch": 40,
          "velocity": 80,
          "start": 346.0,
          "duration": "0.5"
        },
        {
          "pitch": 44,
          "velocity": 49,
          "start": 346.0,
          "duration": "0.5"
        },
        {
          "pitch": 44,
          "velocity": 49,
          "start": 347.0,
          "duration": "0.5"
        },
        {
          "pitch": 36,
          "velocity": 80,
          "start": 347.5,
          "duration": "0.5"
        },
        {
          "pitch": 44,
          "velocity": 49,
          "start": 348.0,
          "duration": "0.5"
        },
        {
          "pitch": 36,
          "velocity": 80,
          "start": 348.5,
          "duration": "0.5"
        },
        {
          "pitch": 44,
          "velocity": 49,
          "start": 349.0,
          "duration": "0.5"
        },
        {
          "pitch": 36,
          "velocity": 80,
          "start": 349.5,
          "duration": "0.5"
        },
        {
          "pitch": 40,
          "velocity": 80,
          "start": 350.0,
          "duration": "0.5"
        },
        {
          "pitch": 44,
          "velocity": 49,
          "start": 350.0,
          "duration": "0.5"
        },
        {
          "pitch": 36,
          "velocity": 80,
          "start": 350.0,
          "duration": "0.5"
        },
        {
          "pitch": 44,
          "velocity": 49,
          "start": 351.0,
          "duration": "0.5"
        },
        {
          "pitch": 40,
          "velocity": 80,
          "start": 351.5,
          "duration": "0.5"
        },
        {
          "pitch": 36,
          "velocity": 80,
          "start": 352.0,
          "duration": "0.5"
        },
        {
          "pitch": 44,
          "velocity": 49,
          "start": 352.0,
          "duration": "0.5"
        },
        {
          "pitch": 44,
          "velocity": 49,
          "start": 353.0,
          "duration": "0.5"
        },
        {
          "pitch": 40,
          "velocity": 80,
          "start": 354.0,
          "duration": "0.5"
        },
        {
          "pitch": 44,
          "velocity": 49,
          "start": 354.0,
          "duration": "0.5"
        },
        {
          "pitch": 44,
          "velocity": 49,
          "start": 355.0,
          "duration": "0.5"
        },
        {
          "pitch": 36,
          "velocity": 80,
          "start": 355.5,
          "duration": "0.5"
        },
        {
          "pitch": 44,
          "velocity": 49,
          "start": 356.0,
          "duration": "0.5"
        },
        {
          "pitch": 36,
          "velocity": 80,
          "start": 356.5,
          "duration": "0.5"
        },
        {
          "pitch": 44,
          "velocity": 49,
          "start": 357.0,
          "duration": "0.5"
        },
        {
          "pitch": 36,
          "velocity": 80,
          "start": 357.5,
          "duration": "0.5"
        },
        {
          "pitch": 40,
          "velocity": 80,
          "start": 358.0,
          "duration": "0.5"
        },
        {
          "pitch": 36,
          "velocity": 80,
          "start": 358.0,
          "duration": "0.5"
        },
        {
          "pitch": 44,
          "velocity": 49,
          "start": 358.0,
          "duration": "0.5"
        },
        {
          "pitch": 44,
          "velocity": 49,
          "start": 359.0,
          "duration": "0.5"
        },
        {
          "pitch": 40,
          "velocity": 80,
          "start": 359.5,
          "duration": "0.5"
        },
        {
          "pitch": 36,
          "velocity": 80,
          "start": 360.0,
          "duration": "0.5"
        },
        {
          "pitch": 44,
          "velocity": 49,
          "start": 360.0,
          "duration": "0.5"
        },
        {
          "pitch": 44,
          "velocity": 49,
          "start": 361.0,
          "duration": "0.5"
        },
        {
          "pitch": 40,
          "velocity": 80,
          "start": 362.0,
          "duration": "0.5"
        },
        {
          "pitch": 44,
          "velocity": 49,
          "start": 362.0,
          "duration": "0.5"
        },
        {
          "pitch": 44,
          "velocity": 49,
          "start": 363.0,
          "duration": "0.5"
        },
        {
          "pitch": 36,
          "velocity": 80,
          "start": 363.5,
          "duration": "0.5"
        },
        {
          "pitch": 44,
          "velocity": 49,
          "start": 364.0,
          "duration": "0.5"
        },
        {
          "pitch": 36,
          "velocity": 80,
          "start": 364.5,
          "duration": "0.5"
        },
        {
          "pitch": 44,
          "velocity": 49,
          "start": 365.0,
          "duration": "0.5"
        },
        {
          "pitch": 36,
          "velocity": 80,
          "start": 365.5,
          "duration": "0.5"
        },
        {
          "pitch": 40,
          "velocity": 80,
          "start": 366.0,
          "duration": "0.5"
        },
        {
          "pitch": 44,
          "velocity": 49,
          "start": 366.0,
          "duration": "0.5"
        },
        {
          "pitch": 36,
          "velocity": 80,
          "start": 366.0,
          "duration": "0.5"
        },
        {
          "pitch": 44,
          "velocity": 49,
          "start": 367.0,
          "duration": "0.5"
        },
        {
          "pitch": 40,
          "velocity": 80,
          "start": 367.5,
          "duration": "0.5"
        },
        {
          "pitch": 36,
          "velocity": 80,
          "start": 368.0,
          "duration": "0.5"
        },
        {
          "pitch": 44,
          "velocity": 49,
          "start": 368.0,
          "duration": "0.5"
        },
        {
          "pitch": 44,
          "velocity": 49,
          "start": 369.0,
          "duration": "0.5"
        },
        {
          "pitch": 44,
          "velocity": 49,
          "start": 370.0,
          "duration": "0.5"
        },
        {
          "pitch": 40,
          "velocity": 80,
          "start": 370.0,
          "duration": "0.5"
        },
        {
          "pitch": 44,
          "velocity": 49,
          "start": 371.0,
          "duration": "0.5"
        },
        {
          "pitch": 36,
          "velocity": 80,
          "start": 371.5,
          "duration": "0.5"
        },
        {
          "pitch": 44,
          "velocity": 49,
          "start": 372.0,
          "duration": "0.5"
        },
        {
          "pitch": 36,
          "velocity": 80,
          "start": 372.5,
          "duration": "0.5"
        },
        {
          "pitch": 44,
          "velocity": 49,
          "start": 373.0,
          "duration": "0.5"
        },
        {
          "pitch": 36,
          "velocity": 80,
          "start": 373.5,
          "duration": "0.5"
        },
        {
          "pitch": 44,
          "velocity": 49,
          "start": 374.0,
          "duration": "0.5"
        },
        {
          "pitch": 40,
          "velocity": 80,
          "start": 374.0,
          "duration": "0.5"
        },
        {
          "pitch": 36,
          "velocity": 80,
          "start": 374.0,
          "duration": "0.5"
        },
        {
          "pitch": 44,
          "velocity": 49,
          "start": 375.0,
          "duration": "0.5"
        },
        {
          "pitch": 40,
          "velocity": 80,
          "start": 375.5,
          "duration": "0.5"
        },
        {
          "pitch": 36,
          "velocity": 80,
          "start": 376.0,
          "duration": "0.5"
        },
        {
          "pitch": 44,
          "velocity": 49,
          "start": 376.0,
          "duration": "0.5"
        },
        {
          "pitch": 44,
          "velocity": 49,
          "start": 377.0,
          "duration": "0.5"
        },
        {
          "pitch": 44,
          "velocity": 49,
          "start": 378.0,
          "duration": "0.5"
        },
        {
          "pitch": 40,
          "velocity": 80,
          "start": 378.0,
          "duration": "0.5"
        },
        {
          "pitch": 44,
          "velocity": 49,
          "start": 379.0,
          "duration": "0.5"
        },
        {
          "pitch": 36,
          "velocity": 80,
          "start": 379.5,
          "duration": "0.5"
        },
        {
          "pitch": 44,
          "velocity": 49,
          "start": 380.0,
          "duration": "0.5"
        },
        {
          "pitch": 36,
          "velocity": 80,
          "start": 380.5,
          "duration": "0.5"
        },
        {
          "pitch": 44,
          "velocity": 49,
          "start": 381.0,
          "duration": "0.5"
        },
        {
          "pitch": 36,
          "velocity": 80,
          "start": 381.5,
          "duration": "0.5"
        },
        {
          "pitch": 44,
          "velocity": 49,
          "start": 382.0,
          "duration": "0.5"
        },
        {
          "pitch": 40,
          "velocity": 80,
          "start": 382.0,
          "duration": "0.5"
        },
        {
          "pitch": 36,
          "velocity": 80,
          "start": 382.0,
          "duration": "0.5"
        },
        {
          "pitch": 44,
          "velocity": 49,
          "start": 383.0,
          "duration": "0.5"
        },
        {
          "pitch": 40,
          "velocity": 80,
          "start": 383.5,
          "duration": "0.5"
        },
        {
          "pitch": 55,
          "velocity": 82,
          "start": 384.0,
          "duration": "0.5"
        },
        {
          "pitch": 44,
          "velocity": 49,
          "start": 384.0,
          "duration": "0.5"
        },
        {
          "pitch": 36,
          "velocity": 80,
          "start": 384.0,
          "duration": "0.5"
        },
        {
          "pitch": 44,
          "velocity": 49,
          "start": 385.0,
          "duration": "0.5"
        },
        {
          "pitch": 44,
          "velocity": 49,
          "start": 386.0,
          "duration": "0.5"
        },
        {
          "pitch": 40,
          "velocity": 80,
          "start": 386.0,
          "duration": "0.5"
        },
        {
          "pitch": 44,
          "velocity": 49,
          "start": 387.0,
          "duration": "0.5"
        },
        {
          "pitch": 36,
          "velocity": 80,
          "start": 387.5,
          "duration": "0.5"
        },
        {
          "pitch": 44,
          "velocity": 49,
          "start": 388.0,
          "duration": "0.5"
        },
        {
          "pitch": 36,
          "velocity": 80,
          "start": 388.5,
          "duration": "0.5"
        },
        {
          "pitch": 44,
          "velocity": 49,
          "start": 389.0,
          "duration": "0.5"
        },
        {
          "pitch": 36,
          "velocity": 80,
          "start": 389.5,
          "duration": "0.5"
        },
        {
          "pitch": 44,
          "velocity": 49,
          "start": 390.0,
          "duration": "0.5"
        },
        {
          "pitch": 40,
          "velocity": 80,
          "start": 390.0,
          "duration": "0.5"
        },
        {
          "pitch": 36,
          "velocity": 80,
          "start": 390.0,
          "duration": "0.5"
        },
        {
          "pitch": 44,
          "velocity": 49,
          "start": 391.0,
          "duration": "0.5"
        },
        {
          "pitch": 40,
          "velocity": 80,
          "start": 391.5,
          "duration": "0.5"
        },
        {
          "pitch": 44,
          "velocity": 49,
          "start": 392.0,
          "duration": "0.5"
        },
        {
          "pitch": 36,
          "velocity": 80,
          "start": 392.0,
          "duration": "0.5"
        },
        {
          "pitch": 44,
          "velocity": 49,
          "start": 393.0,
          "duration": "0.5"
        },
        {
          "pitch": 44,
          "velocity": 49,
          "start": 394.0,
          "duration": "0.5"
        },
        {
          "pitch": 40,
          "velocity": 80,
          "start": 394.0,
          "duration": "0.5"
        },
        {
          "pitch": 44,
          "velocity": 49,
          "start": 395.0,
          "duration": "0.5"
        },
        {
          "pitch": 36,
          "velocity": 80,
          "start": 395.5,
          "duration": "0.5"
        },
        {
          "pitch": 44,
          "velocity": 49,
          "start": 396.0,
          "duration": "0.5"
        },
        {
          "pitch": 36,
          "velocity": 80,
          "start": 396.5,
          "duration": "0.5"
        },
        {
          "pitch": 44,
          "velocity": 49,
          "start": 397.0,
          "duration": "0.5"
        },
        {
          "pitch": 36,
          "velocity": 80,
          "start": 397.5,
          "duration": "0.5"
        },
        {
          "pitch": 44,
          "velocity": 49,
          "start": 398.0,
          "duration": "0.5"
        },
        {
          "pitch": 40,
          "velocity": 80,
          "start": 398.0,
          "duration": "0.5"
        },
        {
          "pitch": 36,
          "velocity": 80,
          "start": 398.0,
          "duration": "0.5"
        },
        {
          "pitch": 44,
          "velocity": 49,
          "start": 399.0,
          "duration": "0.5"
        },
        {
          "pitch": 40,
          "velocity": 80,
          "start": 399.5,
          "duration": "0.5"
        },
        {
          "pitch": 36,
          "velocity": 80,
          "start": 400.0,
          "duration": "0.5"
        },
        {
          "pitch": 44,
          "velocity": 49,
          "start": 400.0,
          "duration": "0.5"
        },
        {
          "pitch": 44,
          "velocity": 49,
          "start": 401.0,
          "duration": "0.5"
        },
        {
          "pitch": 40,
          "velocity": 80,
          "start": 402.0,
          "duration": "0.5"
        },
        {
          "pitch": 44,
          "velocity": 49,
          "start": 402.0,
          "duration": "0.5"
        },
        {
          "pitch": 44,
          "velocity": 49,
          "start": 403.0,
          "duration": "0.5"
        },
        {
          "pitch": 36,
          "velocity": 80,
          "start": 403.5,
          "duration": "0.5"
        },
        {
          "pitch": 44,
          "velocity": 49,
          "start": 404.0,
          "duration": "0.5"
        },
        {
          "pitch": 36,
          "velocity": 80,
          "start": 404.5,
          "duration": "0.5"
        },
        {
          "pitch": 44,
          "velocity": 49,
          "start": 405.0,
          "duration": "0.5"
        },
        {
          "pitch": 36,
          "velocity": 80,
          "start": 405.5,
          "duration": "0.5"
        },
        {
          "pitch": 44,
          "velocity": 49,
          "start": 406.0,
          "duration": "0.5"
        },
        {
          "pitch": 40,
          "velocity": 80,
          "start": 406.0,
          "duration": "0.5"
        },
        {
          "pitch": 36,
          "velocity": 80,
          "start": 406.0,
          "duration": "0.5"
        },
        {
          "pitch": 44,
          "velocity": 49,
          "start": 407.0,
          "duration": "0.5"
        },
        {
          "pitch": 40,
          "velocity": 80,
          "start": 407.5,
          "duration": "0.5"
        },
        {
          "pitch": 44,
          "velocity": 49,
          "start": 408.0,
          "duration": "0.5"
        },
        {
          "pitch": 36,
          "velocity": 80,
          "start": 408.0,
          "duration": "0.5"
        },
        {
          "pitch": 44,
          "velocity": 49,
          "start": 409.0,
          "duration": "0.5"
        },
        {
          "pitch": 44,
          "velocity": 49,
          "start": 410.0,
          "duration": "0.5"
        },
        {
          "pitch": 40,
          "velocity": 80,
          "start": 410.0,
          "duration": "0.5"
        },
        {
          "pitch": 44,
          "velocity": 49,
          "start": 411.0,
          "duration": "0.5"
        },
        {
          "pitch": 36,
          "velocity": 80,
          "start": 411.5,
          "duration": "0.5"
        },
        {
          "pitch": 44,
          "velocity": 49,
          "start": 412.0,
          "duration": "0.5"
        },
        {
          "pitch": 36,
          "velocity": 80,
          "start": 412.5,
          "duration": "0.5"
        },
        {
          "pitch": 44,
          "velocity": 49,
          "start": 413.0,
          "duration": "0.5"
        },
        {
          "pitch": 36,
          "velocity": 80,
          "start": 413.5,
          "duration": "0.5"
        },
        {
          "pitch": 44,
          "velocity": 49,
          "start": 414.0,
          "duration": "0.5"
        },
        {
          "pitch": 40,
          "velocity": 80,
          "start": 414.0,
          "duration": "0.5"
        },
        {
          "pitch": 36,
          "velocity": 80,
          "start": 414.0,
          "duration": "0.5"
        },
        {
          "pitch": 44,
          "velocity": 49,
          "start": 415.0,
          "duration": "0.5"
        },
        {
          "pitch": 40,
          "velocity": 80,
          "start": 415.5,
          "duration": "0.5"
        },
        {
          "pitch": 44,
          "velocity": 49,
          "start": 416.0,
          "duration": "0.5"
        },
        {
          "pitch": 36,
          "velocity": 80,
          "start": 416.0,
          "duration": "0.5"
        },
        {
          "pitch": 44,
          "velocity": 49,
          "start": 417.0,
          "duration": "0.5"
        },
        {
          "pitch": 44,
          "velocity": 49,
          "start": 418.0,
          "duration": "0.5"
        },
        {
          "pitch": 40,
          "velocity": 80,
          "start": 418.0,
          "duration": "0.5"
        },
        {
          "pitch": 44,
          "velocity": 49,
          "start": 419.0,
          "duration": "0.5"
        },
        {
          "pitch": 36,
          "velocity": 80,
          "start": 419.5,
          "duration": "0.5"
        },
        {
          "pitch": 44,
          "velocity": 49,
          "start": 420.0,
          "duration": "0.5"
        },
        {
          "pitch": 36,
          "velocity": 80,
          "start": 420.5,
          "duration": "0.5"
        },
        {
          "pitch": 44,
          "velocity": 49,
          "start": 421.0,
          "duration": "0.5"
        },
        {
          "pitch": 36,
          "velocity": 80,
          "start": 421.5,
          "duration": "0.5"
        },
        {
          "pitch": 44,
          "velocity": 49,
          "start": 422.0,
          "duration": "0.5"
        },
        {
          "pitch": 40,
          "velocity": 80,
          "start": 422.0,
          "duration": "0.5"
        },
        {
          "pitch": 36,
          "velocity": 80,
          "start": 422.0,
          "duration": "0.5"
        },
        {
          "pitch": 44,
          "velocity": 49,
          "start": 423.0,
          "duration": "0.5"
        },
        {
          "pitch": 40,
          "velocity": 80,
          "start": 423.5,
          "duration": "0.5"
        },
        {
          "pitch": 44,
          "velocity": 49,
          "start": 424.0,
          "duration": "0.5"
        },
        {
          "pitch": 36,
          "velocity": 80,
          "start": 424.0,
          "duration": "0.5"
        },
        {
          "pitch": 44,
          "velocity": 49,
          "start": 425.0,
          "duration": "0.5"
        },
        {
          "pitch": 44,
          "velocity": 49,
          "start": 426.0,
          "duration": "0.5"
        },
        {
          "pitch": 40,
          "velocity": 80,
          "start": 426.0,
          "duration": "0.5"
        },
        {
          "pitch": 44,
          "velocity": 49,
          "start": 427.0,
          "duration": "0.5"
        },
        {
          "pitch": 36,
          "velocity": 80,
          "start": 427.5,
          "duration": "0.5"
        },
        {
          "pitch": 44,
          "velocity": 49,
          "start": 428.0,
          "duration": "0.5"
        },
        {
          "pitch": 36,
          "velocity": 80,
          "start": 428.5,
          "duration": "0.5"
        },
        {
          "pitch": 44,
          "velocity": 49,
          "start": 429.0,
          "duration": "0.5"
        },
        {
          "pitch": 36,
          "velocity": 80,
          "start": 429.5,
          "duration": "0.5"
        },
        {
          "pitch": 44,
          "velocity": 49,
          "start": 430.0,
          "duration": "0.5"
        },
        {
          "pitch": 40,
          "velocity": 80,
          "start": 430.0,
          "duration": "0.5"
        },
        {
          "pitch": 36,
          "velocity": 80,
          "start": 430.0,
          "duration": "0.5"
        },
        {
          "pitch": 44,
          "velocity": 49,
          "start": 431.0,
          "duration": "0.5"
        },
        {
          "pitch": 40,
          "velocity": 80,
          "start": 431.5,
          "duration": "0.5"
        },
        {
          "pitch": 57,
          "velocity": 82,
          "start": 444.5,
          "duration": "0.5"
        },
        {
          "pitch": 49,
          "velocity": 81,
          "start": 445.5,
          "duration": "0.5"
        },
        {
          "pitch": 57,
          "velocity": 82,
          "start": 446.5,
          "duration": "1.0"
        },
        {
          "pitch": 36,
          "velocity": 82,
          "start": 448.0,
          "duration": "0.5"
        },
        {
          "pitch": 46,
          "velocity": 49,
          "start": 448.0,
          "duration": "0.5"
        },
        {
          "pitch": 57,
          "velocity": 82,
          "start": 448.0,
          "duration": "0.5"
        },
        {
          "pitch": 46,
          "velocity": 49,
          "start": 449.0,
          "duration": "0.5"
        },
        {
          "pitch": 40,
          "velocity": 82,
          "start": 449.0,
          "duration": "0.5"
        },
        {
          "pitch": 36,
          "velocity": 82,
          "start": 450.0,
          "duration": "0.5"
        },
        {
          "pitch": 46,
          "velocity": 49,
          "start": 450.0,
          "duration": "0.5"
        },
        {
          "pitch": 40,
          "velocity": 81,
          "start": 451.0,
          "duration": "0.5"
        },
        {
          "pitch": 46,
          "velocity": 49,
          "start": 451.0,
          "duration": "0.5"
        },
        {
          "pitch": 36,
          "velocity": 81,
          "start": 451.5,
          "duration": "0.5"
        },
        {
          "pitch": 46,
          "velocity": 49,
          "start": 452.0,
          "duration": "0.5"
        },
        {
          "pitch": 36,
          "velocity": 81,
          "start": 452.5,
          "duration": "0.5"
        },
        {
          "pitch": 46,
          "velocity": 49,
          "start": 453.0,
          "duration": "0.5"
        },
        {
          "pitch": 40,
          "velocity": 81,
          "start": 453.0,
          "duration": "0.5"
        },
        {
          "pitch": 36,
          "velocity": 80,
          "start": 453.5,
          "duration": "0.5"
        },
        {
          "pitch": 36,
          "velocity": 80,
          "start": 454.0,
          "duration": "0.5"
        },
        {
          "pitch": 46,
          "velocity": 49,
          "start": 454.0,
          "duration": "0.5"
        },
        {
          "pitch": 46,
          "velocity": 49,
          "start": 455.0,
          "duration": "0.5"
        },
        {
          "pitch": 36,
          "velocity": 80,
          "start": 455.0,
          "duration": "0.5"
        },
        {
          "pitch": 40,
          "velocity": 80,
          "start": 455.0,
          "duration": "0.5"
        },
        {
          "pitch": 36,
          "velocity": 82,
          "start": 456.0,
          "duration": "0.5"
        },
        {
          "pitch": 46,
          "velocity": 49,
          "start": 456.0,
          "duration": "0.5"
        },
        {
          "pitch": 46,
          "velocity": 49,
          "start": 457.0,
          "duration": "0.5"
        },
        {
          "pitch": 40,
          "velocity": 82,
          "start": 457.0,
          "duration": "0.5"
        },
        {
          "pitch": 36,
          "velocity": 82,
          "start": 458.0,
          "duration": "0.5"
        },
        {
          "pitch": 46,
          "velocity": 49,
          "start": 458.0,
          "duration": "0.5"
        },
        {
          "pitch": 46,
          "velocity": 49,
          "start": 459.0,
          "duration": "0.5"
        },
        {
          "pitch": 40,
          "velocity": 81,
          "start": 459.0,
          "duration": "0.5"
        },
        {
          "pitch": 36,
          "velocity": 81,
          "start": 459.5,
          "duration": "0.5"
        },
        {
          "pitch": 46,
          "velocity": 49,
          "start": 460.0,
          "duration": "0.5"
        },
        {
          "pitch": 36,
          "velocity": 81,
          "start": 460.5,
          "duration": "0.5"
        },
        {
          "pitch": 40,
          "velocity": 81,
          "start": 461.0,
          "duration": "0.5"
        },
        {
          "pitch": 46,
          "velocity": 49,
          "start": 461.0,
          "duration": "0.5"
        },
        {
          "pitch": 36,
          "velocity": 80,
          "start": 461.5,
          "duration": "0.5"
        },
        {
          "pitch": 36,
          "velocity": 80,
          "start": 462.0,
          "duration": "0.5"
        },
        {
          "pitch": 46,
          "velocity": 49,
          "start": 462.0,
          "duration": "0.5"
        },
        {
          "pitch": 40,
          "velocity": 80,
          "start": 463.0,
          "duration": "0.5"
        },
        {
          "pitch": 36,
          "velocity": 80,
          "start": 463.0,
          "duration": "0.5"
        },
        {
          "pitch": 46,
          "velocity": 49,
          "start": 463.0,
          "duration": "0.5"
        },
        {
          "pitch": 36,
          "velocity": 82,
          "start": 464.0,
          "duration": "0.5"
        },
        {
          "pitch": 46,
          "velocity": 49,
          "start": 464.0,
          "duration": "0.5"
        },
        {
          "pitch": 46,
          "velocity": 49,
          "start": 465.0,
          "duration": "0.5"
        },
        {
          "pitch": 40,
          "velocity": 82,
          "start": 465.0,
          "duration": "0.5"
        },
        {
          "pitch": 36,
          "velocity": 82,
          "start": 466.0,
          "duration": "0.5"
        },
        {
          "pitch": 46,
          "velocity": 49,
          "start": 466.0,
          "duration": "0.5"
        },
        {
          "pitch": 40,
          "velocity": 81,
          "start": 467.0,
          "duration": "0.5"
        },
        {
          "pitch": 46,
          "velocity": 49,
          "start": 467.0,
          "duration": "0.5"
        },
        {
          "pitch": 36,
          "velocity": 81,
          "start": 467.5,
          "duration": "0.5"
        },
        {
          "pitch": 46,
          "velocity": 49,
          "start": 468.0,
          "duration": "0.5"
        },
        {
          "pitch": 36,
          "velocity": 81,
          "start": 468.5,
          "duration": "0.5"
        },
        {
          "pitch": 46,
          "velocity": 49,
          "start": 469.0,
          "duration": "0.5"
        },
        {
          "pitch": 40,
          "velocity": 81,
          "start": 469.0,
          "duration": "0.5"
        },
        {
          "pitch": 36,
          "velocity": 80,
          "start": 469.5,
          "duration": "0.5"
        },
        {
          "pitch": 36,
          "velocity": 80,
          "start": 470.0,
          "duration": "0.5"
        },
        {
          "pitch": 46,
          "velocity": 49,
          "start": 470.0,
          "duration": "0.5"
        },
        {
          "pitch": 46,
          "velocity": 49,
          "start": 471.0,
          "duration": "0.5"
        },
        {
          "pitch": 36,
          "velocity": 80,
          "start": 471.0,
          "duration": "0.5"
        },
        {
          "pitch": 40,
          "velocity": 80,
          "start": 471.0,
          "duration": "0.5"
        },
        {
          "pitch": 36,
          "velocity": 82,
          "start": 472.0,
          "duration": "0.5"
        },
        {
          "pitch": 46,
          "velocity": 49,
          "start": 472.0,
          "duration": "0.5"
        },
        {
          "pitch": 46,
          "velocity": 49,
          "start": 473.0,
          "duration": "0.5"
        },
        {
          "pitch": 40,
          "velocity": 82,
          "start": 473.0,
          "duration": "0.5"
        },
        {
          "pitch": 36,
          "velocity": 82,
          "start": 474.0,
          "duration": "0.5"
        },
        {
          "pitch": 46,
          "velocity": 49,
          "start": 474.0,
          "duration": "0.5"
        },
        {
          "pitch": 40,
          "velocity": 81,
          "start": 474.5,
          "duration": "0.5"
        },
        {
          "pitch": 46,
          "velocity": 49,
          "start": 475.0,
          "duration": "0.5"
        },
        {
          "pitch": 40,
          "velocity": 81,
          "start": 475.5,
          "duration": "0.5"
        },
        {
          "pitch": 36,
          "velocity": 81,
          "start": 475.5,
          "duration": "0.5"
        },
        {
          "pitch": 46,
          "velocity": 49,
          "start": 476.0,
          "duration": "0.5"
        },
        {
          "pitch": 36,
          "velocity": 81,
          "start": 476.5,
          "duration": "0.5"
        },
        {
          "pitch": 57,
          "velocity": 82,
          "start": 476.5,
          "duration": "0.5"
        },
        {
          "pitch": 40,
          "velocity": 81,
          "start": 477.0,
          "duration": "0.5"
        },
        {
          "pitch": 46,
          "velocity": 49,
          "start": 477.0,
          "duration": "0.5"
        },
        {
          "pitch": 36,
          "velocity": 80,
          "start": 477.5,
          "duration": "0.5"
        },
        {
          "pitch": 49,
          "velocity": 81,
          "start": 477.5,
          "duration": "0.5"
        },
        {
          "pitch": 40,
          "velocity": 81,
          "start": 478.0,
          "duration": "0.5"
        },
        {
          "pitch": 36,
          "velocity": 80,
          "start": 478.0,
          "duration": "0.5"
        },
        {
          "pitch": 46,
          "velocity": 49,
          "start": 478.0,
          "duration": "0.5"
        },
        {
          "pitch": 57,
          "velocity": 82,
          "start": 478.5,
          "duration": "1.0"
        },
        {
          "pitch": 40,
          "velocity": 80,
          "start": 479.0,
          "duration": "0.5"
        },
        {
          "pitch": 36,
          "velocity": 80,
          "start": 479.0,
          "duration": "0.5"
        },
        {
          "pitch": 46,
          "velocity": 49,
          "start": 479.0,
          "duration": "0.5"
        },
        {
          "pitch": 57,
          "velocity": 82,
          "start": 480.0,
          "duration": "0.5"
        },
        {
          "pitch": 36,
          "velocity": 82,
          "start": 480.0,
          "duration": "0.5"
        },
        {
          "pitch": 46,
          "velocity": 49,
          "start": 480.0,
          "duration": "0.5"
        },
        {
          "pitch": 46,
          "velocity": 49,
          "start": 481.0,
          "duration": "0.5"
        },
        {
          "pitch": 40,
          "velocity": 82,
          "start": 481.0,
          "duration": "0.5"
        },
        {
          "pitch": 36,
          "velocity": 82,
          "start": 482.0,
          "duration": "0.5"
        },
        {
          "pitch": 46,
          "velocity": 49,
          "start": 482.0,
          "duration": "0.5"
        },
        {
          "pitch": 40,
          "velocity": 81,
          "start": 483.0,
          "duration": "0.5"
        },
        {
          "pitch": 46,
          "velocity": 49,
          "start": 483.0,
          "duration": "0.5"
        },
        {
          "pitch": 36,
          "velocity": 81,
          "start": 483.5,
          "duration": "0.5"
        },
        {
          "pitch": 46,
          "velocity": 49,
          "start": 484.0,
          "duration": "0.5"
        },
        {
          "pitch": 36,
          "velocity": 81,
          "start": 484.5,
          "duration": "0.5"
        },
        {
          "pitch": 46,
          "velocity": 49,
          "start": 485.0,
          "duration": "0.5"
        },
        {
          "pitch": 40,
          "velocity": 81,
          "start": 485.0,
          "duration": "0.5"
        },
        {
          "pitch": 36,
          "velocity": 80,
          "start": 485.5,
          "duration": "0.5"
        },
        {
          "pitch": 36,
          "velocity": 80,
          "start": 486.0,
          "duration": "0.5"
        },
        {
          "pitch": 46,
          "velocity": 49,
          "start": 486.0,
          "duration": "0.5"
        },
        {
          "pitch": 46,
          "velocity": 49,
          "start": 487.0,
          "duration": "0.5"
        },
        {
          "pitch": 36,
          "velocity": 80,
          "start": 487.0,
          "duration": "0.5"
        },
        {
          "pitch": 40,
          "velocity": 80,
          "start": 487.0,
          "duration": "0.5"
        },
        {
          "pitch": 36,
          "velocity": 82,
          "start": 488.0,
          "duration": "0.5"
        },
        {
          "pitch": 46,
          "velocity": 49,
          "start": 488.0,
          "duration": "0.5"
        },
        {
          "pitch": 46,
          "velocity": 49,
          "start": 489.0,
          "duration": "0.5"
        },
        {
          "pitch": 40,
          "velocity": 82,
          "start": 489.0,
          "duration": "0.5"
        },
        {
          "pitch": 36,
          "velocity": 82,
          "start": 490.0,
          "duration": "0.5"
        },
        {
          "pitch": 46,
          "velocity": 49,
          "start": 490.0,
          "duration": "0.5"
        },
        {
          "pitch": 46,
          "velocity": 49,
          "start": 491.0,
          "duration": "0.5"
        },
        {
          "pitch": 40,
          "velocity": 81,
          "start": 491.0,
          "duration": "0.5"
        },
        {
          "pitch": 36,
          "velocity": 81,
          "start": 491.5,
          "duration": "0.5"
        },
        {
          "pitch": 46,
          "velocity": 49,
          "start": 492.0,
          "duration": "0.5"
        },
        {
          "pitch": 36,
          "velocity": 81,
          "start": 492.5,
          "duration": "0.5"
        },
        {
          "pitch": 40,
          "velocity": 81,
          "start": 493.0,
          "duration": "0.5"
        },
        {
          "pitch": 46,
          "velocity": 49,
          "start": 493.0,
          "duration": "0.5"
        },
        {
          "pitch": 36,
          "velocity": 80,
          "start": 493.5,
          "duration": "0.5"
        },
        {
          "pitch": 36,
          "velocity": 80,
          "start": 494.0,
          "duration": "0.5"
        },
        {
          "pitch": 46,
          "velocity": 49,
          "start": 494.0,
          "duration": "0.5"
        },
        {
          "pitch": 40,
          "velocity": 80,
          "start": 495.0,
          "duration": "0.5"
        },
        {
          "pitch": 36,
          "velocity": 80,
          "start": 495.0,
          "duration": "0.5"
        },
        {
          "pitch": 46,
          "velocity": 49,
          "start": 495.0,
          "duration": "0.5"
        },
        {
          "pitch": 36,
          "velocity": 82,
          "start": 496.0,
          "duration": "0.5"
        },
        {
          "pitch": 46,
          "velocity": 49,
          "start": 496.0,
          "duration": "0.5"
        },
        {
          "pitch": 46,
          "velocity": 49,
          "start": 497.0,
          "duration": "0.5"
        },
        {
          "pitch": 40,
          "velocity": 82,
          "start": 497.0,
          "duration": "0.5"
        },
        {
          "pitch": 36,
          "velocity": 82,
          "start": 498.0,
          "duration": "0.5"
        },
        {
          "pitch": 46,
          "velocity": 49,
          "start": 498.0,
          "duration": "0.5"
        },
        {
          "pitch": 40,
          "velocity": 81,
          "start": 499.0,
          "duration": "0.5"
        },
        {
          "pitch": 46,
          "velocity": 49,
          "start": 499.0,
          "duration": "0.5"
        },
        {
          "pitch": 36,
          "velocity": 81,
          "start": 499.5,
          "duration": "0.5"
        },
        {
          "pitch": 46,
          "velocity": 49,
          "start": 500.0,
          "duration": "0.5"
        },
        {
          "pitch": 36,
          "velocity": 81,
          "start": 500.5,
          "duration": "0.5"
        },
        {
          "pitch": 46,
          "velocity": 49,
          "start": 501.0,
          "duration": "0.5"
        },
        {
          "pitch": 40,
          "velocity": 81,
          "start": 501.0,
          "duration": "0.5"
        },
        {
          "pitch": 36,
          "velocity": 80,
          "start": 501.5,
          "duration": "0.5"
        },
        {
          "pitch": 36,
          "velocity": 80,
          "start": 502.0,
          "duration": "0.5"
        },
        {
          "pitch": 46,
          "velocity": 49,
          "start": 502.0,
          "duration": "0.5"
        },
        {
          "pitch": 46,
          "velocity": 49,
          "start": 503.0,
          "duration": "0.5"
        },
        {
          "pitch": 36,
          "velocity": 80,
          "start": 503.0,
          "duration": "0.5"
        },
        {
          "pitch": 40,
          "velocity": 80,
          "start": 503.0,
          "duration": "0.5"
        },
        {
          "pitch": 36,
          "velocity": 82,
          "start": 504.0,
          "duration": "0.5"
        },
        {
          "pitch": 46,
          "velocity": 49,
          "start": 504.0,
          "duration": "0.5"
        },
        {
          "pitch": 46,
          "velocity": 49,
          "start": 505.0,
          "duration": "0.5"
        },
        {
          "pitch": 40,
          "velocity": 82,
          "start": 505.0,
          "duration": "0.5"
        },
        {
          "pitch": 36,
          "velocity": 82,
          "start": 506.0,
          "duration": "0.5"
        },
        {
          "pitch": 46,
          "velocity": 49,
          "start": 506.0,
          "duration": "0.5"
        },
        {
          "pitch": 40,
          "velocity": 81,
          "start": 506.5,
          "duration": "0.5"
        },
        {
          "pitch": 46,
          "velocity": 49,
          "start": 507.0,
          "duration": "0.5"
        },
        {
          "pitch": 40,
          "velocity": 81,
          "start": 507.5,
          "duration": "0.5"
        },
        {
          "pitch": 36,
          "velocity": 81,
          "start": 507.5,
          "duration": "0.5"
        },
        {
          "pitch": 46,
          "velocity": 49,
          "start": 508.0,
          "duration": "0.5"
        },
        {
          "pitch": 36,
          "velocity": 81,
          "start": 508.5,
          "duration": "0.5"
        },
        {
          "pitch": 57,
          "velocity": 82,
          "start": 508.5,
          "duration": "0.5"
        },
        {
          "pitch": 40,
          "velocity": 81,
          "start": 509.0,
          "duration": "0.5"
        },
        {
          "pitch": 46,
          "velocity": 49,
          "start": 509.0,
          "duration": "0.5"
        },
        {
          "pitch": 40,
          "velocity": 81,
          "start": 509.5,
          "duration": "0.5"
        },
        {
          "pitch": 36,
          "velocity": 80,
          "start": 509.5,
          "duration": "0.5"
        },
        {
          "pitch": 49,
          "velocity": 81,
          "start": 509.5,
          "duration": "0.5"
        },
        {
          "pitch": 36,
          "velocity": 80,
          "start": 510.0,
          "duration": "0.5"
        },
        {
          "pitch": 46,
          "velocity": 49,
          "start": 510.0,
          "duration": "0.5"
        },
        {
          "pitch": 40,
          "velocity": 80,
          "start": 510.5,
          "duration": "0.5"
        },
        {
          "pitch": 40,
          "velocity": 80,
          "start": 511.0,
          "duration": "0.5"
        },
        {
          "pitch": 57,
          "velocity": 82,
          "start": 510.5,
          "duration": "1.0"
        },
        {
          "pitch": 36,
          "velocity": 80,
          "start": 511.0,
          "duration": "0.5"
        },
        {
          "pitch": 46,
          "velocity": 49,
          "start": 511.0,
          "duration": "0.5"
        },
        {
          "pitch": 36,
          "velocity": 82,
          "start": 512.0,
          "duration": "0.5"
        },
        {
          "pitch": 46,
          "velocity": 49,
          "start": 512.0,
          "duration": "0.5"
        },
        {
          "pitch": 57,
          "velocity": 82,
          "start": 512.0,
          "duration": "0.5"
        },
        {
          "pitch": 40,
          "velocity": 82,
          "start": 513.0,
          "duration": "0.5"
        },
        {
          "pitch": 46,
          "velocity": 49,
          "start": 513.0,
          "duration": "0.5"
        },
        {
          "pitch": 36,
          "velocity": 82,
          "start": 514.0,
          "duration": "0.5"
        },
        {
          "pitch": 46,
          "velocity": 49,
          "start": 514.0,
          "duration": "0.5"
        },
        {
          "pitch": 46,
          "velocity": 49,
          "start": 515.0,
          "duration": "0.5"
        },
        {
          "pitch": 40,
          "velocity": 81,
          "start": 515.0,
          "duration": "0.5"
        },
        {
          "pitch": 36,
          "velocity": 81,
          "start": 515.5,
          "duration": "0.5"
        },
        {
          "pitch": 46,
          "velocity": 49,
          "start": 516.0,
          "duration": "0.5"
        },
        {
          "pitch": 36,
          "velocity": 81,
          "start": 516.5,
          "duration": "0.5"
        },
        {
          "pitch": 40,
          "velocity": 81,
          "start": 517.0,
          "duration": "0.5"
        },
        {
          "pitch": 46,
          "velocity": 49,
          "start": 517.0,
          "duration": "0.5"
        },
        {
          "pitch": 36,
          "velocity": 80,
          "start": 517.5,
          "duration": "0.5"
        },
        {
          "pitch": 36,
          "velocity": 80,
          "start": 518.0,
          "duration": "0.5"
        },
        {
          "pitch": 46,
          "velocity": 49,
          "start": 518.0,
          "duration": "0.5"
        },
        {
          "pitch": 40,
          "velocity": 80,
          "start": 519.0,
          "duration": "0.5"
        },
        {
          "pitch": 36,
          "velocity": 80,
          "start": 519.0,
          "duration": "0.5"
        },
        {
          "pitch": 46,
          "velocity": 49,
          "start": 519.0,
          "duration": "0.5"
        },
        {
          "pitch": 36,
          "velocity": 82,
          "start": 520.0,
          "duration": "0.5"
        },
        {
          "pitch": 46,
          "velocity": 49,
          "start": 520.0,
          "duration": "0.5"
        },
        {
          "pitch": 40,
          "velocity": 82,
          "start": 521.0,
          "duration": "0.5"
        },
        {
          "pitch": 46,
          "velocity": 49,
          "start": 521.0,
          "duration": "0.5"
        },
        {
          "pitch": 36,
          "velocity": 82,
          "start": 522.0,
          "duration": "0.5"
        },
        {
          "pitch": 46,
          "velocity": 49,
          "start": 522.0,
          "duration": "0.5"
        },
        {
          "pitch": 40,
          "velocity": 81,
          "start": 523.0,
          "duration": "0.5"
        },
        {
          "pitch": 46,
          "velocity": 49,
          "start": 523.0,
          "duration": "0.5"
        },
        {
          "pitch": 36,
          "velocity": 81,
          "start": 523.5,
          "duration": "0.5"
        },
        {
          "pitch": 46,
          "velocity": 49,
          "start": 524.0,
          "duration": "0.5"
        },
        {
          "pitch": 36,
          "velocity": 81,
          "start": 524.5,
          "duration": "0.5"
        },
        {
          "pitch": 46,
          "velocity": 49,
          "start": 525.0,
          "duration": "0.5"
        },
        {
          "pitch": 40,
          "velocity": 81,
          "start": 525.0,
          "duration": "0.5"
        },
        {
          "pitch": 36,
          "velocity": 80,
          "start": 525.5,
          "duration": "0.5"
        },
        {
          "pitch": 36,
          "velocity": 80,
          "start": 526.0,
          "duration": "0.5"
        },
        {
          "pitch": 46,
          "velocity": 49,
          "start": 526.0,
          "duration": "0.5"
        },
        {
          "pitch": 46,
          "velocity": 49,
          "start": 527.0,
          "duration": "0.5"
        },
        {
          "pitch": 36,
          "velocity": 80,
          "start": 527.0,
          "duration": "0.5"
        },
        {
          "pitch": 40,
          "velocity": 80,
          "start": 527.0,
          "duration": "0.5"
        },
        {
          "pitch": 36,
          "velocity": 82,
          "start": 528.0,
          "duration": "0.5"
        },
        {
          "pitch": 46,
          "velocity": 49,
          "start": 528.0,
          "duration": "0.5"
        },
        {
          "pitch": 40,
          "velocity": 82,
          "start": 529.0,
          "duration": "0.5"
        },
        {
          "pitch": 46,
          "velocity": 49,
          "start": 529.0,
          "duration": "0.5"
        },
        {
          "pitch": 36,
          "velocity": 82,
          "start": 530.0,
          "duration": "0.5"
        },
        {
          "pitch": 46,
          "velocity": 49,
          "start": 530.0,
          "duration": "0.5"
        },
        {
          "pitch": 46,
          "velocity": 49,
          "start": 531.0,
          "duration": "0.5"
        },
        {
          "pitch": 40,
          "velocity": 81,
          "start": 531.0,
          "duration": "0.5"
        },
        {
          "pitch": 36,
          "velocity": 81,
          "start": 531.5,
          "duration": "0.5"
        },
        {
          "pitch": 46,
          "velocity": 49,
          "start": 532.0,
          "duration": "0.5"
        },
        {
          "pitch": 36,
          "velocity": 81,
          "start": 532.5,
          "duration": "0.5"
        },
        {
          "pitch": 40,
          "velocity": 81,
          "start": 533.0,
          "duration": "0.5"
        },
        {
          "pitch": 46,
          "velocity": 49,
          "start": 533.0,
          "duration": "0.5"
        },
        {
          "pitch": 36,
          "velocity": 80,
          "start": 533.5,
          "duration": "0.5"
        },
        {
          "pitch": 36,
          "velocity": 80,
          "start": 534.0,
          "duration": "0.5"
        },
        {
          "pitch": 46,
          "velocity": 49,
          "start": 534.0,
          "duration": "0.5"
        },
        {
          "pitch": 40,
          "velocity": 80,
          "start": 535.0,
          "duration": "0.5"
        },
        {
          "pitch": 36,
          "velocity": 80,
          "start": 535.0,
          "duration": "0.5"
        },
        {
          "pitch": 46,
          "velocity": 49,
          "start": 535.0,
          "duration": "0.5"
        },
        {
          "pitch": 36,
          "velocity": 82,
          "start": 536.0,
          "duration": "0.5"
        },
        {
          "pitch": 46,
          "velocity": 49,
          "start": 536.0,
          "duration": "0.5"
        },
        {
          "pitch": 40,
          "velocity": 82,
          "start": 537.0,
          "duration": "0.5"
        },
        {
          "pitch": 46,
          "velocity": 49,
          "start": 537.0,
          "duration": "0.5"
        },
        {
          "pitch": 36,
          "velocity": 82,
          "start": 538.0,
          "duration": "0.5"
        },
        {
          "pitch": 46,
          "velocity": 49,
          "start": 538.0,
          "duration": "0.5"
        },
        {
          "pitch": 40,
          "velocity": 81,
          "start": 538.5,
          "duration": "0.5"
        },
        {
          "pitch": 46,
          "velocity": 49,
          "start": 539.0,
          "duration": "0.5"
        },
        {
          "pitch": 40,
          "velocity": 81,
          "start": 539.5,
          "duration": "0.5"
        },
        {
          "pitch": 36,
          "velocity": 81,
          "start": 539.5,
          "duration": "0.5"
        },
        {
          "pitch": 46,
          "velocity": 49,
          "start": 540.0,
          "duration": "0.5"
        },
        {
          "pitch": 57,
          "velocity": 82,
          "start": 540.5,
          "duration": "0.5"
        },
        {
          "pitch": 36,
          "velocity": 81,
          "start": 540.5,
          "duration": "0.5"
        },
        {
          "pitch": 46,
          "velocity": 49,
          "start": 541.0,
          "duration": "0.5"
        },
        {
          "pitch": 40,
          "velocity": 81,
          "start": 541.0,
          "duration": "0.5"
        },
        {
          "pitch": 36,
          "velocity": 80,
          "start": 541.5,
          "duration": "0.5"
        },
        {
          "pitch": 49,
          "velocity": 81,
          "start": 541.5,
          "duration": "0.5"
        },
        {
          "pitch": 40,
          "velocity": 81,
          "start": 542.0,
          "duration": "0.5"
        },
        {
          "pitch": 36,
          "velocity": 80,
          "start": 542.0,
          "duration": "0.5"
        },
        {
          "pitch": 46,
          "velocity": 49,
          "start": 542.0,
          "duration": "0.5"
        },
        {
          "pitch": 57,
          "velocity": 82,
          "start": 542.5,
          "duration": "1.0"
        },
        {
          "pitch": 46,
          "velocity": 49,
          "start": 543.0,
          "duration": "0.5"
        },
        {
          "pitch": 36,
          "velocity": 80,
          "start": 543.0,
          "duration": "0.5"
        },
        {
          "pitch": 40,
          "velocity": 80,
          "start": 543.0,
          "duration": "0.5"
        },
        {
          "pitch": 57,
          "velocity": 82,
          "start": 544.0,
          "duration": "0.5"
        },
        {
          "pitch": 36,
          "velocity": 82,
          "start": 544.0,
          "duration": "0.5"
        },
        {
          "pitch": 46,
          "velocity": 49,
          "start": 544.0,
          "duration": "0.5"
        },
        {
          "pitch": 40,
          "velocity": 82,
          "start": 545.0,
          "duration": "0.5"
        },
        {
          "pitch": 46,
          "velocity": 49,
          "start": 545.0,
          "duration": "0.5"
        },
        {
          "pitch": 36,
          "velocity": 82,
          "start": 546.0,
          "duration": "0.5"
        },
        {
          "pitch": 46,
          "velocity": 49,
          "start": 546.0,
          "duration": "0.5"
        },
        {
          "pitch": 46,
          "velocity": 49,
          "start": 547.0,
          "duration": "0.5"
        },
        {
          "pitch": 40,
          "velocity": 81,
          "start": 547.0,
          "duration": "0.5"
        },
        {
          "pitch": 36,
          "velocity": 81,
          "start": 547.5,
          "duration": "0.5"
        },
        {
          "pitch": 46,
          "velocity": 49,
          "start": 548.0,
          "duration": "0.5"
        },
        {
          "pitch": 36,
          "velocity": 81,
          "start": 548.5,
          "duration": "0.5"
        },
        {
          "pitch": 40,
          "velocity": 81,
          "start": 549.0,
          "duration": "0.5"
        },
        {
          "pitch": 46,
          "velocity": 49,
          "start": 549.0,
          "duration": "0.5"
        },
        {
          "pitch": 36,
          "velocity": 80,
          "start": 549.5,
          "duration": "0.5"
        },
        {
          "pitch": 36,
          "velocity": 80,
          "start": 550.0,
          "duration": "0.5"
        },
        {
          "pitch": 46,
          "velocity": 49,
          "start": 550.0,
          "duration": "0.5"
        },
        {
          "pitch": 40,
          "velocity": 80,
          "start": 551.0,
          "duration": "0.5"
        },
        {
          "pitch": 36,
          "velocity": 80,
          "start": 551.0,
          "duration": "0.5"
        },
        {
          "pitch": 46,
          "velocity": 49,
          "start": 551.0,
          "duration": "0.5"
        },
        {
          "pitch": 36,
          "velocity": 82,
          "start": 552.0,
          "duration": "0.5"
        },
        {
          "pitch": 46,
          "velocity": 49,
          "start": 552.0,
          "duration": "0.5"
        },
        {
          "pitch": 40,
          "velocity": 82,
          "start": 553.0,
          "duration": "0.5"
        },
        {
          "pitch": 46,
          "velocity": 49,
          "start": 553.0,
          "duration": "0.5"
        },
        {
          "pitch": 36,
          "velocity": 82,
          "start": 554.0,
          "duration": "0.5"
        },
        {
          "pitch": 46,
          "velocity": 49,
          "start": 554.0,
          "duration": "0.5"
        },
        {
          "pitch": 40,
          "velocity": 81,
          "start": 555.0,
          "duration": "0.5"
        },
        {
          "pitch": 46,
          "velocity": 49,
          "start": 555.0,
          "duration": "0.5"
        },
        {
          "pitch": 36,
          "velocity": 81,
          "start": 555.5,
          "duration": "0.5"
        },
        {
          "pitch": 46,
          "velocity": 49,
          "start": 556.0,
          "duration": "0.5"
        },
        {
          "pitch": 36,
          "velocity": 81,
          "start": 556.5,
          "duration": "0.5"
        },
        {
          "pitch": 46,
          "velocity": 49,
          "start": 557.0,
          "duration": "0.5"
        },
        {
          "pitch": 40,
          "velocity": 81,
          "start": 557.0,
          "duration": "0.5"
        },
        {
          "pitch": 36,
          "velocity": 80,
          "start": 557.5,
          "duration": "0.5"
        },
        {
          "pitch": 36,
          "velocity": 80,
          "start": 558.0,
          "duration": "0.5"
        },
        {
          "pitch": 46,
          "velocity": 49,
          "start": 558.0,
          "duration": "0.5"
        },
        {
          "pitch": 46,
          "velocity": 49,
          "start": 559.0,
          "duration": "0.5"
        },
        {
          "pitch": 36,
          "velocity": 80,
          "start": 559.0,
          "duration": "0.5"
        },
        {
          "pitch": 40,
          "velocity": 80,
          "start": 559.0,
          "duration": "0.5"
        },
        {
          "pitch": 36,
          "velocity": 82,
          "start": 560.0,
          "duration": "0.5"
        },
        {
          "pitch": 46,
          "velocity": 49,
          "start": 560.0,
          "duration": "0.5"
        },
        {
          "pitch": 40,
          "velocity": 82,
          "start": 561.0,
          "duration": "0.5"
        },
        {
          "pitch": 46,
          "velocity": 49,
          "start": 561.0,
          "duration": "0.5"
        },
        {
          "pitch": 36,
          "velocity": 82,
          "start": 562.0,
          "duration": "0.5"
        },
        {
          "pitch": 46,
          "velocity": 49,
          "start": 562.0,
          "duration": "0.5"
        },
        {
          "pitch": 46,
          "velocity": 49,
          "start": 563.0,
          "duration": "0.5"
        },
        {
          "pitch": 40,
          "velocity": 81,
          "start": 563.0,
          "duration": "0.5"
        },
        {
          "pitch": 36,
          "velocity": 81,
          "start": 563.5,
          "duration": "0.5"
        },
        {
          "pitch": 46,
          "velocity": 49,
          "start": 564.0,
          "duration": "0.5"
        },
        {
          "pitch": 36,
          "velocity": 81,
          "start": 564.5,
          "duration": "0.5"
        },
        {
          "pitch": 40,
          "velocity": 81,
          "start": 565.0,
          "duration": "0.5"
        },
        {
          "pitch": 46,
          "velocity": 49,
          "start": 565.0,
          "duration": "0.5"
        },
        {
          "pitch": 36,
          "velocity": 80,
          "start": 565.5,
          "duration": "0.5"
        },
        {
          "pitch": 36,
          "velocity": 80,
          "start": 566.0,
          "duration": "0.5"
        },
        {
          "pitch": 46,
          "velocity": 49,
          "start": 566.0,
          "duration": "0.5"
        },
        {
          "pitch": 40,
          "velocity": 80,
          "start": 567.0,
          "duration": "0.5"
        },
        {
          "pitch": 36,
          "velocity": 80,
          "start": 567.0,
          "duration": "0.5"
        },
        {
          "pitch": 46,
          "velocity": 49,
          "start": 567.0,
          "duration": "0.5"
        },
        {
          "pitch": 36,
          "velocity": 82,
          "start": 568.0,
          "duration": "0.5"
        },
        {
          "pitch": 46,
          "velocity": 49,
          "start": 568.0,
          "duration": "0.5"
        },
        {
          "pitch": 40,
          "velocity": 82,
          "start": 569.0,
          "duration": "0.5"
        },
        {
          "pitch": 46,
          "velocity": 49,
          "start": 569.0,
          "duration": "0.5"
        },
        {
          "pitch": 36,
          "velocity": 82,
          "start": 570.0,
          "duration": "0.5"
        },
        {
          "pitch": 46,
          "velocity": 49,
          "start": 570.0,
          "duration": "0.5"
        },
        {
          "pitch": 40,
          "velocity": 81,
          "start": 570.5,
          "duration": "0.5"
        },
        {
          "pitch": 46,
          "velocity": 49,
          "start": 571.0,
          "duration": "0.5"
        },
        {
          "pitch": 40,
          "velocity": 81,
          "start": 571.5,
          "duration": "0.5"
        },
        {
          "pitch": 36,
          "velocity": 81,
          "start": 571.5,
          "duration": "0.5"
        },
        {
          "pitch": 46,
          "velocity": 49,
          "start": 572.0,
          "duration": "0.5"
        },
        {
          "pitch": 57,
          "velocity": 82,
          "start": 572.5,
          "duration": "0.5"
        },
        {
          "pitch": 36,
          "velocity": 81,
          "start": 572.5,
          "duration": "0.5"
        },
        {
          "pitch": 46,
          "velocity": 49,
          "start": 573.0,
          "duration": "0.5"
        },
        {
          "pitch": 40,
          "velocity": 81,
          "start": 573.0,
          "duration": "0.5"
        },
        {
          "pitch": 40,
          "velocity": 81,
          "start": 573.5,
          "duration": "0.5"
        },
        {
          "pitch": 36,
          "velocity": 80,
          "start": 573.5,
          "duration": "0.5"
        },
        {
          "pitch": 49,
          "velocity": 81,
          "start": 573.5,
          "duration": "0.5"
        },
        {
          "pitch": 36,
          "velocity": 80,
          "start": 574.0,
          "duration": "0.5"
        },
        {
          "pitch": 46,
          "velocity": 49,
          "start": 574.0,
          "duration": "0.5"
        },
        {
          "pitch": 40,
          "velocity": 80,
          "start": 574.5,
          "duration": "0.5"
        },
        {
          "pitch": 57,
          "velocity": 82,
          "start": 574.5,
          "duration": "1.0"
        },
        {
          "pitch": 46,
          "velocity": 49,
          "start": 575.0,
          "duration": "0.5"
        },
        {
          "pitch": 36,
          "velocity": 80,
          "start": 575.0,
          "duration": "0.5"
        },
        {
          "pitch": 40,
          "velocity": 80,
          "start": 575.0,
          "duration": "0.5"
        }
      ]
    }
  ]
}