{
  "bpm": 120,
  "end_beat": 608.0,
  "tracks": [
    
    {
      "instrument": "track_4",
      "channel": 0,
      "notes": [
        {
          "pitch": 50,
          "velocity": 69,
          "start": 32.0,
          "duration": "1.0"
        },
        {
          "pitch": 50,
          "velocity": 80,
          "start": 33.0,
          "duration": "1.0"
        },
        {
          "pitch": 50,
          "velocity": 76,
          "start": 34.0,
          "duration": "0.5"
        },
        {
          "pitch": 50,
          "velocity": 76,
          "start": 34.5,
          "duration": "1.0"
        },
        {
          "pitch": 50,
          "velocity": 75,
          "start": 35.5,
          "duration": "1.0"
        },
        {
          "pitch": 50,
          "velocity": 74,
          "start": 36.5,
          "duration": "1.0"
        },
        {
          "pitch": 50,
          "velocity": 77,
          "start": 37.5,
          "duration": "1.0"
        },
        {
          "pitch": 50,
          "velocity": 76,
          "start": 38.5,
          "duration": "0.5"
        },
        {
          "pitch": 50,
          "velocity": 79,
          "start": 39.0,
          "duration": "1.0"
        },
        {
          "pitch": 48,
          "velocity": 74,
          "start": 40.0,
          "duration": "1.0"
        },
        {
          "pitch": 48,
          "velocity": 76,
          "start": 41.0,
          "duration": "1.0"
        },
        {
          "pitch": 48,
          "velocity": 74,
          "start": 42.0,
          "duration": "0.5"
        },
        {
          "pitch": 48,
          "velocity": 75,
          "start": 42.5,
          "duration": "1.0"
        },
        {
          "pitch": 48,
          "velocity": 74,
          "start": 43.5,
          "duration": "1.0"
        },
        {
          "pitch": 48,
          "velocity": 73,
          "start": 44.5,
          "duration": "1.0"
        },
        {
          "pitch": 48,
          "velocity": 74,
          "start": 45.5,
          "duration": "1.0"
        },
        {
          "pitch": 48,
          "velocity": 70,
          "start": 46.5,
          "duration": "0.5"
        },
        {
          "pitch": 48,
          "velocity": 75,
          "start": 47.0,
          "duration": "1.0"
        },
        {
          "pitch": 47,
          "velocity": 75,
          "start": 48.0,
          "duration": "1.0"
        },
        {
          "pitch": 47,
          "velocity": 73,
          "start": 49.0,
          "duration": "1.0"
        },
        {
          "pitch": 47,
          "velocity": 77,
          "start": 50.0,
          "duration": "0.5"
        },
        {
          "pitch": 47,
          "velocity": 77,
          "start": 50.5,
          "duration": "1.0"
        },
        {
          "pitch": 47,
          "velocity": 79,
          "start": 51.5,
          "duration": "1.0"
        },
        {
          "pitch": 47,
          "velocity": 76,
          "start": 52.5,
          "duration": "1.0"
        },
        {
          "pitch": 47,
          "velocity": 76,
          "start": 53.5,
          "duration": "1.0"
        },
        {
          "pitch": 47,
          "velocity": 76,
          "start": 54.5,
          "duration": "0.5"
        },
        {
          "pitch": 47,
          "velocity": 76,
          "start": 55.0,
          "duration": "1.0"
        },
        {
          "pitch": 46,
          "velocity": 73,
          "start": 56.0,
          "duration": "1.0"
        },
        {
          "pitch": 46,
          "velocity": 76,
          "start": 57.0,
          "duration": "1.0"
        },
        {
          "pitch": 46,
          "velocity": 74,
          "start": 58.0,
          "duration": "0.5"
        },
        {
          "pitch": 46,
          "velocity": 72,
          "start": 58.5,
          "duration": "1.0"
        },
        {
          "pitch": 48,
          "velocity": 75,
          "start": 59.5,
          "duration": "1.0"
        },
        {
          "pitch": 48,
          "velocity": 78,
          "start": 60.5,
          "duration": "1.0"
        },
        {
          "pitch": 48,
          "velocity": 74,
          "start": 61.5,
          "duration": "1.0"
        },
        {
          "pitch": 48,
          "velocity": 75,
          "start": 62.5,
          "duration": "0.5"
        },
        {
          "pitch": 48,
          "velocity": 75,
          "start": 63.0,
          "duration": "1.0"
        },
        {
          "pitch": 50,
          "velocity": 82,
          "start": 64.0,
          "duration": "1.0"
        },
        {
          "pitch": 38,
          "velocity": 82,
          "start": 64.0,
          "duration": "1.0"
        },
        {
          "pitch": 38,
          "velocity": 76,
          "start": 65.0,
          "duration": "1.0"
        },
        {
          "pitch": 50,
          "velocity": 76,
          "start": 65.0,
          "duration": "1.0"
        },
        {
          "pitch": 50,
          "velocity": 79,
          "start": 66.0,
          "duration": "0.5"
        },
        {
          "pitch": 38,
          "velocity": 79,
          "start": 66.0,
          "duration": "0.5"
        },
        {
          "pitch": 50,
          "velocity": 79,
          "start": 66.5,
          "duration": "1.0"
        },
        {
          "pitch": 38,
          "velocity": 79,
          "start": 66.5,
          "duration": "1.0"
        },
        {
          "pitch": 50,
          "velocity": 73,
          "start": 67.5,
          "duration": "1.0"
        },
        {
          "pitch": 38,
          "velocity": 73,
          "start": 67.5,
          "duration": "1.0"
        },
        {
          "pitch": 38,
          "velocity": 75,
          "start": 68.5,
          "duration": "1.0"
        },
        {
          "pitch": 50,
          "velocity": 75,
          "start": 68.5,
          "duration": "1.0"
        },
        {
          "pitch": 50,
          "velocity": 73,
          "start": 69.5,
          "duration": "1.0"
        },
        {
          "pitch": 38,
          "velocity": 73,
          "start": 69.5,
          "duration": "1.0"
        },
        {
          "pitch": 50,
          "velocity": 78,
          "start": 70.5,
          "duration": "0.5"
        },
        {
          "pitch": 38,
          "velocity": 78,
          "start": 70.5,
          "duration": "0.5"
        },
        {
          "pitch": 50,
          "velocity": 74,
          "start": 71.0,
          "duration": "1.0"
        },
        {
          "pitch": 38,
          "velocity": 74,
          "start": 71.0,
          "duration": "1.0"
        },
        {
          "pitch": 36,
          "velocity": 73,
          "start": 72.0,
          "duration": "1.0"
        },
        {
          "pitch": 48,
          "velocity": 73,
          "start": 72.0,
          "duration": "1.0"
        },
        {
          "pitch": 36,
          "velocity": 74,
          "start": 73.0,
          "duration": "1.0"
        },
        {
          "pitch": 48,
          "velocity": 74,
          "start": 73.0,
          "duration": "1.0"
        },
        {
          "pitch": 48,
          "velocity": 80,
          "start": 74.0,
          "duration": "0.5"
        },
        {
          "pitch": 36,
          "velocity": 80,
          "start": 74.0,
          "duration": "0.5"
        },
        {
          "pitch": 48,
          "velocity": 80,
          "start": 74.5,
          "duration": "1.0"
        },
        {
          "pitch": 36,
          "velocity": 80,
          "start": 74.5,
          "duration": "1.0"
        },
        {
          "pitch": 36,
          "velocity": 77,
          "start": 75.5,
          "duration": "1.0"
        },
        {
          "pitch": 48,
          "velocity": 77,
          "start": 75.5,
          "duration": "1.0"
        },
        {
          "pitch": 48,
          "velocity": 78,
          "start": 76.5,
          "duration": "1.0"
        },
        {
          "pitch": 36,
          "velocity": 78,
          "start": 76.5,
          "duration": "1.0"
        },
        {
          "pitch": 36,
          "velocity": 78,
          "start": 77.5,
          "duration": "1.0"
        },
        {
          "pitch": 48,
          "velocity": 78,
          "start": 77.5,
          "duration": "1.0"
        },
        {
          "pitch": 48,
          "velocity": 77,
          "start": 78.5,
          "duration": "0.5"
        },
        {
          "pitch": 36,
          "velocity": 77,
          "start": 78.5,
          "duration": "0.5"
        },
        {
          "pitch": 36,
          "velocity": 75,
          "start": 79.0,
          "duration": "1.0"
        },
        {
          "pitch": 48,
          "velocity": 75,
          "start": 79.0,
          "duration": "1.0"
        },
        {
          "pitch": 47,
          "velocity": 77,
          "start": 80.0,
          "duration": "1.0"
        },
        {
          "pitch": 35,
          "velocity": 77,
          "start": 80.0,
          "duration": "1.0"
        },
        {
          "pitch": 47,
          "velocity": 77,
          "start": 81.0,
          "duration": "1.0"
        },
        {
          "pitch": 35,
          "velocity": 77,
          "start": 81.0,
          "duration": "1.0"
        },
        {
          "pitch": 35,
          "velocity": 74,
          "start": 82.0,
          "duration": "0.5"
        },
        {
          "pitch": 47,
          "velocity": 74,
          "start": 82.0,
          "duration": "0.5"
        },
        {
          "pitch": 47,
          "velocity": 76,
          "start": 82.5,
          "duration": "1.0"
        },
        {
          "pitch": 35,
          "velocity": 76,
          "start": 82.5,
          "duration": "1.0"
        },
        {
          "pitch": 47,
          "velocity": 73,
          "start": 83.5,
          "duration": "1.0"
        },
        {
          "pitch": 35,
          "velocity": 73,
          "start": 83.5,
          "duration": "1.0"
        },
        {
          "pitch": 47,
          "velocity": 77,
          "start": 84.5,
          "duration": "1.0"
        },
        {
          "pitch": 35,
          "velocity": 77,
          "start": 84.5,
          "duration": "1.0"
        },
        {
          "pitch": 47,
          "velocity": 75,
          "start": 85.5,
          "duration": "1.0"
        },
        {
          "pitch": 35,
          "velocity": 75,
          "start": 85.5,
          "duration": "1.0"
        },
        {
          "pitch": 47,
          "velocity": 78,
          "start": 86.5,
          "duration": "0.5"
        },
        {
          "pitch": 35,
          "velocity": 78,
          "start": 86.5,
          "duration": "0.5"
        },
        {
          "pitch": 47,
          "velocity": 80,
          "start": 87.0,
          "duration": "1.0"
        },
        {
          "pitch": 35,
          "velocity": 80,
          "start": 87.0,
          "duration": "1.0"
        },
        {
          "pitch": 46,
          "velocity": 77,
          "start": 88.0,
          "duration": "1.0"
        },
        {
          "pitch": 34,
          "velocity": 77,
          "start": 88.0,
          "duration": "1.0"
        },
        {
          "pitch": 46,
          "velocity": 76,
          "start": 89.0,
          "duration": "1.0"
        },
        {
          "pitch": 34,
          "velocity": 76,
          "start": 89.0,
          "duration": "1.0"
        },
        {
          "pitch": 34,
          "velocity": 72,
          "start": 90.0,
          "duration": "0.5"
        },
        {
          "pitch": 46,
          "velocity": 72,
          "start": 90.0,
          "duration": "0.5"
        },
        {
          "pitch": 46,
          "velocity": 76,
          "start": 90.5,
          "duration": "1.0"
        },
        {
          "pitch": 34,
          "velocity": 76,
          "start": 90.5,
          "duration": "1.0"
        },
        {
          "pitch": 36,
          "velocity": 72,
          "start": 91.5,
          "duration": "1.0"
        },
        {
          "pitch": 48,
          "velocity": 72,
          "start": 91.5,
          "duration": "1.0"
        },
        {
          "pitch": 48,
          "velocity": 74,
          "start": 92.5,
          "duration": "1.0"
        },
        {
          "pitch": 36,
          "velocity": 74,
          "start": 92.5,
          "duration": "1.0"
        },
        {
          "pitch": 48,
          "velocity": 79,
          "start": 93.5,
          "duration": "1.0"
        },
        {
          "pitch": 36,
          "velocity": 79,
          "start": 93.5,
          "duration": "1.0"
        },
        {
          "pitch": 48,
          "velocity": 79,
          "start": 94.5,
          "duration": "0.5"
        },
        {
          "pitch": 36,
          "velocity": 79,
          "start": 94.5,
          "duration": "0.5"
        },
        {
          "pitch": 48,
          "velocity": 77,
          "start": 95.0,
          "duration": "1.0"
        },
        {
          "pitch": 36,
          "velocity": 77,
          "start": 95.0,
          "duration": "1.0"
        },
        {
          "pitch": 50,
          "velocity": 74,
          "start": 96.0,
          "duration": "1.0"
        },
        {
          "pitch": 38,
          "velocity": 74,
          "start": 96.0,
          "duration": "1.0"
        },
        {
          "pitch": 50,
          "velocity": 73,
          "start": 97.0,
          "duration": "1.0"
        },
        {
          "pitch": 38,
          "velocity": 73,
          "start": 97.0,
          "duration": "1.0"
        },
        {
          "pitch": 38,
          "velocity": 83,
          "start": 98.0,
          "duration": "0.5"
        },
        {
          "pitch": 50,
          "velocity": 83,
          "start": 98.0,
          "duration": "0.5"
        },
        {
          "pitch": 50,
          "velocity": 75,
          "start": 98.5,
          "duration": "1.0"
        },
        {
          "pitch": 38,
          "velocity": 75,
          "start": 98.5,
          "duration": "1.0"
        },
        {
          "pitch": 50,
          "velocity": 76,
          "start": 99.5,
          "duration": "1.0"
        },
        {
          "pitch": 38,
          "velocity": 76,
          "start": 99.5,
          "duration": "1.0"
        },
        {
          "pitch": 50,
          "velocity": 76,
          "start": 100.5,
          "duration": "1.0"
        },
        {
          "pitch": 38,
          "velocity": 76,
          "start": 100.5,
          "duration": "1.0"
        },
        {
          "pitch": 50,
          "velocity": 81,
          "start": 101.5,
          "duration": "1.0"
        },
        {
          "pitch": 38,
          "velocity": 81,
          "start": 101.5,
          "duration": "1.0"
        },
        {
          "pitch": 50,
          "velocity": 77,
          "start": 102.5,
          "duration": "0.5"
        },
        {
          "pitch": 38,
          "velocity": 77,
          "start": 102.5,
          "duration": "0.5"
        },
        {
          "pitch": 50,
          "velocity": 73,
          "start": 103.0,
          "duration": "1.0"
        },
        {
          "pitch": 38,
          "velocity": 73,
          "start": 103.0,
          "duration": "1.0"
        },
        {
          "pitch": 48,
          "velocity": 73,
          "start": 104.0,
          "duration": "1.0"
        },
        {
          "pitch": 36,
          "velocity": 73,
          "start": 104.0,
          "duration": "1.0"
        },
        {
          "pitch": 48,
          "velocity": 78,
          "start": 105.0,
          "duration": "1.0"
        },
        {
          "pitch": 36,
          "velocity": 78,
          "start": 105.0,
          "duration": "1.0"
        },
        {
          "pitch": 36,
          "velocity": 78,
          "start": 106.0,
          "duration": "0.5"
        },
        {
          "pitch": 48,
          "velocity": 78,
          "start": 106.0,
          "duration": "0.5"
        },
        {
          "pitch": 48,
          "velocity": 74,
          "start": 106.5,
          "duration": "1.0"
        },
        {
          "pitch": 36,
          "velocity": 74,
          "start": 106.5,
          "duration": "1.0"
        },
        {
          "pitch": 48,
          "velocity": 78,
          "start": 107.5,
          "duration": "1.0"
        },
        {
          "pitch": 36,
          "velocity": 78,
          "start": 107.5,
          "duration": "1.0"
        },
        {
          "pitch": 48,
          "velocity": 79,
          "start": 108.5,
          "duration": "1.0"
        },
        {
          "pitch": 36,
          "velocity": 79,
          "start": 108.5,
          "duration": "1.0"
        },
        {
          "pitch": 48,
          "velocity": 75,
          "start": 109.5,
          "duration": "1.0"
        },
        {
          "pitch": 36,
          "velocity": 75,
          "start": 109.5,
          "duration": "1.0"
        },
        {
          "pitch": 48,
          "velocity": 77,
          "start": 110.5,
          "duration": "0.5"
        },
        {
          "pitch": 36,
          "velocity": 77,
          "start": 110.5,
          "duration": "0.5"
        },
        {
          "pitch": 48,
          "velocity": 75,
          "start": 111.0,
          "duration": "1.0"
        },
        {
          "pitch": 36,
          "velocity": 75,
          "start": 111.0,
          "duration": "1.0"
        },
        {
          "pitch": 47,
          "velocity": 71,
          "start": 112.0,
          "duration": "1.0"
        },
        {
          "pitch": 35,
          "velocity": 71,
          "start": 112.0,
          "duration": "1.0"
        },
        {
          "pitch": 47,
          "velocity": 79,
          "start": 113.0,
          "duration": "1.0"
        },
        {
          "pitch": 35,
          "velocity": 79,
          "start": 113.0,
          "duration": "1.0"
        },
        {
          "pitch": 35,
          "velocity": 75,
          "start": 114.0,
          "duration": "0.5"
        },
        {
          "pitch": 47,
          "velocity": 75,
          "start": 114.0,
          "duration": "0.5"
        },
        {
          "pitch": 35,
          "velocity": 77,
          "start": 114.5,
          "duration": "1.0"
        },
        {
          "pitch": 47,
          "velocity": 77,
          "start": 114.5,
          "duration": "1.0"
        },
        {
          "pitch": 47,
          "velocity": 78,
          "start": 115.5,
          "duration": "1.0"
        },
        {
          "pitch": 35,
          "velocity": 78,
          "start": 115.5,
          "duration": "1.0"
        },
        {
          "pitch": 35,
          "velocity": 75,
          "start": 116.5,
          "duration": "1.0"
        },
        {
          "pitch": 47,
          "velocity": 75,
          "start": 116.5,
          "duration": "1.0"
        },
        {
          "pitch": 47,
          "velocity": 73,
          "start": 117.5,
          "duration": "1.0"
        },
        {
          "pitch": 35,
          "velocity": 73,
          "start": 117.5,
          "duration": "1.0"
        },
        {
          "pitch": 35,
          "velocity": 74,
          "start": 118.5,
          "duration": "0.5"
        },
        {
          "pitch": 47,
          "velocity": 74,
          "start": 118.5,
          "duration": "0.5"
        },
        {
          "pitch": 47,
          "velocity": 76,
          "start": 119.0,
          "duration": "1.0"
        },
        {
          "pitch": 35,
          "velocity": 76,
          "start": 119.0,
          "duration": "1.0"
        },
        {
          "pitch": 46,
          "velocity": 79,
          "start": 120.0,
          "duration": "1.0"
        },
        {
          "pitch": 34,
          "velocity": 79,
          "start": 120.0,
          "duration": "1.0"
        },
        {
          "pitch": 46,
          "velocity": 75,
          "start": 121.0,
          "duration": "1.0"
        },
        {
          "pitch": 34,
          "velocity": 75,
          "start": 121.0,
          "duration": "1.0"
        },
        {
          "pitch": 34,
          "velocity": 75,
          "start": 122.0,
          "duration": "0.5"
        },
        {
          "pitch": 46,
          "velocity": 75,
          "start": 122.0,
          "duration": "0.5"
        },
        {
          "pitch": 34,
          "velocity": 77,
          "start": 122.5,
          "duration": "1.0"
        },
        {
          "pitch": 46,
          "velocity": 77,
          "start": 122.5,
          "duration": "1.0"
        },
        {
          "pitch": 36,
          "velocity": 81,
          "start": 123.5,
          "duration": "1.0"
        },
        {
          "pitch": 48,
          "velocity": 81,
          "start": 123.5,
          "duration": "1.0"
        },
        {
          "pitch": 36,
          "velocity": 75,
          "start": 124.5,
          "duration": "1.0"
        },
        {
          "pitch": 48,
          "velocity": 75,
          "start": 124.5,
          "duration": "1.0"
        },
        {
          "pitch": 48,
          "velocity": 79,
          "start": 125.5,
          "duration": "1.0"
        },
        {
          "pitch": 36,
          "velocity": 79,
          "start": 125.5,
          "duration": "1.0"
        },
        {
          "pitch": 36,
          "velocity": 79,
          "start": 126.5,
          "duration": "0.5"
        },
        {
          "pitch": 48,
          "velocity": 79,
          "start": 126.5,
          "duration": "0.5"
        },
        {
          "pitch": 48,
          "velocity": 80,
          "start": 127.0,
          "duration": "1.0"
        },
        {
          "pitch": 36,
          "velocity": 80,
          "start": 127.0,
          "duration": "1.0"
        },
        {
          "pitch": 50,
          "velocity": 83,
          "start": 128.0,
          "duration": "1.0"
        },
        {
          "pitch": 57,
          "velocity": 83,
          "start": 128.0,
          "duration": "1.0"
        },
        {
          "pitch": 57,
          "velocity": 77,
          "start": 129.0,
          "duration": "1.0"
        },
        {
          "pitch": 50,
          "velocity": 77,
          "start": 129.0,
          "duration": "1.0"
        },
        {
          "pitch": 50,
          "velocity": 74,
          "start": 130.0,
          "duration": "0.5"
        },
        {
          "pitch": 57,
          "velocity": 74,
          "start": 130.0,
          "duration": "0.5"
        },
        {
          "pitch": 57,
          "velocity": 80,
          "start": 130.5,
          "duration": "1.0"
        },
        {
          "pitch": 50,
          "velocity": 80,
          "start": 130.5,
          "duration": "1.0"
        },
        {
          "pitch": 57,
          "velocity": 81,
          "start": 131.5,
          "duration": "1.0"
        },
        {
          "pitch": 50,
          "velocity": 81,
          "start": 131.5,
          "duration": "1.0"
        },
        {
          "pitch": 57,
          "velocity": 76,
          "start": 132.5,
          "duration": "1.0"
        },
        {
          "pitch": 50,
          "velocity": 76,
          "start": 132.5,
          "duration": "1.0"
        },
        {
          "pitch": 50,
          "velocity": 75,
          "start": 133.5,
          "duration": "1.0"
        },
        {
          "pitch": 57,
          "velocity": 75,
          "start": 133.5,
          "duration": "1.0"
        },
        {
          "pitch": 57,
          "velocity": 76,
          "start": 134.5,
          "duration": "0.5"
        },
        {
          "pitch": 50,
          "velocity": 76,
          "start": 134.5,
          "duration": "0.5"
        },
        {
          "pitch": 50,
          "velocity": 73,
          "start": 135.0,
          "duration": "1.0"
        },
        {
          "pitch": 57,
          "velocity": 73,
          "start": 135.0,
          "duration": "1.0"
        },
        {
          "pitch": 48,
          "velocity": 77,
          "start": 136.0,
          "duration": "1.0"
        },
        {
          "pitch": 55,
          "velocity": 77,
          "start": 136.0,
          "duration": "1.0"
        },
        {
          "pitch": 55,
          "velocity": 75,
          "start": 137.0,
          "duration": "1.0"
        },
        {
          "pitch": 48,
          "velocity": 75,
          "start": 137.0,
          "duration": "1.0"
        },
        {
          "pitch": 55,
          "velocity": 79,
          "start": 138.0,
          "duration": "0.5"
        },
        {
          "pitch": 48,
          "velocity": 79,
          "start": 138.0,
          "duration": "0.5"
        },
        {
          "pitch": 55,
          "velocity": 79,
          "start": 138.5,
          "duration": "1.0"
        },
        {
          "pitch": 48,
          "velocity": 79,
          "start": 138.5,
          "duration": "1.0"
        },
        {
          "pitch": 48,
          "velocity": 82,
          "start": 139.5,
          "duration": "1.0"
        },
        {
          "pitch": 55,
          "velocity": 82,
          "start": 139.5,
          "duration": "1.0"
        },
        {
          "pitch": 48,
          "velocity": 75,
          "start": 140.5,
          "duration": "1.0"
        },
        {
          "pitch": 55,
          "velocity": 75,
          "start": 140.5,
          "duration": "1.0"
        },
        {
          "pitch": 55,
          "velocity": 76,
          "start": 141.5,
          "duration": "1.0"
        },
        {
          "pitch": 48,
          "velocity": 76,
          "start": 141.5,
          "duration": "1.0"
        },
        {
          "pitch": 48,
          "velocity": 71,
          "start": 142.5,
          "duration": "0.5"
        },
        {
          "pitch": 55,
          "velocity": 71,
          "start": 142.5,
          "duration": "0.5"
        },
        {
          "pitch": 48,
          "velocity": 76,
          "start": 143.0,
          "duration": "1.0"
        },
        {
          "pitch": 55,
          "velocity": 76,
          "start": 143.0,
          "duration": "1.0"
        },
        {
          "pitch": 55,
          "velocity": 77,
          "start": 144.0,
          "duration": "1.0"
        },
        {
          "pitch": 47,
          "velocity": 77,
          "start": 144.0,
          "duration": "1.0"
        },
        {
          "pitch": 55,
          "velocity": 74,
          "start": 145.0,
          "duration": "1.0"
        },
        {
          "pitch": 47,
          "velocity": 74,
          "start": 145.0,
          "duration": "1.0"
        },
        {
          "pitch": 55,
          "velocity": 77,
          "start": 146.0,
          "duration": "0.5"
        },
        {
          "pitch": 47,
          "velocity": 77,
          "start": 146.0,
          "duration": "0.5"
        },
        {
          "pitch": 47,
          "velocity": 77,
          "start": 146.5,
          "duration": "1.0"
        },
        {
          "pitch": 55,
          "velocity": 77,
          "start": 146.5,
          "duration": "1.0"
        },
        {
          "pitch": 47,
          "velocity": 80,
          "start": 147.5,
          "duration": "1.0"
        },
        {
          "pitch": 55,
          "velocity": 80,
          "start": 147.5,
          "duration": "1.0"
        },
        {
          "pitch": 47,
          "velocity": 80,
          "start": 148.5,
          "duration": "1.0"
        },
        {
          "pitch": 55,
          "velocity": 80,
          "start": 148.5,
          "duration": "1.0"
        },
        {
          "pitch": 55,
          "velocity": 73,
          "start": 149.5,
          "duration": "1.0"
        },
        {
          "pitch": 47,
          "velocity": 73,
          "start": 149.5,
          "duration": "1.0"
        },
        {
          "pitch": 55,
          "velocity": 75,
          "start": 150.5,
          "duration": "0.5"
        },
        {
          "pitch": 47,
          "velocity": 75,
          "start": 150.5,
          "duration": "0.5"
        },
        {
          "pitch": 47,
          "velocity": 78,
          "start": 151.0,
          "duration": "1.0"
        },
        {
          "pitch": 55,
          "velocity": 78,
          "start": 151.0,
          "duration": "1.0"
        },
        {
          "pitch": 53,
          "velocity": 72,
          "start": 152.0,
          "duration": "1.0"
        },
        {
          "pitch": 46,
          "velocity": 72,
          "start": 152.0,
          "duration": "1.0"
        },
        {
          "pitch": 53,
          "velocity": 75,
          "start": 153.0,
          "duration": "1.0"
        },
        {
          "pitch": 46,
          "velocity": 75,
          "start": 153.0,
          "duration": "1.0"
        },
        {
          "pitch": 53,
          "velocity": 78,
          "start": 154.0,
          "duration": "0.5"
        },
        {
          "pitch": 46,
          "velocity": 78,
          "start": 154.0,
          "duration": "0.5"
        },
        {
          "pitch": 53,
          "velocity": 78,
          "start": 154.5,
          "duration": "1.0"
        },
        {
          "pitch": 46,
          "velocity": 78,
          "start": 154.5,
          "duration": "1.0"
        },
        {
          "pitch": 48,
          "velocity": 80,
          "start": 155.5,
          "duration": "1.0"
        },
        {
          "pitch": 55,
          "velocity": 80,
          "start": 155.5,
          "duration": "1.0"
        },
        {
          "pitch": 48,
          "velocity": 77,
          "start": 156.5,
          "duration": "1.0"
        },
        {
          "pitch": 55,
          "velocity": 77,
          "start": 156.5,
          "duration": "1.0"
        },
        {
          "pitch": 48,
          "velocity": 76,
          "start": 157.5,
          "duration": "1.0"
        },
        {
          "pitch": 55,
          "velocity": 76,
          "start": 157.5,
          "duration": "1.0"
        },
        {
          "pitch": 48,
          "velocity": 77,
          "start": 158.5,
          "duration": "0.5"
        },
        {
          "pitch": 55,
          "velocity": 77,
          "start": 158.5,
          "duration": "0.5"
        },
        {
          "pitch": 55,
          "velocity": 77,
          "start": 159.0,
          "duration": "1.0"
        },
        {
          "pitch": 48,
          "velocity": 77,
          "start": 159.0,
          "duration": "1.0"
        },
        {
          "pitch": 57,
          "velocity": 79,
          "start": 160.0,
          "duration": "1.0"
        },
        {
          "pitch": 50,
          "velocity": 79,
          "start": 160.0,
          "duration": "1.0"
        },
        {
          "pitch": 57,
          "velocity": 73,
          "start": 161.0,
          "duration": "1.0"
        },
        {
          "pitch": 50,
          "velocity": 73,
          "start": 161.0,
          "duration": "1.0"
        },
        {
          "pitch": 57,
          "velocity": 75,
          "start": 162.0,
          "duration": "0.5"
        },
        {
          "pitch": 50,
          "velocity": 75,
          "start": 162.0,
          "duration": "0.5"
        },
        {
          "pitch": 57,
          "velocity": 75,
          "start": 162.5,
          "duration": "1.0"
        },
        {
          "pitch": 50,
          "velocity": 75,
          "start": 162.5,
          "duration": "1.0"
        },
        {
          "pitch": 57,
          "velocity": 82,
          "start": 163.5,
          "duration": "1.0"
        },
        {
          "pitch": 50,
          "velocity": 82,
          "start": 163.5,
          "duration": "1.0"
        },
        {
          "pitch": 57,
          "velocity": 78,
          "start": 164.5,
          "duration": "1.0"
        },
        {
          "pitch": 50,
          "velocity": 78,
          "start": 164.5,
          "duration": "1.0"
        },
        {
          "pitch": 57,
          "velocity": 79,
          "start": 165.5,
          "duration": "1.0"
        },
        {
          "pitch": 50,
          "velocity": 79,
          "start": 165.5,
          "duration": "1.0"
        },
        {
          "pitch": 57,
          "velocity": 74,
          "start": 166.5,
          "duration": "0.5"
        },
        {
          "pitch": 50,
          "velocity": 74,
          "start": 166.5,
          "duration": "0.5"
        },
        {
          "pitch": 50,
          "velocity": 76,
          "start": 167.0,
          "duration": "1.0"
        },
        {
          "pitch": 57,
          "velocity": 76,
          "start": 167.0,
          "duration": "1.0"
        },
        {
          "pitch": 48,
          "velocity": 73,
          "start": 168.0,
          "duration": "1.0"
        },
        {
          "pitch": 55,
          "velocity": 73,
          "start": 168.0,
          "duration": "1.0"
        },
        {
          "pitch": 55,
          "velocity": 76,
          "start": 169.0,
          "duration": "1.0"
        },
        {
          "pitch": 48,
          "velocity": 76,
          "start": 169.0,
          "duration": "1.0"
        },
        {
          "pitch": 55,
          "velocity": 74,
          "start": 170.0,
          "duration": "0.5"
        },
        {
          "pitch": 48,
          "velocity": 74,
          "start": 170.0,
          "duration": "0.5"
        },
        {
          "pitch": 55,
          "velocity": 79,
          "start": 170.5,
          "duration": "1.0"
        },
        {
          "pitch": 48,
          "velocity": 79,
          "start": 170.5,
          "duration": "1.0"
        },
        {
          "pitch": 55,
          "velocity": 76,
          "start": 171.5,
          "duration": "1.0"
        },
        {
          "pitch": 48,
          "velocity": 76,
          "start": 171.5,
          "duration": "1.0"
        },
        {
          "pitch": 55,
          "velocity": 80,
          "start": 172.5,
          "duration": "1.0"
        },
        {
          "pitch": 48,
          "velocity": 80,
          "start": 172.5,
          "duration": "1.0"
        },
        {
          "pitch": 55,
          "velocity": 77,
          "start": 173.5,
          "duration": "1.0"
        },
        {
          "pitch": 48,
          "velocity": 77,
          "start": 173.5,
          "duration": "1.0"
        },
        {
          "pitch": 55,
          "velocity": 77,
          "start": 174.5,
          "duration": "0.5"
        },
        {
          "pitch": 48,
          "velocity": 77,
          "start": 174.5,
          "duration": "0.5"
        },
        {
          "pitch": 48,
          "velocity": 75,
          "start": 175.0,
          "duration": "1.0"
        },
        {
          "pitch": 55,
          "velocity": 75,
          "start": 175.0,
          "duration": "1.0"
        },
        {
          "pitch": 47,
          "velocity": 74,
          "start": 176.0,
          "duration": "1.0"
        },
        {
          "pitch": 55,
          "velocity": 74,
          "start": 176.0,
          "duration": "1.0"
        },
        {
          "pitch": 47,
          "velocity": 78,
          "start": 177.0,
          "duration": "1.0"
        },
        {
          "pitch": 55,
          "velocity": 78,
          "start": 177.0,
          "duration": "1.0"
        },
        {
          "pitch": 55,
          "velocity": 76,
          "start": 178.0,
          "duration": "0.5"
        },
        {
          "pitch": 47,
          "velocity": 76,
          "start": 178.0,
          "duration": "0.5"
        },
        {
          "pitch": 47,
          "velocity": 84,
          "start": 178.5,
          "duration": "1.0"
        },
        {
          "pitch": 55,
          "velocity": 84,
          "start": 178.5,
          "duration": "1.0"
        },
        {
          "pitch": 47,
          "velocity": 75,
          "start": 179.5,
          "duration": "1.0"
        },
        {
          "pitch": 55,
          "velocity": 75,
          "start": 179.5,
          "duration": "1.0"
        },
        {
          "pitch": 47,
          "velocity": 78,
          "start": 180.5,
          "duration": "1.0"
        },
        {
          "pitch": 55,
          "velocity": 78,
          "start": 180.5,
          "duration": "1.0"
        },
        {
          "pitch": 47,
          "velocity": 77,
          "start": 181.5,
          "duration": "1.0"
        },
        {
          "pitch": 55,
          "velocity": 77,
          "start": 181.5,
          "duration": "1.0"
        },
        {
          "pitch": 47,
          "velocity": 76,
          "start": 182.5,
          "duration": "0.5"
        },
        {
          "pitch": 55,
          "velocity": 76,
          "start": 182.5,
          "duration": "0.5"
        },
        {
          "pitch": 55,
          "velocity": 75,
          "start": 183.0,
          "duration": "1.0"
        },
        {
          "pitch": 47,
          "velocity": 75,
          "start": 183.0,
          "duration": "1.0"
        },
        {
          "pitch": 53,
          "velocity": 80,
          "start": 184.0,
          "duration": "1.0"
        },
        {
          "pitch": 46,
          "velocity": 80,
          "start": 184.0,
          "duration": "1.0"
        },
        {
          "pitch": 53,
          "velocity": 74,
          "start": 185.0,
          "duration": "1.0"
        },
        {
          "pitch": 46,
          "velocity": 74,
          "start": 185.0,
          "duration": "1.0"
        },
        {
          "pitch": 46,
          "velocity": 75,
          "start": 186.0,
          "duration": "0.5"
        },
        {
          "pitch": 53,
          "velocity": 75,
          "start": 186.0,
          "duration": "0.5"
        },
        {
          "pitch": 46,
          "velocity": 75,
          "start": 186.5,
          "duration": "1.0"
        },
        {
          "pitch": 53,
          "velocity": 75,
          "start": 186.5,
          "duration": "1.0"
        },
        {
          "pitch": 48,
          "velocity": 78,
          "start": 187.5,
          "duration": "1.0"
        },
        {
          "pitch": 55,
          "velocity": 78,
          "start": 187.5,
          "duration": "1.0"
        },
        {
          "pitch": 55,
          "velocity": 76,
          "start": 188.5,
          "duration": "1.0"
        },
        {
          "pitch": 48,
          "velocity": 76,
          "start": 188.5,
          "duration": "1.0"
        },
        {
          "pitch": 48,
          "velocity": 75,
          "start": 189.5,
          "duration": "1.0"
        },
        {
          "pitch": 55,
          "velocity": 75,
          "start": 189.5,
          "duration": "1.0"
        },
        {
          "pitch": 55,
          "velocity": 72,
          "start": 190.5,
          "duration": "0.5"
        },
        {
          "pitch": 48,
          "velocity": 72,
          "start": 190.5,
          "duration": "0.5"
        },
        {
          "pitch": 55,
          "velocity": 71,
          "start": 191.0,
          "duration": "1.0"
        },
        {
          "pitch": 48,
          "velocity": 71,
          "start": 191.0,
          "duration": "1.0"
        },
        {
          "pitch": 53,
          "velocity": 73,
          "start": 192.0,
          "duration": "1.0"
        },
        {
          "pitch": 46,
          "velocity": 73,
          "start": 192.0,
          "duration": "1.0"
        },
        {
          "pitch": 46,
          "velocity": 76,
          "start": 193.0,
          "duration": "1.0"
        },
        {
          "pitch": 53,
          "velocity": 76,
          "start": 193.0,
          "duration": "1.0"
        },
        {
          "pitch": 53,
          "velocity": 79,
          "start": 194.0,
          "duration": "0.5"
        },
        {
          "pitch": 46,
          "velocity": 79,
          "start": 194.0,
          "duration": "0.5"
        },
        {
          "pitch": 46,
          "velocity": 76,
          "start": 194.5,
          "duration": "1.0"
        },
        {
          "pitch": 53,
          "velocity": 76,
          "start": 194.5,
          "duration": "1.0"
        },
        {
          "pitch": 46,
          "velocity": 76,
          "start": 195.5,
          "duration": "1.0"
        },
        {
          "pitch": 53,
          "velocity": 76,
          "start": 195.5,
          "duration": "1.0"
        },
        {
          "pitch": 46,
          "velocity": 76,
          "start": 196.5,
          "duration": "1.0"
        },
        {
          "pitch": 53,
          "velocity": 76,
          "start": 196.5,
          "duration": "1.0"
        },
        {
          "pitch": 46,
          "velocity": 78,
          "start": 197.5,
          "duration": "1.0"
        },
        {
          "pitch": 53,
          "velocity": 78,
          "start": 197.5,
          "duration": "1.0"
        },
        {
          "pitch": 46,
          "velocity": 78,
          "start": 198.5,
          "duration": "0.5"
        },
        {
          "pitch": 53,
          "velocity": 78,
          "start": 198.5,
          "duration": "0.5"
        },
        {
          "pitch": 46,
          "velocity": 77,
          "start": 199.0,
          "duration": "1.0"
        },
        {
          "pitch": 53,
          "velocity": 77,
          "start": 199.0,
          "duration": "1.0"
        },
        {
          "pitch": 55,
          "velocity": 79,
          "start": 200.0,
          "duration": "1.0"
        },
        {
          "pitch": 48,
          "velocity": 79,
          "start": 200.0,
          "duration": "1.0"
        },
        {
          "pitch": 55,
          "velocity": 71,
          "start": 201.0,
          "duration": "1.0"
        },
        {
          "pitch": 48,
          "velocity": 71,
          "start": 201.0,
          "duration": "1.0"
        },
        {
          "pitch": 55,
          "velocity": 78,
          "start": 202.0,
          "duration": "0.5"
        },
        {
          "pitch": 48,
          "velocity": 78,
          "start": 202.0,
          "duration": "0.5"
        },
        {
          "pitch": 48,
          "velocity": 78,
          "start": 202.5,
          "duration": "1.0"
        },
        {
          "pitch": 55,
          "velocity": 78,
          "start": 202.5,
          "duration": "1.0"
        },
        {
          "pitch": 48,
          "velocity": 73,
          "start": 203.5,
          "duration": "1.0"
        },
        {
          "pitch": 55,
          "velocity": 73,
          "start": 203.5,
          "duration": "1.0"
        },
        {
          "pitch": 48,
          "velocity": 73,
          "start": 204.5,
          "duration": "1.0"
        },
        {
          "pitch": 55,
          "velocity": 73,
          "start": 204.5,
          "duration": "1.0"
        },
        {
          "pitch": 48,
          "velocity": 77,
          "start": 205.5,
          "duration": "1.0"
        },
        {
          "pitch": 55,
          "velocity": 77,
          "start": 205.5,
          "duration": "1.0"
        },
        {
          "pitch": 48,
          "velocity": 70,
          "start": 206.5,
          "duration": "0.5"
        },
        {
          "pitch": 55,
          "velocity": 70,
          "start": 206.5,
          "duration": "0.5"
        },
        {
          "pitch": 48,
          "velocity": 74,
          "start": 207.0,
          "duration": "1.0"
        },
        {
          "pitch": 55,
          "velocity": 74,
          "start": 207.0,
          "duration": "1.0"
        },
        {
          "pitch": 57,
          "velocity": 84,
          "start": 208.0,
          "duration": "1.0"
        },
        {
          "pitch": 50,
          "velocity": 84,
          "start": 208.0,
          "duration": "1.0"
        },
        {
          "pitch": 50,
          "velocity": 76,
          "start": 209.0,
          "duration": "1.0"
        },
        {
          "pitch": 57,
          "velocity": 76,
          "start": 209.0,
          "duration": "1.0"
        },
        {
          "pitch": 50,
          "velocity": 72,
          "start": 210.0,
          "duration": "0.5"
        },
        {
          "pitch": 57,
          "velocity": 72,
          "start": 210.0,
          "duration": "0.5"
        },
        {
          "pitch": 50,
          "velocity": 78,
          "start": 210.5,
          "duration": "1.0"
        },
        {
          "pitch": 57,
          "velocity": 78,
          "start": 210.5,
          "duration": "1.0"
        },
        {
          "pitch": 50,
          "velocity": 77,
          "start": 211.5,
          "duration": "1.0"
        },
        {
          "pitch": 57,
          "velocity": 77,
          "start": 211.5,
          "duration": "1.0"
        },
        {
          "pitch": 50,
          "velocity": 76,
          "start": 212.5,
          "duration": "1.0"
        },
        {
          "pitch": 57,
          "velocity": 76,
          "start": 212.5,
          "duration": "1.0"
        },
        {
          "pitch": 50,
          "velocity": 77,
          "start": 213.5,
          "duration": "1.0"
        },
        {
          "pitch": 57,
          "velocity": 77,
          "start": 213.5,
          "duration": "1.0"
        },
        {
          "pitch": 50,
          "velocity": 78,
          "start": 214.5,
          "duration": "0.5"
        },
        {
          "pitch": 57,
          "velocity": 78,
          "start": 214.5,
          "duration": "0.5"
        },
        {
          "pitch": 50,
          "velocity": 74,
          "start": 215.0,
          "duration": "1.0"
        },
        {
          "pitch": 57,
          "velocity": 74,
          "start": 215.0,
          "duration": "1.0"
        },
        {
          "pitch": 49,
          "velocity": 75,
          "start": 216.0,
          "duration": "1.0"
        },
        {
          "pitch": 56,
          "velocity": 75,
          "start": 216.0,
          "duration": "1.0"
        },
        {
          "pitch": 56,
          "velocity": 75,
          "start": 217.0,
          "duration": "1.0"
        },
        {
          "pitch": 49,
          "velocity": 75,
          "start": 217.0,
          "duration": "1.0"
        },
        {
          "pitch": 56,
          "velocity": 75,
          "start": 218.0,
          "duration": "0.5"
        },
        {
          "pitch": 49,
          "velocity": 75,
          "start": 218.0,
          "duration": "0.5"
        },
        {
          "pitch": 49,
          "velocity": 82,
          "start": 218.5,
          "duration": "1.0"
        },
        {
          "pitch": 56,
          "velocity": 82,
          "start": 218.5,
          "duration": "1.0"
        },
        {
          "pitch": 51,
          "velocity": 77,
          "start": 219.5,
          "duration": "1.0"
        },
        {
          "pitch": 58,
          "velocity": 77,
          "start": 219.5,
          "duration": "1.0"
        },
        {
          "pitch": 51,
          "velocity": 77,
          "start": 220.5,
          "duration": "1.0"
        },
        {
          "pitch": 58,
          "velocity": 77,
          "start": 220.5,
          "duration": "1.0"
        },
        {
          "pitch": 58,
          "velocity": 76,
          "start": 221.5,
          "duration": "1.0"
        },
        {
          "pitch": 51,
          "velocity": 76,
          "start": 221.5,
          "duration": "1.0"
        },
        {
          "pitch": 51,
          "velocity": 72,
          "start": 222.5,
          "duration": "0.5"
        },
        {
          "pitch": 58,
          "velocity": 72,
          "start": 222.5,
          "duration": "0.5"
        },
        {
          "pitch": 51,
          "velocity": 78,
          "start": 223.0,
          "duration": "1.0"
        },
        {
          "pitch": 58,
          "velocity": 78,
          "start": 223.0,
          "duration": "1.0"
        },
        {
          "pitch": 46,
          "velocity": 71,
          "start": 224.0,
          "duration": "1.0"
        },
        {
          "pitch": 53,
          "velocity": 71,
          "start": 224.0,
          "duration": "1.0"
        },
        {
          "pitch": 46,
          "velocity": 80,
          "start": 225.0,
          "duration": "1.0"
        },
        {
          "pitch": 53,
          "velocity": 80,
          "start": 225.0,
          "duration": "1.0"
        },
        {
          "pitch": 46,
          "velocity": 78,
          "start": 226.0,
          "duration": "0.5"
        },
        {
          "pitch": 53,
          "velocity": 78,
          "start": 226.0,
          "duration": "0.5"
        },
        {
          "pitch": 53,
          "velocity": 75,
          "start": 226.5,
          "duration": "1.0"
        },
        {
          "pitch": 46,
          "velocity": 75,
          "start": 226.5,
          "duration": "1.0"
        },
        {
          "pitch": 53,
          "velocity": 75,
          "start": 227.5,
          "duration": "1.0"
        },
        {
          "pitch": 46,
          "velocity": 75,
          "start": 227.5,
          "duration": "1.0"
        },
        {
          "pitch": 53,
          "velocity": 80,
          "start": 228.5,
          "duration": "1.0"
        },
        {
          "pitch": 46,
          "velocity": 80,
          "start": 228.5,
          "duration": "1.0"
        },
        {
          "pitch": 53,
          "velocity": 76,
          "start": 229.5,
          "duration": "1.0"
        },
        {
          "pitch": 46,
          "velocity": 76,
          "start": 229.5,
          "duration": "1.0"
        },
        {
          "pitch": 53,
          "velocity": 77,
          "start": 230.5,
          "duration": "0.5"
        },
        {
          "pitch": 46,
          "velocity": 77,
          "start": 230.5,
          "duration": "0.5"
        },
        {
          "pitch": 46,
          "velocity": 81,
          "start": 231.0,
          "duration": "1.0"
        },
        {
          "pitch": 53,
          "velocity": 81,
          "start": 231.0,
          "duration": "1.0"
        },
        {
          "pitch": 48,
          "velocity": 75,
          "start": 232.0,
          "duration": "1.0"
        },
        {
          "pitch": 55,
          "velocity": 75,
          "start": 232.0,
          "duration": "1.0"
        },
        {
          "pitch": 48,
          "velocity": 75,
          "start": 233.0,
          "duration": "1.0"
        },
        {
          "pitch": 55,
          "velocity": 75,
          "start": 233.0,
          "duration": "1.0"
        },
        {
          "pitch": 48,
          "velocity": 78,
          "start": 234.0,
          "duration": "0.5"
        },
        {
          "pitch": 55,
          "velocity": 78,
          "start": 234.0,
          "duration": "0.5"
        },
        {
          "pitch": 55,
          "velocity": 76,
          "start": 234.5,
          "duration": "1.0"
        },
        {
          "pitch": 48,
          "velocity": 76,
          "start": 234.5,
          "duration": "1.0"
        },
        {
          "pitch": 55,
          "velocity": 78,
          "start": 235.5,
          "duration": "1.0"
        },
        {
          "pitch": 48,
          "velocity": 78,
          "start": 235.5,
          "duration": "1.0"
        },
        {
          "pitch": 55,
          "velocity": 75,
          "start": 236.5,
          "duration": "1.0"
        },
        {
          "pitch": 48,
          "velocity": 75,
          "start": 236.5,
          "duration": "1.0"
        },
        {
          "pitch": 55,
          "velocity": 78,
          "start": 237.5,
          "duration": "1.0"
        },
        {
          "pitch": 48,
          "velocity": 78,
          "start": 237.5,
          "duration": "1.0"
        },
        {
          "pitch": 55,
          "velocity": 77,
          "start": 238.5,
          "duration": "0.5"
        },
        {
          "pitch": 48,
          "velocity": 77,
          "start": 238.5,
          "duration": "0.5"
        },
        {
          "pitch": 48,
          "velocity": 77,
          "start": 239.0,
          "duration": "1.0"
        },
        {
          "pitch": 55,
          "velocity": 77,
          "start": 239.0,
          "duration": "1.0"
        },
        {
          "pitch": 50,
          "velocity": 76,
          "start": 240.0,
          "duration": "1.0"
        },
        {
          "pitch": 57,
          "velocity": 76,
          "start": 240.0,
          "duration": "1.0"
        },
        {
          "pitch": 50,
          "velocity": 76,
          "start": 241.0,
          "duration": "1.0"
        },
        {
          "pitch": 57,
          "velocity": 76,
          "start": 241.0,
          "duration": "1.0"
        },
        {
          "pitch": 50,
          "velocity": 81,
          "start": 242.0,
          "duration": "0.5"
        },
        {
          "pitch": 57,
          "velocity": 81,
          "start": 242.0,
          "duration": "0.5"
        },
        {
          "pitch": 57,
          "velocity": 73,
          "start": 242.5,
          "duration": "1.0"
        },
        {
          "pitch": 50,
          "velocity": 73,
          "start": 242.5,
          "duration": "1.0"
        },
        {
          "pitch": 57,
          "velocity": 75,
          "start": 243.5,
          "duration": "1.0"
        },
        {
          "pitch": 50,
          "velocity": 75,
          "start": 243.5,
          "duration": "1.0"
        },
        {
          "pitch": 57,
          "velocity": 80,
          "start": 244.5,
          "duration": "1.0"
        },
        {
          "pitch": 50,
          "velocity": 80,
          "start": 244.5,
          "duration": "1.0"
        },
        {
          "pitch": 57,
          "velocity": 75,
          "start": 245.5,
          "duration": "1.0"
        },
        {
          "pitch": 50,
          "velocity": 75,
          "start": 245.5,
          "duration": "1.0"
        },
        {
          "pitch": 57,
          "velocity": 74,
          "start": 246.5,
          "duration": "0.5"
        },
        {
          "pitch": 50,
          "velocity": 74,
          "start": 246.5,
          "duration": "0.5"
        },
        {
          "pitch": 57,
          "velocity": 78,
          "start": 247.0,
          "duration": "1.0"
        },
        {
          "pitch": 50,
          "velocity": 78,
          "start": 247.0,
          "duration": "1.0"
        },
        {
          "pitch": 49,
          "velocity": 71,
          "start": 248.0,
          "duration": "1.0"
        },
        {
          "pitch": 56,
          "velocity": 71,
          "start": 248.0,
          "duration": "1.0"
        },
        {
          "pitch": 49,
          "velocity": 74,
          "start": 249.0,
          "duration": "1.0"
        },
        {
          "pitch": 56,
          "velocity": 74,
          "start": 249.0,
          "duration": "1.0"
        },
        {
          "pitch": 49,
          "velocity": 78,
          "start": 250.0,
          "duration": "0.5"
        },
        {
          "pitch": 56,
          "velocity": 78,
          "start": 250.0,
          "duration": "0.5"
        },
        {
          "pitch": 56,
          "velocity": 78,
          "start": 250.5,
          "duration": "1.0"
        },
        {
          "pitch": 49,
          "velocity": 78,
          "start": 250.5,
          "duration": "1.0"
        },
        {
          "pitch": 51,
          "velocity": 80,
          "start": 251.5,
          "duration": "1.0"
        },
        {
          "pitch": 58,
          "velocity": 80,
          "start": 251.5,
          "duration": "1.0"
        },
        {
          "pitch": 58,
          "velocity": 78,
          "start": 252.5,
          "duration": "1.0"
        },
        {
          "pitch": 51,
          "velocity": 78,
          "start": 252.5,
          "duration": "1.0"
        },
        {
          "pitch": 51,
          "velocity": 76,
          "start": 253.5,
          "duration": "1.0"
        },
        {
          "pitch": 58,
          "velocity": 76,
          "start": 253.5,
          "duration": "1.0"
        },
        {
          "pitch": 58,
          "velocity": 74,
          "start": 254.5,
          "duration": "0.5"
        },
        {
          "pitch": 51,
          "velocity": 74,
          "start": 254.5,
          "duration": "0.5"
        },
        {
          "pitch": 51,
          "velocity": 74,
          "start": 255.0,
          "duration": "1.0"
        },
        {
          "pitch": 58,
          "velocity": 74,
          "start": 255.0,
          "duration": "1.0"
        },
        {
          "pitch": 46,
          "velocity": 69,
          "start": 256.0,
          "duration": "1.0"
        },
        {
          "pitch": 53,
          "velocity": 69,
          "start": 256.0,
          "duration": "1.0"
        },
        {
          "pitch": 46,
          "velocity": 75,
          "start": 257.0,
          "duration": "1.0"
        },
        {
          "pitch": 53,
          "velocity": 75,
          "start": 257.0,
          "duration": "1.0"
        },
        {
          "pitch": 53,
          "velocity": 76,
          "start": 258.0,
          "duration": "0.5"
        },
        {
          "pitch": 46,
          "velocity": 76,
          "start": 258.0,
          "duration": "0.5"
        },
        {
          "pitch": 46,
          "velocity": 78,
          "start": 258.5,
          "duration": "1.0"
        },
        {
          "pitch": 53,
          "velocity": 78,
          "start": 258.5,
          "duration": "1.0"
        },
        {
          "pitch": 46,
          "velocity": 70,
          "start": 259.5,
          "duration": "1.0"
        },
        {
          "pitch": 53,
          "velocity": 70,
          "start": 259.5,
          "duration": "1.0"
        },
        {
          "pitch": 46,
          "velocity": 74,
          "start": 260.5,
          "duration": "1.0"
        },
        {
          "pitch": 53,
          "velocity": 74,
          "start": 260.5,
          "duration": "1.0"
        },
        {
          "pitch": 46,
          "velocity": 75,
          "start": 261.5,
          "duration": "1.0"
        },
        {
          "pitch": 53,
          "velocity": 75,
          "start": 261.5,
          "duration": "1.0"
        },
        {
          "pitch": 46,
          "velocity": 71,
          "start": 262.5,
          "duration": "0.5"
        },
        {
          "pitch": 53,
          "velocity": 71,
          "start": 262.5,
          "duration": "0.5"
        },
        {
          "pitch": 46,
          "velocity": 73,
          "start": 263.0,
          "duration": "1.0"
        },
        {
          "pitch": 53,
          "velocity": 73,
          "start": 263.0,
          "duration": "1.0"
        },
        {
          "pitch": 55,
          "velocity": 79,
          "start": 264.0,
          "duration": "1.0"
        },
        {
          "pitch": 48,
          "velocity": 79,
          "start": 264.0,
          "duration": "1.0"
        },
        {
          "pitch": 55,
          "velocity": 77,
          "start": 265.0,
          "duration": "1.0"
        },
        {
          "pitch": 48,
          "velocity": 77,
          "start": 265.0,
          "duration": "1.0"
        },
        {
          "pitch": 55,
          "velocity": 78,
          "start": 266.0,
          "duration": "0.5"
        },
        {
          "pitch": 48,
          "velocity": 78,
          "start": 266.0,
          "duration": "0.5"
        },
        {
          "pitch": 48,
          "velocity": 77,
          "start": 266.5,
          "duration": "1.0"
        },
        {
          "pitch": 55,
          "velocity": 77,
          "start": 266.5,
          "duration": "1.0"
        },
        {
          "pitch": 48,
          "velocity": 78,
          "start": 267.5,
          "duration": "1.0"
        },
        {
          "pitch": 55,
          "velocity": 78,
          "start": 267.5,
          "duration": "1.0"
        },
        {
          "pitch": 48,
          "velocity": 73,
          "start": 268.5,
          "duration": "1.0"
        },
        {
          "pitch": 55,
          "velocity": 73,
          "start": 268.5,
          "duration": "1.0"
        },
        {
          "pitch": 48,
          "velocity": 76,
          "start": 269.5,
          "duration": "1.0"
        },
        {
          "pitch": 55,
          "velocity": 76,
          "start": 269.5,
          "duration": "1.0"
        },
        {
          "pitch": 48,
          "velocity": 77,
          "start": 270.5,
          "duration": "0.5"
        },
        {
          "pitch": 55,
          "velocity": 77,
          "start": 270.5,
          "duration": "0.5"
        },
        {
          "pitch": 48,
          "velocity": 75,
          "start": 271.0,
          "duration": "1.0"
        },
        {
          "pitch": 55,
          "velocity": 75,
          "start": 271.0,
          "duration": "1.0"
        },
        {
          "pitch": 57,
          "velocity": 76,
          "start": 272.0,
          "duration": "1.0"
        },
        {
          "pitch": 50,
          "velocity": 76,
          "start": 272.0,
          "duration": "1.0"
        },
        {
          "pitch": 50,
          "velocity": 76,
          "start": 273.0,
          "duration": "1.0"
        },
        {
          "pitch": 57,
          "velocity": 76,
          "start": 273.0,
          "duration": "1.0"
        },
        {
          "pitch": 50,
          "velocity": 76,
          "start": 274.0,
          "duration": "0.5"
        },
        {
          "pitch": 57,
          "velocity": 76,
          "start": 274.0,
          "duration": "0.5"
        },
        {
          "pitch": 50,
          "velocity": 79,
          "start": 274.5,
          "duration": "1.0"
        },
        {
          "pitch": 57,
          "velocity": 79,
          "start": 274.5,
          "duration": "1.0"
        },
        {
          "pitch": 50,
          "velocity": 75,
          "start": 275.5,
          "duration": "1.0"
        },
        {
          "pitch": 57,
          "velocity": 75,
          "start": 275.5,
          "duration": "1.0"
        },
        {
          "pitch": 50,
          "velocity": 78,
          "start": 276.5,
          "duration": "1.0"
        },
        {
          "pitch": 57,
          "velocity": 78,
          "start": 276.5,
          "duration": "1.0"
        },
        {
          "pitch": 50,
          "velocity": 77,
          "start": 277.5,
          "duration": "1.0"
        },
        {
          "pitch": 57,
          "velocity": 77,
          "start": 277.5,
          "duration": "1.0"
        },
        {
          "pitch": 50,
          "velocity": 78,
          "start": 278.5,
          "duration": "0.5"
        },
        {
          "pitch": 57,
          "velocity": 78,
          "start": 278.5,
          "duration": "0.5"
        },
        {
          "pitch": 50,
          "velocity": 77,
          "start": 279.0,
          "duration": "1.0"
        },
        {
          "pitch": 57,
          "velocity": 77,
          "start": 279.0,
          "duration": "1.0"
        },
        {
          "pitch": 56,
          "velocity": 69,
          "start": 280.0,
          "duration": "1.0"
        },
        {
          "pitch": 49,
          "velocity": 69,
          "start": 280.0,
          "duration": "1.0"
        },
        {
          "pitch": 56,
          "velocity": 79,
          "start": 281.0,
          "duration": "1.0"
        },
        {
          "pitch": 49,
          "velocity": 79,
          "start": 281.0,
          "duration": "1.0"
        },
        {
          "pitch": 49,
          "velocity": 76,
          "start": 282.0,
          "duration": "0.5"
        },
        {
          "pitch": 56,
          "velocity": 76,
          "start": 282.0,
          "duration": "0.5"
        },
        {
          "pitch": 49,
          "velocity": 78,
          "start": 282.5,
          "duration": "1.0"
        },
        {
          "pitch": 56,
          "velocity": 78,
          "start": 282.5,
          "duration": "1.0"
        },
        {
          "pitch": 51,
          "velocity": 78,
          "start": 283.5,
          "duration": "1.0"
        },
        {
          "pitch": 58,
          "velocity": 78,
          "start": 283.5,
          "duration": "1.0"
        },
        {
          "pitch": 51,
          "velocity": 76,
          "start": 284.5,
          "duration": "1.0"
        },
        {
          "pitch": 58,
          "velocity": 76,
          "start": 284.5,
          "duration": "1.0"
        },
        {
          "pitch": 58,
          "velocity": 76,
          "start": 285.5,
          "duration": "1.0"
        },
        {
          "pitch": 51,
          "velocity": 76,
          "start": 285.5,
          "duration": "1.0"
        },
        {
          "pitch": 51,
          "velocity": 76,
          "start": 286.5,
          "duration": "0.5"
        },
        {
          "pitch": 58,
          "velocity": 76,
          "start": 286.5,
          "duration": "0.5"
        },
        {
          "pitch": 51,
          "velocity": 80,
          "start": 287.0,
          "duration": "1.0"
        },
        {
          "pitch": 58,
          "velocity": 80,
          "start": 287.0,
          "duration": "1.0"
        },
        {
          "pitch": 53,
          "velocity": 72,
          "start": 288.0,
          "duration": "1.0"
        },
        {
          "pitch": 46,
          "velocity": 72,
          "start": 288.0,
          "duration": "1.0"
        },
        {
          "pitch": 53,
          "velocity": 73,
          "start": 289.0,
          "duration": "1.0"
        },
        {
          "pitch": 46,
          "velocity": 73,
          "start": 289.0,
          "duration": "1.0"
        },
        {
          "pitch": 53,
          "velocity": 74,
          "start": 290.0,
          "duration": "0.5"
        },
        {
          "pitch": 46,
          "velocity": 74,
          "start": 290.0,
          "duration": "0.5"
        },
        {
          "pitch": 53,
          "velocity": 78,
          "start": 290.5,
          "duration": "1.0"
        },
        {
          "pitch": 46,
          "velocity": 78,
          "start": 290.5,
          "duration": "1.0"
        },
        {
          "pitch": 46,
          "velocity": 75,
          "start": 291.5,
          "duration": "1.0"
        },
        {
          "pitch": 53,
          "velocity": 75,
          "start": 291.5,
          "duration": "1.0"
        },
        {
          "pitch": 53,
          "velocity": 76,
          "start": 292.5,
          "duration": "1.0"
        },
        {
          "pitch": 46,
          "velocity": 76,
          "start": 292.5,
          "duration": "1.0"
        },
        {
          "pitch": 46,
          "velocity": 77,
          "start": 293.5,
          "duration": "1.0"
        },
        {
          "pitch": 53,
          "velocity": 77,
          "start": 293.5,
          "duration": "1.0"
        },
        {
          "pitch": 53,
          "velocity": 74,
          "start": 294.5,
          "duration": "0.5"
        },
        {
          "pitch": 46,
          "velocity": 74,
          "start": 294.5,
          "duration": "0.5"
        },
        {
          "pitch": 46,
          "velocity": 76,
          "start": 295.0,
          "duration": "1.0"
        },
        {
          "pitch": 53,
          "velocity": 76,
          "start": 295.0,
          "duration": "1.0"
        },
        {
          "pitch": 55,
          "velocity": 82,
          "start": 296.0,
          "duration": "1.0"
        },
        {
          "pitch": 48,
          "velocity": 82,
          "start": 296.0,
          "duration": "1.0"
        },
        {
          "pitch": 48,
          "velocity": 78,
          "start": 297.0,
          "duration": "1.0"
        },
        {
          "pitch": 55,
          "velocity": 78,
          "start": 297.0,
          "duration": "1.0"
        },
        {
          "pitch": 55,
          "velocity": 77,
          "start": 298.0,
          "duration": "0.5"
        },
        {
          "pitch": 48,
          "velocity": 77,
          "start": 298.0,
          "duration": "0.5"
        },
        {
          "pitch": 55,
          "velocity": 78,
          "start": 298.5,
          "duration": "1.0"
        },
        {
          "pitch": 48,
          "velocity": 78,
          "start": 298.5,
          "duration": "1.0"
        },
        {
          "pitch": 48,
          "velocity": 82,
          "start": 299.5,
          "duration": "1.0"
        },
        {
          "pitch": 55,
          "velocity": 82,
          "start": 299.5,
          "duration": "1.0"
        },
        {
          "pitch": 55,
          "velocity": 75,
          "start": 300.5,
          "duration": "1.0"
        },
        {
          "pitch": 48,
          "velocity": 75,
          "start": 300.5,
          "duration": "1.0"
        },
        {
          "pitch": 48,
          "velocity": 75,
          "start": 301.5,
          "duration": "1.0"
        },
        {
          "pitch": 55,
          "velocity": 75,
          "start": 301.5,
          "duration": "1.0"
        },
        {
          "pitch": 55,
          "velocity": 76,
          "start": 302.5,
          "duration": "0.5"
        },
        {
          "pitch": 48,
          "velocity": 76,
          "start": 302.5,
          "duration": "0.5"
        },
        {
          "pitch": 48,
          "velocity": 75,
          "start": 303.0,
          "duration": "1.0"
        },
        {
          "pitch": 55,
          "velocity": 75,
          "start": 303.0,
          "duration": "1.0"
        },
        {
          "pitch": 57,
          "velocity": 83,
          "start": 304.0,
          "duration": "1.0"
        },
        {
          "pitch": 50,
          "velocity": 83,
          "start": 304.0,
          "duration": "1.0"
        },
        {
          "pitch": 50,
          "velocity": 73,
          "start": 305.0,
          "duration": "1.0"
        },
        {
          "pitch": 57,
          "velocity": 73,
          "start": 305.0,
          "duration": "1.0"
        },
        {
          "pitch": 50,
          "velocity": 75,
          "start": 306.0,
          "duration": "0.5"
        },
        {
          "pitch": 57,
          "velocity": 75,
          "start": 306.0,
          "duration": "0.5"
        },
        {
          "pitch": 57,
          "velocity": 73,
          "start": 306.5,
          "duration": "1.0"
        },
        {
          "pitch": 50,
          "velocity": 73,
          "start": 306.5,
          "duration": "1.0"
        },
        {
          "pitch": 57,
          "velocity": 80,
          "start": 307.5,
          "duration": "1.0"
        },
        {
          "pitch": 50,
          "velocity": 80,
          "start": 307.5,
          "duration": "1.0"
        },
        {
          "pitch": 57,
          "velocity": 78,
          "start": 308.5,
          "duration": "1.0"
        },
        {
          "pitch": 50,
          "velocity": 78,
          "start": 308.5,
          "duration": "1.0"
        },
        {
          "pitch": 50,
          "velocity": 77,
          "start": 309.5,
          "duration": "1.0"
        },
        {
          "pitch": 57,
          "velocity": 77,
          "start": 309.5,
          "duration": "1.0"
        },
        {
          "pitch": 57,
          "velocity": 80,
          "start": 310.5,
          "duration": "0.5"
        },
        {
          "pitch": 50,
          "velocity": 80,
          "start": 310.5,
          "duration": "0.5"
        },
        {
          "pitch": 50,
          "velocity": 75,
          "start": 311.0,
          "duration": "1.0"
        },
        {
          "pitch": 57,
          "velocity": 75,
          "start": 311.0,
          "duration": "1.0"
        },
        {
          "pitch": 49,
          "velocity": 78,
          "start": 312.0,
          "duration": "1.0"
        },
        {
          "pitch": 56,
          "velocity": 78,
          "start": 312.0,
          "duration": "1.0"
        },
        {
          "pitch": 49,
          "velocity": 75,
          "start": 313.0,
          "duration": "1.0"
        },
        {
          "pitch": 56,
          "velocity": 75,
          "start": 313.0,
          "duration": "1.0"
        },
        {
          "pitch": 49,
          "velocity": 74,
          "start": 314.0,
          "duration": "0.5"
        },
        {
          "pitch": 56,
          "velocity": 74,
          "start": 314.0,
          "duration": "0.5"
        },
        {
          "pitch": 56,
          "velocity": 78,
          "start": 314.5,
          "duration": "1.0"
        },
        {
          "pitch": 49,
          "velocity": 78,
          "start": 314.5,
          "duration": "1.0"
        },
        {
          "pitch": 51,
          "velocity": 81,
          "start": 315.5,
          "duration": "1.0"
        },
        {
          "pitch": 58,
          "velocity": 81,
          "start": 315.5,
          "duration": "1.0"
        },
        {
          "pitch": 51,
          "velocity": 73,
          "start": 316.5,
          "duration": "1.0"
        },
        {
          "pitch": 58,
          "velocity": 73,
          "start": 316.5,
          "duration": "1.0"
        },
        {
          "pitch": 58,
          "velocity": 72,
          "start": 317.5,
          "duration": "1.0"
        },
        {
          "pitch": 51,
          "velocity": 72,
          "start": 317.5,
          "duration": "1.0"
        },
        {
          "pitch": 51,
          "velocity": 75,
          "start": 318.5,
          "duration": "0.5"
        },
        {
          "pitch": 58,
          "velocity": 75,
          "start": 318.5,
          "duration": "0.5"
        },
        {
          "pitch": 51,
          "velocity": 75,
          "start": 319.0,
          "duration": "1.0"
        },
        {
          "pitch": 58,
          "velocity": 75,
          "start": 319.0,
          "duration": "1.0"
        },
        {
          "pitch": 53,
          "velocity": 78,
          "start": 320.0,
          "duration": "1.0"
        },
        {
          "pitch": 46,
          "velocity": 78,
          "start": 320.0,
          "duration": "1.0"
        },
        {
          "pitch": 46,
          "velocity": 75,
          "start": 321.0,
          "duration": "1.0"
        },
        {
          "pitch": 53,
          "velocity": 75,
          "start": 321.0,
          "duration": "1.0"
        },
        {
          "pitch": 46,
          "velocity": 74,
          "start": 322.0,
          "duration": "0.5"
        },
        {
          "pitch": 53,
          "velocity": 74,
          "start": 322.0,
          "duration": "0.5"
        },
        {
          "pitch": 46,
          "velocity": 74,
          "start": 322.5,
          "duration": "1.0"
        },
        {
          "pitch": 53,
          "velocity": 74,
          "start": 322.5,
          "duration": "1.0"
        },
        {
          "pitch": 53,
          "velocity": 73,
          "start": 323.5,
          "duration": "1.0"
        },
        {
          "pitch": 46,
          "velocity": 73,
          "start": 323.5,
          "duration": "1.0"
        },
        {
          "pitch": 53,
          "velocity": 73,
          "start": 324.5,
          "duration": "1.0"
        },
        {
          "pitch": 46,
          "velocity": 73,
          "start": 324.5,
          "duration": "1.0"
        },
        {
          "pitch": 53,
          "velocity": 75,
          "start": 325.5,
          "duration": "1.0"
        },
        {
          "pitch": 46,
          "velocity": 75,
          "start": 325.5,
          "duration": "1.0"
        },
        {
          "pitch": 53,
          "velocity": 75,
          "start": 326.5,
          "duration": "0.5"
        },
        {
          "pitch": 46,
          "velocity": 75,
          "start": 326.5,
          "duration": "0.5"
        },
        {
          "pitch": 53,
          "velocity": 79,
          "start": 327.0,
          "duration": "1.0"
        },
        {
          "pitch": 46,
          "velocity": 79,
          "start": 327.0,
          "duration": "1.0"
        },
        {
          "pitch": 55,
          "velocity": 77,
          "start": 328.0,
          "duration": "1.0"
        },
        {
          "pitch": 48,
          "velocity": 77,
          "start": 328.0,
          "duration": "1.0"
        },
        {
          "pitch": 48,
          "velocity": 75,
          "start": 329.0,
          "duration": "1.0"
        },
        {
          "pitch": 55,
          "velocity": 75,
          "start": 329.0,
          "duration": "1.0"
        },
        {
          "pitch": 55,
          "velocity": 78,
          "start": 330.0,
          "duration": "0.5"
        },
        {
          "pitch": 48,
          "velocity": 78,
          "start": 330.0,
          "duration": "0.5"
        },
        {
          "pitch": 55,
          "velocity": 76,
          "start": 330.5,
          "duration": "1.0"
        },
        {
          "pitch": 48,
          "velocity": 76,
          "start": 330.5,
          "duration": "1.0"
        },
        {
          "pitch": 55,
          "velocity": 75,
          "start": 331.5,
          "duration": "1.0"
        },
        {
          "pitch": 48,
          "velocity": 75,
          "start": 331.5,
          "duration": "1.0"
        },
        {
          "pitch": 55,
          "velocity": 75,
          "start": 332.5,
          "duration": "1.0"
        },
        {
          "pitch": 48,
          "velocity": 75,
          "start": 332.5,
          "duration": "1.0"
        },
        {
          "pitch": 55,
          "velocity": 71,
          "start": 333.5,
          "duration": "1.0"
        },
        {
          "pitch": 48,
          "velocity": 71,
          "start": 333.5,
          "duration": "1.0"
        },
        {
          "pitch": 55,
          "velocity": 75,
          "start": 334.5,
          "duration": "0.5"
        },
        {
          "pitch": 48,
          "velocity": 75,
          "start": 334.5,
          "duration": "0.5"
        },
        {
          "pitch": 55,
          "velocity": 77,
          "start": 335.0,
          "duration": "1.0"
        },
        {
          "pitch": 48,
          "velocity": 77,
          "start": 335.0,
          "duration": "1.0"
        },
        {
          "pitch": 55,
          "velocity": 77,
          "start": 336.0,
          "duration": "1.0"
        },
        {
          "pitch": 47,
          "velocity": 77,
          "start": 336.0,
          "duration": "1.0"
        },
        {
          "pitch": 55,
          "velocity": 77,
          "start": 337.0,
          "duration": "1.0"
        },
        {
          "pitch": 47,
          "velocity": 77,
          "start": 337.0,
          "duration": "1.0"
        },
        {
          "pitch": 55,
          "velocity": 76,
          "start": 338.0,
          "duration": "0.5"
        },
        {
          "pitch": 47,
          "velocity": 76,
          "start": 338.0,
          "duration": "0.5"
        },
        {
          "pitch": 47,
          "velocity": 76,
          "start": 338.5,
          "duration": "1.0"
        },
        {
          "pitch": 55,
          "velocity": 76,
          "start": 338.5,
          "duration": "1.0"
        },
        {
          "pitch": 55,
          "velocity": 76,
          "start": 339.5,
          "duration": "1.0"
        },
        {
          "pitch": 47,
          "velocity": 76,
          "start": 339.5,
          "duration": "1.0"
        },
        {
          "pitch": 47,
          "velocity": 76,
          "start": 340.5,
          "duration": "1.0"
        },
        {
          "pitch": 55,
          "velocity": 76,
          "start": 340.5,
          "duration": "1.0"
        },
        {
          "pitch": 55,
          "velocity": 78,
          "start": 341.5,
          "duration": "1.0"
        },
        {
          "pitch": 47,
          "velocity": 78,
          "start": 341.5,
          "duration": "1.0"
        },
        {
          "pitch": 47,
          "velocity": 74,
          "start": 342.5,
          "duration": "0.5"
        },
        {
          "pitch": 55,
          "velocity": 74,
          "start": 342.5,
          "duration": "0.5"
        },
        {
          "pitch": 47,
          "velocity": 77,
          "start": 343.0,
          "duration": "1.0"
        },
        {
          "pitch": 55,
          "velocity": 77,
          "start": 343.0,
          "duration": "1.0"
        },
        {
          "pitch": 47,
          "velocity": 78,
          "start": 344.0,
          "duration": "1.0"
        },
        {
          "pitch": 55,
          "velocity": 78,
          "start": 344.0,
          "duration": "1.0"
        },
        {
          "pitch": 47,
          "velocity": 72,
          "start": 345.0,
          "duration": "1.0"
        },
        {
          "pitch": 55,
          "velocity": 72,
          "start": 345.0,
          "duration": "1.0"
        },
        {
          "pitch": 47,
          "velocity": 71,
          "start": 346.0,
          "duration": "0.5"
        },
        {
          "pitch": 55,
          "velocity": 71,
          "start": 346.0,
          "duration": "0.5"
        },
        {
          "pitch": 55,
          "velocity": 75,
          "start": 346.5,
          "duration": "1.0"
        },
        {
          "pitch": 47,
          "velocity": 75,
          "start": 346.5,
          "duration": "1.0"
        },
        {
          "pitch": 55,
          "velocity": 78,
          "start": 347.5,
          "duration": "1.0"
        },
        {
          "pitch": 47,
          "velocity": 78,
          "start": 347.5,
          "duration": "1.0"
        },
        {
          "pitch": 55,
          "velocity": 78,
          "start": 348.5,
          "duration": "1.0"
        },
        {
          "pitch": 47,
          "velocity": 78,
          "start": 348.5,
          "duration": "1.0"
        },
        {
          "pitch": 55,
          "velocity": 73,
          "start": 349.5,
          "duration": "1.0"
        },
        {
          "pitch": 47,
          "velocity": 73,
          "start": 349.5,
          "duration": "1.0"
        },
        {
          "pitch": 55,
          "velocity": 78,
          "start": 350.5,
          "duration": "0.5"
        },
        {
          "pitch": 47,
          "velocity": 78,
          "start": 350.5,
          "duration": "0.5"
        },
        {
          "pitch": 55,
          "velocity": 77,
          "start": 351.0,
          "duration": "1.0"
        },
        {
          "pitch": 47,
          "velocity": 77,
          "start": 351.0,
          "duration": "1.0"
        },
        {
          "pitch": 53,
          "velocity": 73,
          "start": 352.0,
          "duration": "1.0"
        },
        {
          "pitch": 46,
          "velocity": 73,
          "start": 352.0,
          "duration": "1.0"
        },
        {
          "pitch": 46,
          "velocity": 77,
          "start": 353.0,
          "duration": "1.0"
        },
        {
          "pitch": 53,
          "velocity": 77,
          "start": 353.0,
          "duration": "1.0"
        },
        {
          "pitch": 46,
          "velocity": 78,
          "start": 354.0,
          "duration": "0.5"
        },
        {
          "pitch": 53,
          "velocity": 78,
          "start": 354.0,
          "duration": "0.5"
        },
        {
          "pitch": 53,
          "velocity": 78,
          "start": 354.5,
          "duration": "1.0"
        },
        {
          "pitch": 46,
          "velocity": 78,
          "start": 354.5,
          "duration": "1.0"
        },
        {
          "pitch": 53,
          "velocity": 70,
          "start": 355.5,
          "duration": "1.0"
        },
        {
          "pitch": 46,
          "velocity": 70,
          "start": 355.5,
          "duration": "1.0"
        },
        {
          "pitch": 53,
          "velocity": 83,
          "start": 356.5,
          "duration": "1.0"
        },
        {
          "pitch": 46,
          "velocity": 83,
          "start": 356.5,
          "duration": "1.0"
        },
        {
          "pitch": 53,
          "velocity": 73,
          "start": 357.5,
          "duration": "1.0"
        },
        {
          "pitch": 46,
          "velocity": 73,
          "start": 357.5,
          "duration": "1.0"
        },
        {
          "pitch": 53,
          "velocity": 77,
          "start": 358.5,
          "duration": "0.5"
        },
        {
          "pitch": 46,
          "velocity": 77,
          "start": 358.5,
          "duration": "0.5"
        },
        {
          "pitch": 53,
          "velocity": 73,
          "start": 359.0,
          "duration": "0.5"
        },
        {
          "pitch": 46,
          "velocity": 73,
          "start": 359.0,
          "duration": "0.5"
        },
        {
          "pitch": 53,
          "velocity": 79,
          "start": 359.5,
          "duration": "0.5"
        },
        {
          "pitch": 46,
          "velocity": 79,
          "start": 359.5,
          "duration": "0.5"
        },
        {
          "pitch": 48,
          "velocity": 81,
          "start": 360.0,
          "duration": "1.0"
        },
        {
          "pitch": 55,
          "velocity": 81,
          "start": 360.0,
          "duration": "1.0"
        },
        {
          "pitch": 48,
          "velocity": 77,
          "start": 361.0,
          "duration": "1.0"
        },
        {
          "pitch": 55,
          "velocity": 77,
          "start": 361.0,
          "duration": "1.0"
        },
        {
          "pitch": 48,
          "velocity": 75,
          "start": 362.0,
          "duration": "0.5"
        },
        {
          "pitch": 55,
          "velocity": 75,
          "start": 362.0,
          "duration": "0.5"
        },
        {
          "pitch": 55,
          "velocity": 78,
          "start": 362.5,
          "duration": "1.0"
        },
        {
          "pitch": 48,
          "velocity": 78,
          "start": 362.5,
          "duration": "1.0"
        },
        {
          "pitch": 55,
          "velocity": 81,
          "start": 363.5,
          "duration": "1.0"
        },
        {
          "pitch": 48,
          "velocity": 81,
          "start": 363.5,
          "duration": "1.0"
        },
        {
          "pitch": 55,
          "velocity": 79,
          "start": 364.5,
          "duration": "1.0"
        },
        {
          "pitch": 48,
          "velocity": 79,
          "start": 364.5,
          "duration": "1.0"
        },
        {
          "pitch": 55,
          "velocity": 76,
          "start": 365.5,
          "duration": "1.0"
        },
        {
          "pitch": 48,
          "velocity": 76,
          "start": 365.5,
          "duration": "1.0"
        },
        {
          "pitch": 55,
          "velocity": 80,
          "start": 366.5,
          "duration": "0.5"
        },
        {
          "pitch": 48,
          "velocity": 80,
          "start": 366.5,
          "duration": "0.5"
        },
        {
          "pitch": 55,
          "velocity": 78,
          "start": 367.0,
          "duration": "1.0"
        },
        {
          "pitch": 48,
          "velocity": 78,
          "start": 367.0,
          "duration": "1.0"
        },
        {
          "pitch": 50,
          "velocity": 77,
          "start": 368.0,
          "duration": "1.0"
        },
        {
          "pitch": 57,
          "velocity": 77,
          "start": 368.0,
          "duration": "1.0"
        },
        {
          "pitch": 57,
          "velocity": 75,
          "start": 369.0,
          "duration": "1.0"
        },
        {
          "pitch": 50,
          "velocity": 75,
          "start": 369.0,
          "duration": "1.0"
        },
        {
          "pitch": 50,
          "velocity": 77,
          "start": 370.0,
          "duration": "0.5"
        },
        {
          "pitch": 57,
          "velocity": 77,
          "start": 370.0,
          "duration": "0.5"
        },
        {
          "pitch": 57,
          "velocity": 75,
          "start": 370.5,
          "duration": "1.0"
        },
        {
          "pitch": 50,
          "velocity": 75,
          "start": 370.5,
          "duration": "1.0"
        },
        {
          "pitch": 50,
          "velocity": 80,
          "start": 371.5,
          "duration": "1.0"
        },
        {
          "pitch": 57,
          "velocity": 80,
          "start": 371.5,
          "duration": "1.0"
        },
        {
          "pitch": 57,
          "velocity": 73,
          "start": 372.5,
          "duration": "1.0"
        },
        {
          "pitch": 50,
          "velocity": 73,
          "start": 372.5,
          "duration": "1.0"
        },
        {
          "pitch": 50,
          "velocity": 76,
          "start": 373.5,
          "duration": "1.0"
        },
        {
          "pitch": 57,
          "velocity": 76,
          "start": 373.5,
          "duration": "1.0"
        },
        {
          "pitch": 57,
          "velocity": 69,
          "start": 374.5,
          "duration": "0.5"
        },
        {
          "pitch": 50,
          "velocity": 69,
          "start": 374.5,
          "duration": "0.5"
        },
        {
          "pitch": 50,
          "velocity": 75,
          "start": 375.0,
          "duration": "1.0"
        },
        {
          "pitch": 57,
          "velocity": 75,
          "start": 375.0,
          "duration": "1.0"
        },
        {
          "pitch": 50,
          "velocity": 77,
          "start": 376.0,
          "duration": "1.0"
        },
        {
          "pitch": 57,
          "velocity": 77,
          "start": 376.0,
          "duration": "1.0"
        },
        {
          "pitch": 57,
          "velocity": 78,
          "start": 377.0,
          "duration": "1.0"
        },
        {
          "pitch": 50,
          "velocity": 78,
          "start": 377.0,
          "duration": "1.0"
        },
        {
          "pitch": 50,
          "velocity": 73,
          "start": 378.0,
          "duration": "0.5"
        },
        {
          "pitch": 57,
          "velocity": 73,
          "start": 378.0,
          "duration": "0.5"
        },
        {
          "pitch": 57,
          "velocity": 76,
          "start": 378.5,
          "duration": "1.0"
        },
        {
          "pitch": 50,
          "velocity": 76,
          "start": 378.5,
          "duration": "1.0"
        },
        {
          "pitch": 50,
          "velocity": 79,
          "start": 379.5,
          "duration": "1.0"
        },
        {
          "pitch": 57,
          "velocity": 79,
          "start": 379.5,
          "duration": "1.0"
        },
        {
          "pitch": 57,
          "velocity": 75,
          "start": 380.5,
          "duration": "1.0"
        },
        {
          "pitch": 50,
          "velocity": 75,
          "start": 380.5,
          "duration": "1.0"
        },
        {
          "pitch": 50,
          "velocity": 75,
          "start": 381.5,
          "duration": "1.0"
        },
        {
          "pitch": 57,
          "velocity": 75,
          "start": 381.5,
          "duration": "1.0"
        },
        {
          "pitch": 57,
          "velocity": 76,
          "start": 382.5,
          "duration": "0.5"
        },
        {
          "pitch": 50,
          "velocity": 76,
          "start": 382.5,
          "duration": "0.5"
        },
        {
          "pitch": 50,
          "velocity": 78,
          "start": 383.0,
          "duration": "1.0"
        },
        {
          "pitch": 57,
          "velocity": 78,
          "start": 383.0,
          "duration": "1.0"
        },
        {
          "pitch": 46,
          "velocity": 74,
          "start": 384.0,
          "duration": "1.0"
        },
        {
          "pitch": 53,
          "velocity": 74,
          "start": 384.0,
          "duration": "1.0"
        },
        {
          "pitch": 46,
          "velocity": 73,
          "start": 385.0,
          "duration": "1.0"
        },
        {
          "pitch": 53,
          "velocity": 73,
          "start": 385.0,
          "duration": "1.0"
        },
        {
          "pitch": 53,
          "velocity": 77,
          "start": 386.0,
          "duration": "0.5"
        },
        {
          "pitch": 46,
          "velocity": 77,
          "start": 386.0,
          "duration": "0.5"
        },
        {
          "pitch": 46,
          "velocity": 75,
          "start": 386.5,
          "duration": "1.0"
        },
        {
          "pitch": 53,
          "velocity": 75,
          "start": 386.5,
          "duration": "1.0"
        },
        {
          "pitch": 46,
          "velocity": 78,
          "start": 387.5,
          "duration": "1.0"
        },
        {
          "pitch": 53,
          "velocity": 78,
          "start": 387.5,
          "duration": "1.0"
        },
        {
          "pitch": 46,
          "velocity": 72,
          "start": 388.5,
          "duration": "1.0"
        },
        {
          "pitch": 53,
          "velocity": 72,
          "start": 388.5,
          "duration": "1.0"
        },
        {
          "pitch": 46,
          "velocity": 78,
          "start": 389.5,
          "duration": "1.0"
        },
        {
          "pitch": 53,
          "velocity": 78,
          "start": 389.5,
          "duration": "1.0"
        },
        {
          "pitch": 46,
          "velocity": 71,
          "start": 390.5,
          "duration": "0.5"
        },
        {
          "pitch": 53,
          "velocity": 71,
          "start": 390.5,
          "duration": "0.5"
        },
        {
          "pitch": 46,
          "velocity": 76,
          "start": 391.0,
          "duration": "1.0"
        },
        {
          "pitch": 53,
          "velocity": 76,
          "start": 391.0,
          "duration": "1.0"
        },
        {
          "pitch": 55,
          "velocity": 83,
          "start": 392.0,
          "duration": "1.0"
        },
        {
          "pitch": 48,
          "velocity": 83,
          "start": 392.0,
          "duration": "1.0"
        },
        {
          "pitch": 48,
          "velocity": 75,
          "start": 393.0,
          "duration": "1.0"
        },
        {
          "pitch": 55,
          "velocity": 75,
          "start": 393.0,
          "duration": "1.0"
        },
        {
          "pitch": 55,
          "velocity": 72,
          "start": 394.0,
          "duration": "0.5"
        },
        {
          "pitch": 48,
          "velocity": 72,
          "start": 394.0,
          "duration": "0.5"
        },
        {
          "pitch": 48,
          "velocity": 75,
          "start": 394.5,
          "duration": "1.0"
        },
        {
          "pitch": 55,
          "velocity": 75,
          "start": 394.5,
          "duration": "1.0"
        },
        {
          "pitch": 48,
          "velocity": 77,
          "start": 395.5,
          "duration": "1.0"
        },
        {
          "pitch": 55,
          "velocity": 77,
          "start": 395.5,
          "duration": "1.0"
        },
        {
          "pitch": 48,
          "velocity": 74,
          "start": 396.5,
          "duration": "1.0"
        },
        {
          "pitch": 55,
          "velocity": 74,
          "start": 396.5,
          "duration": "1.0"
        },
        {
          "pitch": 48,
          "velocity": 77,
          "start": 397.5,
          "duration": "1.0"
        },
        {
          "pitch": 55,
          "velocity": 77,
          "start": 397.5,
          "duration": "1.0"
        },
        {
          "pitch": 48,
          "velocity": 73,
          "start": 398.5,
          "duration": "0.5"
        },
        {
          "pitch": 55,
          "velocity": 73,
          "start": 398.5,
          "duration": "0.5"
        },
        {
          "pitch": 48,
          "velocity": 78,
          "start": 399.0,
          "duration": "1.0"
        },
        {
          "pitch": 55,
          "velocity": 78,
          "start": 399.0,
          "duration": "1.0"
        },
        {
          "pitch": 55,
          "velocity": 75,
          "start": 400.0,
          "duration": "1.0"
        },
        {
          "pitch": 47,
          "velocity": 75,
          "start": 400.0,
          "duration": "1.0"
        },
        {
          "pitch": 55,
          "velocity": 77,
          "start": 401.0,
          "duration": "1.0"
        },
        {
          "pitch": 47,
          "velocity": 77,
          "start": 401.0,
          "duration": "1.0"
        },
        {
          "pitch": 47,
          "velocity": 80,
          "start": 402.0,
          "duration": "0.5"
        },
        {
          "pitch": 55,
          "velocity": 80,
          "start": 402.0,
          "duration": "0.5"
        },
        {
          "pitch": 55,
          "velocity": 76,
          "start": 402.5,
          "duration": "1.0"
        },
        {
          "pitch": 47,
          "velocity": 76,
          "start": 402.5,
          "duration": "1.0"
        },
        {
          "pitch": 55,
          "velocity": 73,
          "start": 403.5,
          "duration": "1.0"
        },
        {
          "pitch": 47,
          "velocity": 73,
          "start": 403.5,
          "duration": "1.0"
        },
        {
          "pitch": 55,
          "velocity": 77,
          "start": 404.5,
          "duration": "1.0"
        },
        {
          "pitch": 47,
          "velocity": 77,
          "start": 404.5,
          "duration": "1.0"
        },
        {
          "pitch": 55,
          "velocity": 74,
          "start": 405.5,
          "duration": "1.0"
        },
        {
          "pitch": 47,
          "velocity": 74,
          "start": 405.5,
          "duration": "1.0"
        },
        {
          "pitch": 47,
          "velocity": 78,
          "start": 406.5,
          "duration": "0.5"
        },
        {
          "pitch": 55,
          "velocity": 78,
          "start": 406.5,
          "duration": "0.5"
        },
        {
          "pitch": 55,
          "velocity": 73,
          "start": 407.0,
          "duration": "1.0"
        },
        {
          "pitch": 47,
          "velocity": 73,
          "start": 407.0,
          "duration": "1.0"
        },
        {
          "pitch": 47,
          "velocity": 75,
          "start": 408.0,
          "duration": "1.0"
        },
        {
          "pitch": 55,
          "velocity": 75,
          "start": 408.0,
          "duration": "1.0"
        },
        {
          "pitch": 47,
          "velocity": 77,
          "start": 409.0,
          "duration": "1.0"
        },
        {
          "pitch": 55,
          "velocity": 77,
          "start": 409.0,
          "duration": "1.0"
        },
        {
          "pitch": 55,
          "velocity": 80,
          "start": 410.0,
          "duration": "0.5"
        },
        {
          "pitch": 47,
          "velocity": 80,
          "start": 410.0,
          "duration": "0.5"
        },
        {
          "pitch": 55,
          "velocity": 76,
          "start": 410.5,
          "duration": "1.0"
        },
        {
          "pitch": 47,
          "velocity": 76,
          "start": 410.5,
          "duration": "1.0"
        },
        {
          "pitch": 55,
          "velocity": 73,
          "start": 411.5,
          "duration": "1.0"
        },
        {
          "pitch": 47,
          "velocity": 73,
          "start": 411.5,
          "duration": "1.0"
        },
        {
          "pitch": 55,
          "velocity": 77,
          "start": 412.5,
          "duration": "1.0"
        },
        {
          "pitch": 47,
          "velocity": 77,
          "start": 412.5,
          "duration": "1.0"
        },
        {
          "pitch": 55,
          "velocity": 74,
          "start": 413.5,
          "duration": "1.0"
        },
        {
          "pitch": 47,
          "velocity": 74,
          "start": 413.5,
          "duration": "1.0"
        },
        {
          "pitch": 47,
          "velocity": 78,
          "start": 414.5,
          "duration": "0.5"
        },
        {
          "pitch": 55,
          "velocity": 78,
          "start": 414.5,
          "duration": "0.5"
        },
        {
          "pitch": 55,
          "velocity": 73,
          "start": 415.0,
          "duration": "1.0"
        },
        {
          "pitch": 47,
          "velocity": 73,
          "start": 415.0,
          "duration": "1.0"
        },
        {
          "pitch": 53,
          "velocity": 79,
          "start": 416.0,
          "duration": "1.0"
        },
        {
          "pitch": 46,
          "velocity": 79,
          "start": 416.0,
          "duration": "1.0"
        },
        {
          "pitch": 53,
          "velocity": 75,
          "start": 417.0,
          "duration": "1.0"
        },
        {
          "pitch": 46,
          "velocity": 75,
          "start": 417.0,
          "duration": "1.0"
        },
        {
          "pitch": 46,
          "velocity": 78,
          "start": 418.0,
          "duration": "0.5"
        },
        {
          "pitch": 53,
          "velocity": 78,
          "start": 418.0,
          "duration": "0.5"
        },
        {
          "pitch": 46,
          "velocity": 75,
          "start": 418.5,
          "duration": "1.0"
        },
        {
          "pitch": 53,
          "velocity": 75,
          "start": 418.5,
          "duration": "1.0"
        },
        {
          "pitch": 53,
          "velocity": 75,
          "start": 419.5,
          "duration": "1.0"
        },
        {
          "pitch": 46,
          "velocity": 75,
          "start": 419.5,
          "duration": "1.0"
        },
        {
          "pitch": 46,
          "velocity": 79,
          "start": 420.5,
          "duration": "1.0"
        },
        {
          "pitch": 53,
          "velocity": 79,
          "start": 420.5,
          "duration": "1.0"
        },
        {
          "pitch": 53,
          "velocity": 76,
          "start": 421.5,
          "duration": "1.0"
        },
        {
          "pitch": 46,
          "velocity": 76,
          "start": 421.5,
          "duration": "1.0"
        },
        {
          "pitch": 46,
          "velocity": 75,
          "start": 422.5,
          "duration": "0.5"
        },
        {
          "pitch": 53,
          "velocity": 75,
          "start": 422.5,
          "duration": "0.5"
        },
        {
          "pitch": 46,
          "velocity": 73,
          "start": 423.0,
          "duration": "1.0"
        },
        {
          "pitch": 53,
          "velocity": 73,
          "start": 423.0,
          "duration": "1.0"
        },
        {
          "pitch": 48,
          "velocity": 78,
          "start": 424.0,
          "duration": "1.0"
        },
        {
          "pitch": 55,
          "velocity": 78,
          "start": 424.0,
          "duration": "1.0"
        },
        {
          "pitch": 55,
          "velocity": 77,
          "start": 425.0,
          "duration": "1.0"
        },
        {
          "pitch": 48,
          "velocity": 77,
          "start": 425.0,
          "duration": "1.0"
        },
        {
          "pitch": 48,
          "velocity": 71,
          "start": 426.0,
          "duration": "0.5"
        },
        {
          "pitch": 55,
          "velocity": 71,
          "start": 426.0,
          "duration": "0.5"
        },
        {
          "pitch": 48,
          "velocity": 79,
          "start": 426.5,
          "duration": "1.0"
        },
        {
          "pitch": 55,
          "velocity": 79,
          "start": 426.5,
          "duration": "1.0"
        },
        {
          "pitch": 55,
          "velocity": 80,
          "start": 427.5,
          "duration": "1.0"
        },
        {
          "pitch": 48,
          "velocity": 80,
          "start": 427.5,
          "duration": "1.0"
        },
        {
          "pitch": 48,
          "velocity": 74,
          "start": 428.5,
          "duration": "1.0"
        },
        {
          "pitch": 55,
          "velocity": 74,
          "start": 428.5,
          "duration": "1.0"
        },
        {
          "pitch": 55,
          "velocity": 75,
          "start": 429.5,
          "duration": "1.0"
        },
        {
          "pitch": 48,
          "velocity": 75,
          "start": 429.5,
          "duration": "1.0"
        },
        {
          "pitch": 48,
          "velocity": 75,
          "start": 430.5,
          "duration": "0.5"
        },
        {
          "pitch": 55,
          "velocity": 75,
          "start": 430.5,
          "duration": "0.5"
        },
        {
          "pitch": 48,
          "velocity": 74,
          "start": 431.0,
          "duration": "1.0"
        },
        {
          "pitch": 55,
          "velocity": 74,
          "start": 431.0,
          "duration": "1.0"
        },
        {
          "pitch": 62,
          "velocity": 83,
          "start": 432.0,
          "duration": "0.5"
        },
        {
          "pitch": 50,
          "velocity": 83,
          "start": 432.0,
          "duration": "0.5"
        },
        {
          "pitch": 57,
          "velocity": 83,
          "start": 432.0,
          "duration": "0.5"
        },
        {
          "pitch": 50,
          "velocity": 83,
          "start": 432.5,
          "duration": "0.5"
        },
        {
          "pitch": 62,
          "velocity": 83,
          "start": 432.5,
          "duration": "0.5"
        },
        {
          "pitch": 57,
          "velocity": 83,
          "start": 432.5,
          "duration": "0.5"
        },
        {
          "pitch": 62,
          "velocity": 83,
          "start": 440.0,
          "duration": "0.5"
        },
        {
          "pitch": 50,
          "velocity": 83,
          "start": 440.0,
          "duration": "0.5"
        },
        {
          "pitch": 57,
          "velocity": 83,
          "start": 440.0,
          "duration": "0.5"
        },
        {
          "pitch": 57,
          "velocity": 83,
          "start": 440.5,
          "duration": "0.5"
        },
        {
          "pitch": 62,
          "velocity": 83,
          "start": 440.5,
          "duration": "0.5"
        },
        {
          "pitch": 50,
          "velocity": 83,
          "start": 440.5,
          "duration": "0.5"
        },
        {
          "pitch": 50,
          "velocity": 74,
          "start": 444.5,
          "duration": "1.0"
        },
        {
          "pitch": 57,
          "velocity": 74,
          "start": 444.5,
          "duration": "1.0"
        },
        {
          "pitch": 50,
          "velocity": 75,
          "start": 445.5,
          "duration": "1.0"
        },
        {
          "pitch": 57,
          "velocity": 75,
          "start": 445.5,
          "duration": "1.0"
        },
        {
          "pitch": 50,
          "velocity": 75,
          "start": 446.5,
          "duration": "0.5"
        },
        {
          "pitch": 57,
          "velocity": 75,
          "start": 446.5,
          "duration": "0.5"
        },
        {
          "pitch": 57,
          "velocity": 74,
          "start": 447.0,
          "duration": "1.0"
        },
        {
          "pitch": 50,
          "velocity": 74,
          "start": 447.0,
          "duration": "1.0"
        },
        {
          "pitch": 46,
          "velocity": 71,
          "start": 448.0,
          "duration": "1.0"
        },
        {
          "pitch": 53,
          "velocity": 71,
          "start": 448.0,
          "duration": "1.0"
        },
        {
          "pitch": 53,
          "velocity": 79,
          "start": 449.0,
          "duration": "1.0"
        },
        {
          "pitch": 46,
          "velocity": 79,
          "start": 449.0,
          "duration": "1.0"
        },
        {
          "pitch": 53,
          "velocity": 78,
          "start": 450.0,
          "duration": "0.5"
        },
        {
          "pitch": 46,
          "velocity": 78,
          "start": 450.0,
          "duration": "0.5"
        },
        {
          "pitch": 46,
          "velocity": 78,
          "start": 450.5,
          "duration": "1.0"
        },
        {
          "pitch": 53,
          "velocity": 78,
          "start": 450.5,
          "duration": "1.0"
        },
        {
          "pitch": 53,
          "velocity": 78,
          "start": 451.5,
          "duration": "1.0"
        },
        {
          "pitch": 46,
          "velocity": 78,
          "start": 451.5,
          "duration": "1.0"
        },
        {
          "pitch": 46,
          "velocity": 75,
          "start": 452.5,
          "duration": "1.0"
        },
        {
          "pitch": 53,
          "velocity": 75,
          "start": 452.5,
          "duration": "1.0"
        },
        {
          "pitch": 53,
          "velocity": 75,
          "start": 453.5,
          "duration": "1.0"
        },
        {
          "pitch": 46,
          "velocity": 75,
          "start": 453.5,
          "duration": "1.0"
        },
        {
          "pitch": 46,
          "velocity": 80,
          "start": 454.5,
          "duration": "0.5"
        },
        {
          "pitch": 53,
          "velocity": 80,
          "start": 454.5,
          "duration": "0.5"
        },
        {
          "pitch": 53,
          "velocity": 76,
          "start": 455.0,
          "duration": "1.0"
        },
        {
          "pitch": 46,
          "velocity": 76,
          "start": 455.0,
          "duration": "1.0"
        },
        {
          "pitch": 48,
          "velocity": 77,
          "start": 456.0,
          "duration": "1.0"
        },
        {
          "pitch": 55,
          "velocity": 77,
          "start": 456.0,
          "duration": "1.0"
        },
        {
          "pitch": 55,
          "velocity": 74,
          "start": 457.0,
          "duration": "1.0"
        },
        {
          "pitch": 48,
          "velocity": 74,
          "start": 457.0,
          "duration": "1.0"
        },
        {
          "pitch": 55,
          "velocity": 78,
          "start": 458.0,
          "duration": "0.5"
        },
        {
          "pitch": 48,
          "velocity": 78,
          "start": 458.0,
          "duration": "0.5"
        },
        {
          "pitch": 48,
          "velocity": 75,
          "start": 458.5,
          "duration": "1.0"
        },
        {
          "pitch": 55,
          "velocity": 75,
          "start": 458.5,
          "duration": "1.0"
        },
        {
          "pitch": 55,
          "velocity": 73,
          "start": 459.5,
          "duration": "1.0"
        },
        {
          "pitch": 48,
          "velocity": 73,
          "start": 459.5,
          "duration": "1.0"
        },
        {
          "pitch": 48,
          "velocity": 74,
          "start": 460.5,
          "duration": "1.0"
        },
        {
          "pitch": 55,
          "velocity": 74,
          "start": 460.5,
          "duration": "1.0"
        },
        {
          "pitch": 55,
          "velocity": 78,
          "start": 461.5,
          "duration": "1.0"
        },
        {
          "pitch": 48,
          "velocity": 78,
          "start": 461.5,
          "duration": "1.0"
        },
        {
          "pitch": 48,
          "velocity": 76,
          "start": 462.5,
          "duration": "0.5"
        },
        {
          "pitch": 55,
          "velocity": 76,
          "start": 462.5,
          "duration": "0.5"
        },
        {
          "pitch": 55,
          "velocity": 78,
          "start": 463.0,
          "duration": "1.0"
        },
        {
          "pitch": 48,
          "velocity": 78,
          "start": 463.0,
          "duration": "1.0"
        },
        {
          "pitch": 50,
          "velocity": 85,
          "start": 464.0,
          "duration": "1.0"
        },
        {
          "pitch": 57,
          "velocity": 85,
          "start": 464.0,
          "duration": "1.0"
        },
        {
          "pitch": 57,
          "velocity": 75,
          "start": 465.0,
          "duration": "1.0"
        },
        {
          "pitch": 50,
          "velocity": 75,
          "start": 465.0,
          "duration": "1.0"
        },
        {
          "pitch": 57,
          "velocity": 72,
          "start": 466.0,
          "duration": "0.5"
        },
        {
          "pitch": 50,
          "velocity": 72,
          "start": 466.0,
          "duration": "0.5"
        },
        {
          "pitch": 50,
          "velocity": 76,
          "start": 466.5,
          "duration": "1.0"
        },
        {
          "pitch": 57,
          "velocity": 76,
          "start": 466.5,
          "duration": "1.0"
        },
        {
          "pitch": 56,
          "velocity": 72,
          "start": 467.5,
          "duration": "1.0"
        },
        {
          "pitch": 49,
          "velocity": 72,
          "start": 467.5,
          "duration": "1.0"
        },
        {
          "pitch": 49,
          "velocity": 81,
          "start": 468.5,
          "duration": "1.0"
        },
        {
          "pitch": 56,
          "velocity": 81,
          "start": 468.5,
          "duration": "1.0"
        },
        {
          "pitch": 56,
          "velocity": 81,
          "start": 469.5,
          "duration": "1.0"
        },
        {
          "pitch": 49,
          "velocity": 81,
          "start": 469.5,
          "duration": "1.0"
        },
        {
          "pitch": 49,
          "velocity": 75,
          "start": 470.5,
          "duration": "0.5"
        },
        {
          "pitch": 56,
          "velocity": 75,
          "start": 470.5,
          "duration": "0.5"
        },
        {
          "pitch": 56,
          "velocity": 79,
          "start": 471.0,
          "duration": "1.0"
        },
        {
          "pitch": 49,
          "velocity": 79,
          "start": 471.0,
          "duration": "1.0"
        },
        {
          "pitch": 48,
          "velocity": 76,
          "start": 472.0,
          "duration": "1.0"
        },
        {
          "pitch": 55,
          "velocity": 76,
          "start": 472.0,
          "duration": "1.0"
        },
        {
          "pitch": 55,
          "velocity": 75,
          "start": 473.0,
          "duration": "1.0"
        },
        {
          "pitch": 48,
          "velocity": 75,
          "start": 473.0,
          "duration": "1.0"
        },
        {
          "pitch": 55,
          "velocity": 75,
          "start": 474.0,
          "duration": "0.5"
        },
        {
          "pitch": 48,
          "velocity": 75,
          "start": 474.0,
          "duration": "0.5"
        },
        {
          "pitch": 48,
          "velocity": 75,
          "start": 474.5,
          "duration": "1.0"
        },
        {
          "pitch": 55,
          "velocity": 75,
          "start": 474.5,
          "duration": "1.0"
        },
        {
          "pitch": 47,
          "velocity": 74,
          "start": 475.5,
          "duration": "1.0"
        },
        {
          "pitch": 55,
          "velocity": 74,
          "start": 475.5,
          "duration": "1.0"
        },
        {
          "pitch": 47,
          "velocity": 77,
          "start": 476.5,
          "duration": "1.0"
        },
        {
          "pitch": 55,
          "velocity": 77,
          "start": 476.5,
          "duration": "1.0"
        },
        {
          "pitch": 55,
          "velocity": 76,
          "start": 477.5,
          "duration": "1.0"
        },
        {
          "pitch": 47,
          "velocity": 76,
          "start": 477.5,
          "duration": "1.0"
        },
        {
          "pitch": 47,
          "velocity": 77,
          "start": 478.5,
          "duration": "0.5"
        },
        {
          "pitch": 55,
          "velocity": 77,
          "start": 478.5,
          "duration": "0.5"
        },
        {
          "pitch": 55,
          "velocity": 74,
          "start": 479.0,
          "duration": "1.0"
        },
        {
          "pitch": 47,
          "velocity": 74,
          "start": 479.0,
          "duration": "1.0"
        },
        {
          "pitch": 46,
          "velocity": 77,
          "start": 480.0,
          "duration": "1.0"
        },
        {
          "pitch": 53,
          "velocity": 77,
          "start": 480.0,
          "duration": "1.0"
        },
        {
          "pitch": 53,
          "velocity": 75,
          "start": 481.0,
          "duration": "1.0"
        },
        {
          "pitch": 46,
          "velocity": 75,
          "start": 481.0,
          "duration": "1.0"
        },
        {
          "pitch": 53,
          "velocity": 78,
          "start": 482.0,
          "duration": "0.5"
        },
        {
          "pitch": 46,
          "velocity": 78,
          "start": 482.0,
          "duration": "0.5"
        },
        {
          "pitch": 46,
          "velocity": 75,
          "start": 482.5,
          "duration": "1.0"
        },
        {
          "pitch": 53,
          "velocity": 75,
          "start": 482.5,
          "duration": "1.0"
        },
        {
          "pitch": 53,
          "velocity": 79,
          "start": 483.5,
          "duration": "1.0"
        },
        {
          "pitch": 46,
          "velocity": 79,
          "start": 483.5,
          "duration": "1.0"
        },
        {
          "pitch": 46,
          "velocity": 80,
          "start": 484.5,
          "duration": "1.0"
        },
        {
          "pitch": 53,
          "velocity": 80,
          "start": 484.5,
          "duration": "1.0"
        },
        {
          "pitch": 53,
          "velocity": 75,
          "start": 485.5,
          "duration": "1.0"
        },
        {
          "pitch": 46,
          "velocity": 75,
          "start": 485.5,
          "duration": "1.0"
        },
        {
          "pitch": 46,
          "velocity": 77,
          "start": 486.5,
          "duration": "0.5"
        },
        {
          "pitch": 53,
          "velocity": 77,
          "start": 486.5,
          "duration": "0.5"
        },
        {
          "pitch": 53,
          "velocity": 81,
          "start": 487.0,
          "duration": "1.0"
        },
        {
          "pitch": 46,
          "velocity": 81,
          "start": 487.0,
          "duration": "1.0"
        },
        {
          "pitch": 48,
          "velocity": 78,
          "start": 488.0,
          "duration": "1.0"
        },
        {
          "pitch": 55,
          "velocity": 78,
          "start": 488.0,
          "duration": "1.0"
        },
        {
          "pitch": 55,
          "velocity": 77,
          "start": 489.0,
          "duration": "1.0"
        },
        {
          "pitch": 48,
          "velocity": 77,
          "start": 489.0,
          "duration": "1.0"
        },
        {
          "pitch": 55,
          "velocity": 74,
          "start": 490.0,
          "duration": "0.5"
        },
        {
          "pitch": 48,
          "velocity": 74,
          "start": 490.0,
          "duration": "0.5"
        },
        {
          "pitch": 48,
          "velocity": 81,
          "start": 490.5,
          "duration": "1.0"
        },
        {
          "pitch": 55,
          "velocity": 81,
          "start": 490.5,
          "duration": "1.0"
        },
        {
          "pitch": 55,
          "velocity": 76,
          "start": 491.5,
          "duration": "1.0"
        },
        {
          "pitch": 48,
          "velocity": 76,
          "start": 491.5,
          "duration": "1.0"
        },
        {
          "pitch": 48,
          "velocity": 78,
          "start": 492.5,
          "duration": "1.0"
        },
        {
          "pitch": 55,
          "velocity": 78,
          "start": 492.5,
          "duration": "1.0"
        },
        {
          "pitch": 55,
          "velocity": 73,
          "start": 493.5,
          "duration": "1.0"
        },
        {
          "pitch": 48,
          "velocity": 73,
          "start": 493.5,
          "duration": "1.0"
        },
        {
          "pitch": 48,
          "velocity": 79,
          "start": 494.5,
          "duration": "0.5"
        },
        {
          "pitch": 55,
          "velocity": 79,
          "start": 494.5,
          "duration": "0.5"
        },
        {
          "pitch": 55,
          "velocity": 78,
          "start": 495.0,
          "duration": "1.0"
        },
        {
          "pitch": 48,
          "velocity": 78,
          "start": 495.0,
          "duration": "1.0"
        },
        {
          "pitch": 50,
          "velocity": 76,
          "start": 496.0,
          "duration": "1.0"
        },
        {
          "pitch": 57,
          "velocity": 76,
          "start": 496.0,
          "duration": "1.0"
        },
        {
          "pitch": 57,
          "velocity": 74,
          "start": 497.0,
          "duration": "1.0"
        },
        {
          "pitch": 50,
          "velocity": 74,
          "start": 497.0,
          "duration": "1.0"
        },
        {
          "pitch": 57,
          "velocity": 82,
          "start": 498.0,
          "duration": "0.5"
        },
        {
          "pitch": 50,
          "velocity": 82,
          "start": 498.0,
          "duration": "0.5"
        },
        {
          "pitch": 50,
          "velocity": 78,
          "start": 498.5,
          "duration": "1.0"
        },
        {
          "pitch": 57,
          "velocity": 78,
          "start": 498.5,
          "duration": "1.0"
        },
        {
          "pitch": 57,
          "velocity": 80,
          "start": 499.5,
          "duration": "1.0"
        },
        {
          "pitch": 50,
          "velocity": 80,
          "start": 499.5,
          "duration": "1.0"
        },
        {
          "pitch": 50,
          "velocity": 75,
          "start": 500.5,
          "duration": "1.0"
        },
        {
          "pitch": 57,
          "velocity": 75,
          "start": 500.5,
          "duration": "1.0"
        },
        {
          "pitch": 57,
          "velocity": 79,
          "start": 501.5,
          "duration": "1.0"
        },
        {
          "pitch": 50,
          "velocity": 79,
          "start": 501.5,
          "duration": "1.0"
        },
        {
          "pitch": 50,
          "velocity": 77,
          "start": 502.5,
          "duration": "0.5"
        },
        {
          "pitch": 57,
          "velocity": 77,
          "start": 502.5,
          "duration": "0.5"
        },
        {
          "pitch": 57,
          "velocity": 71,
          "start": 503.0,
          "duration": "1.0"
        },
        {
          "pitch": 50,
          "velocity": 71,
          "start": 503.0,
          "duration": "1.0"
        },
        {
          "pitch": 50,
          "velocity": 78,
          "start": 504.0,
          "duration": "1.0"
        },
        {
          "pitch": 57,
          "velocity": 78,
          "start": 504.0,
          "duration": "1.0"
        },
        {
          "pitch": 57,
          "velocity": 78,
          "start": 505.0,
          "duration": "1.0"
        },
        {
          "pitch": 50,
          "velocity": 78,
          "start": 505.0,
          "duration": "1.0"
        },
        {
          "pitch": 57,
          "velocity": 78,
          "start": 506.0,
          "duration": "0.5"
        },
        {
          "pitch": 50,
          "velocity": 78,
          "start": 506.0,
          "duration": "0.5"
        },
        {
          "pitch": 50,
          "velocity": 79,
          "start": 506.5,
          "duration": "1.0"
        },
        {
          "pitch": 57,
          "velocity": 79,
          "start": 506.5,
          "duration": "1.0"
        },
        {
          "pitch": 50,
          "velocity": 77,
          "start": 507.5,
          "duration": "1.0"
        },
        {
          "pitch": 57,
          "velocity": 77,
          "start": 507.5,
          "duration": "1.0"
        },
        {
          "pitch": 50,
          "velocity": 75,
          "start": 508.5,
          "duration": "1.0"
        },
        {
          "pitch": 57,
          "velocity": 75,
          "start": 508.5,
          "duration": "1.0"
        },
        {
          "pitch": 50,
          "velocity": 74,
          "start": 509.5,
          "duration": "1.0"
        },
        {
          "pitch": 57,
          "velocity": 74,
          "start": 509.5,
          "duration": "1.0"
        },
        {
          "pitch": 50,
          "velocity": 76,
          "start": 510.5,
          "duration": "0.5"
        },
        {
          "pitch": 57,
          "velocity": 76,
          "start": 510.5,
          "duration": "0.5"
        },
        {
          "pitch": 57,
          "velocity": 72,
          "start": 511.0,
          "duration": "1.0"
        },
        {
          "pitch": 50,
          "velocity": 72,
          "start": 511.0,
          "duration": "1.0"
        },
        {
          "pitch": 46,
          "velocity": 74,
          "start": 512.0,
          "duration": "1.0"
        },
        {
          "pitch": 53,
          "velocity": 74,
          "start": 512.0,
          "duration": "1.0"
        },
        {
          "pitch": 53,
          "velocity": 75,
          "start": 513.0,
          "duration": "1.0"
        },
        {
          "pitch": 46,
          "velocity": 75,
          "start": 513.0,
          "duration": "1.0"
        },
        {
          "pitch": 53,
          "velocity": 72,
          "start": 514.0,
          "duration": "0.5"
        },
        {
          "pitch": 46,
          "velocity": 72,
          "start": 514.0,
          "duration": "0.5"
        },
        {
          "pitch": 46,
          "velocity": 77,
          "start": 514.5,
          "duration": "1.0"
        },
        {
          "pitch": 53,
          "velocity": 77,
          "start": 514.5,
          "duration": "1.0"
        },
        {
          "pitch": 53,
          "velocity": 79,
          "start": 515.5,
          "duration": "1.0"
        },
        {
          "pitch": 46,
          "velocity": 79,
          "start": 515.5,
          "duration": "1.0"
        },
        {
          "pitch": 46,
          "velocity": 78,
          "start": 516.5,
          "duration": "1.0"
        },
        {
          "pitch": 53,
          "velocity": 78,
          "start": 516.5,
          "duration": "1.0"
        },
        {
          "pitch": 53,
          "velocity": 77,
          "start": 517.5,
          "duration": "1.0"
        },
        {
          "pitch": 46,
          "velocity": 77,
          "start": 517.5,
          "duration": "1.0"
        },
        {
          "pitch": 46,
          "velocity": 73,
          "start": 518.5,
          "duration": "0.5"
        },
        {
          "pitch": 53,
          "velocity": 73,
          "start": 518.5,
          "duration": "0.5"
        },
        {
          "pitch": 53,
          "velocity": 82,
          "start": 519.0,
          "duration": "1.0"
        },
        {
          "pitch": 46,
          "velocity": 82,
          "start": 519.0,
          "duration": "1.0"
        },
        {
          "pitch": 48,
          "velocity": 79,
          "start": 520.0,
          "duration": "1.0"
        },
        {
          "pitch": 55,
          "velocity": 79,
          "start": 520.0,
          "duration": "1.0"
        },
        {
          "pitch": 55,
          "velocity": 71,
          "start": 521.0,
          "duration": "1.0"
        },
        {
          "pitch": 48,
          "velocity": 71,
          "start": 521.0,
          "duration": "1.0"
        },
        {
          "pitch": 55,
          "velocity": 80,
          "start": 522.0,
          "duration": "0.5"
        },
        {
          "pitch": 48,
          "velocity": 80,
          "start": 522.0,
          "duration": "0.5"
        },
        {
          "pitch": 48,
          "velocity": 73,
          "start": 522.5,
          "duration": "1.0"
        },
        {
          "pitch": 55,
          "velocity": 73,
          "start": 522.5,
          "duration": "1.0"
        },
        {
          "pitch": 55,
          "velocity": 76,
          "start": 523.5,
          "duration": "1.0"
        },
        {
          "pitch": 48,
          "velocity": 76,
          "start": 523.5,
          "duration": "1.0"
        },
        {
          "pitch": 48,
          "velocity": 78,
          "start": 524.5,
          "duration": "1.0"
        },
        {
          "pitch": 55,
          "velocity": 78,
          "start": 524.5,
          "duration": "1.0"
        },
        {
          "pitch": 55,
          "velocity": 76,
          "start": 525.5,
          "duration": "1.0"
        },
        {
          "pitch": 48,
          "velocity": 76,
          "start": 525.5,
          "duration": "1.0"
        },
        {
          "pitch": 48,
          "velocity": 75,
          "start": 526.5,
          "duration": "0.5"
        },
        {
          "pitch": 55,
          "velocity": 75,
          "start": 526.5,
          "duration": "0.5"
        },
        {
          "pitch": 55,
          "velocity": 77,
          "start": 527.0,
          "duration": "1.0"
        },
        {
          "pitch": 48,
          "velocity": 77,
          "start": 527.0,
          "duration": "1.0"
        },
        {
          "pitch": 50,
          "velocity": 78,
          "start": 528.0,
          "duration": "1.0"
        },
        {
          "pitch": 57,
          "velocity": 78,
          "start": 528.0,
          "duration": "1.0"
        },
        {
          "pitch": 57,
          "velocity": 74,
          "start": 529.0,
          "duration": "1.0"
        },
        {
          "pitch": 50,
          "velocity": 74,
          "start": 529.0,
          "duration": "1.0"
        },
        {
          "pitch": 57,
          "velocity": 78,
          "start": 530.0,
          "duration": "0.5"
        },
        {
          "pitch": 50,
          "velocity": 78,
          "start": 530.0,
          "duration": "0.5"
        },
        {
          "pitch": 50,
          "velocity": 77,
          "start": 530.5,
          "duration": "1.0"
        },
        {
          "pitch": 57,
          "velocity": 77,
          "start": 530.5,
          "duration": "1.0"
        },
        {
          "pitch": 56,
          "velocity": 75,
          "start": 531.5,
          "duration": "1.0"
        },
        {
          "pitch": 49,
          "velocity": 75,
          "start": 531.5,
          "duration": "1.0"
        },
        {
          "pitch": 49,
          "velocity": 80,
          "start": 532.5,
          "duration": "1.0"
        },
        {
          "pitch": 56,
          "velocity": 80,
          "start": 532.5,
          "duration": "1.0"
        },
        {
          "pitch": 56,
          "velocity": 74,
          "start": 533.5,
          "duration": "1.0"
        },
        {
          "pitch": 49,
          "velocity": 74,
          "start": 533.5,
          "duration": "1.0"
        },
        {
          "pitch": 49,
          "velocity": 78,
          "start": 534.5,
          "duration": "0.5"
        },
        {
          "pitch": 56,
          "velocity": 78,
          "start": 534.5,
          "duration": "0.5"
        },
        {
          "pitch": 56,
          "velocity": 79,
          "start": 535.0,
          "duration": "1.0"
        },
        {
          "pitch": 49,
          "velocity": 79,
          "start": 535.0,
          "duration": "1.0"
        },
        {
          "pitch": 48,
          "velocity": 74,
          "start": 536.0,
          "duration": "1.0"
        },
        {
          "pitch": 55,
          "velocity": 74,
          "start": 536.0,
          "duration": "1.0"
        },
        {
          "pitch": 55,
          "velocity": 77,
          "start": 537.0,
          "duration": "1.0"
        },
        {
          "pitch": 48,
          "velocity": 77,
          "start": 537.0,
          "duration": "1.0"
        },
        {
          "pitch": 55,
          "velocity": 77,
          "start": 538.0,
          "duration": "0.5"
        },
        {
          "pitch": 48,
          "velocity": 77,
          "start": 538.0,
          "duration": "0.5"
        },
        {
          "pitch": 48,
          "velocity": 75,
          "start": 538.5,
          "duration": "1.0"
        },
        {
          "pitch": 55,
          "velocity": 75,
          "start": 538.5,
          "duration": "1.0"
        },
        {
          "pitch": 47,
          "velocity": 72,
          "start": 539.5,
          "duration": "1.0"
        },
        {
          "pitch": 55,
          "velocity": 72,
          "start": 539.5,
          "duration": "1.0"
        },
        {
          "pitch": 47,
          "velocity": 76,
          "start": 540.5,
          "duration": "1.0"
        },
        {
          "pitch": 55,
          "velocity": 76,
          "start": 540.5,
          "duration": "1.0"
        },
        {
          "pitch": 55,
          "velocity": 76,
          "start": 541.5,
          "duration": "1.0"
        },
        {
          "pitch": 47,
          "velocity": 76,
          "start": 541.5,
          "duration": "1.0"
        },
        {
          "pitch": 47,
          "velocity": 78,
          "start": 542.5,
          "duration": "0.5"
        },
        {
          "pitch": 55,
          "velocity": 78,
          "start": 542.5,
          "duration": "0.5"
        },
        {
          "pitch": 55,
          "velocity": 75,
          "start": 543.0,
          "duration": "1.0"
        },
        {
          "pitch": 47,
          "velocity": 75,
          "start": 543.0,
          "duration": "1.0"
        },
        {
          "pitch": 46,
          "velocity": 75,
          "start": 544.0,
          "duration": "1.0"
        },
        {
          "pitch": 53,
          "velocity": 75,
          "start": 544.0,
          "duration": "1.0"
        },
        {
          "pitch": 53,
          "velocity": 78,
          "start": 545.0,
          "duration": "1.0"
        },
        {
          "pitch": 46,
          "velocity": 78,
          "start": 545.0,
          "duration": "1.0"
        },
        {
          "pitch": 53,
          "velocity": 75,
          "start": 546.0,
          "duration": "0.5"
        },
        {
          "pitch": 46,
          "velocity": 75,
          "start": 546.0,
          "duration": "0.5"
        },
        {
          "pitch": 46,
          "velocity": 76,
          "start": 546.5,
          "duration": "1.0"
        },
        {
          "pitch": 53,
          "velocity": 76,
          "start": 546.5,
          "duration": "1.0"
        },
        {
          "pitch": 53,
          "velocity": 73,
          "start": 547.5,
          "duration": "1.0"
        },
        {
          "pitch": 46,
          "velocity": 73,
          "start": 547.5,
          "duration": "1.0"
        },
        {
          "pitch": 46,
          "velocity": 75,
          "start": 548.5,
          "duration": "1.0"
        },
        {
          "pitch": 53,
          "velocity": 75,
          "start": 548.5,
          "duration": "1.0"
        },
        {
          "pitch": 53,
          "velocity": 75,
          "start": 549.5,
          "duration": "1.0"
        },
        {
          "pitch": 46,
          "velocity": 75,
          "start": 549.5,
          "duration": "1.0"
        },
        {
          "pitch": 46,
          "velocity": 76,
          "start": 550.5,
          "duration": "0.5"
        },
        {
          "pitch": 53,
          "velocity": 76,
          "start": 550.5,
          "duration": "0.5"
        },
        {
          "pitch": 53,
          "velocity": 76,
          "start": 551.0,
          "duration": "1.0"
        },
        {
          "pitch": 46,
          "velocity": 76,
          "start": 551.0,
          "duration": "1.0"
        },
        {
          "pitch": 48,
          "velocity": 78,
          "start": 552.0,
          "duration": "1.0"
        },
        {
          "pitch": 55,
          "velocity": 78,
          "start": 552.0,
          "duration": "1.0"
        },
        {
          "pitch": 55,
          "velocity": 71,
          "start": 553.0,
          "duration": "1.0"
        },
        {
          "pitch": 48,
          "velocity": 71,
          "start": 553.0,
          "duration": "1.0"
        },
        {
          "pitch": 55,
          "velocity": 74,
          "start": 554.0,
          "duration": "0.5"
        },
        {
          "pitch": 48,
          "velocity": 74,
          "start": 554.0,
          "duration": "0.5"
        },
        {
          "pitch": 48,
          "velocity": 82,
          "start": 554.5,
          "duration": "1.0"
        },
        {
          "pitch": 55,
          "velocity": 82,
          "start": 554.5,
          "duration": "1.0"
        },
        {
          "pitch": 55,
          "velocity": 78,
          "start": 555.5,
          "duration": "1.0"
        },
        {
          "pitch": 48,
          "velocity": 78,
          "start": 555.5,
          "duration": "1.0"
        },
        {
          "pitch": 48,
          "velocity": 80,
          "start": 556.5,
          "duration": "1.0"
        },
        {
          "pitch": 55,
          "velocity": 80,
          "start": 556.5,
          "duration": "1.0"
        },
        {
          "pitch": 55,
          "velocity": 76,
          "start": 557.5,
          "duration": "1.0"
        },
        {
          "pitch": 48,
          "velocity": 76,
          "start": 557.5,
          "duration": "1.0"
        },
        {
          "pitch": 48,
          "velocity": 77,
          "start": 558.5,
          "duration": "0.5"
        },
        {
          "pitch": 55,
          "velocity": 77,
          "start": 558.5,
          "duration": "0.5"
        },
        {
          "pitch": 55,
          "velocity": 74,
          "start": 559.0,
          "duration": "1.0"
        },
        {
          "pitch": 48,
          "velocity": 74,
          "start": 559.0,
          "duration": "1.0"
        },
        {
          "pitch": 57,
          "velocity": 75,
          "start": 560.0,
          "duration": "1.0"
        },
        {
          "pitch": 50,
          "velocity": 75,
          "start": 560.0,
          "duration": "1.0"
        },
        {
          "pitch": 57,
          "velocity": 75,
          "start": 561.0,
          "duration": "1.0"
        },
        {
          "pitch": 50,
          "velocity": 75,
          "start": 561.0,
          "duration": "1.0"
        },
        {
          "pitch": 57,
          "velocity": 72,
          "start": 562.0,
          "duration": "0.5"
        },
        {
          "pitch": 50,
          "velocity": 72,
          "start": 562.0,
          "duration": "0.5"
        },
        {
          "pitch": 50,
          "velocity": 70,
          "start": 562.5,
          "duration": "1.0"
        },
        {
          "pitch": 57,
          "velocity": 70,
          "start": 562.5,
          "duration": "1.0"
        },
        {
          "pitch": 57,
          "velocity": 80,
          "start": 563.5,
          "duration": "1.0"
        },
        {
          "pitch": 50,
          "velocity": 80,
          "start": 563.5,
          "duration": "1.0"
        },
        {
          "pitch": 50,
          "velocity": 79,
          "start": 564.5,
          "duration": "1.0"
        },
        {
          "pitch": 57,
          "velocity": 79,
          "start": 564.5,
          "duration": "1.0"
        },
        {
          "pitch": 57,
          "velocity": 75,
          "start": 565.5,
          "duration": "1.0"
        },
        {
          "pitch": 50,
          "velocity": 75,
          "start": 565.5,
          "duration": "1.0"
        },
        {
          "pitch": 50,
          "velocity": 72,
          "start": 566.5,
          "duration": "0.5"
        },
        {
          "pitch": 57,
          "velocity": 72,
          "start": 566.5,
          "duration": "0.5"
        },
        {
          "pitch": 57,
          "velocity": 78,
          "start": 567.0,
          "duration": "1.0"
        },
        {
          "pitch": 50,
          "velocity": 78,
          "start": 567.0,
          "duration": "1.0"
        },
        {
          "pitch": 50,
          "velocity": 76,
          "start": 568.0,
          "duration": "1.0"
        },
        {
          "pitch": 57,
          "velocity": 76,
          "start": 568.0,
          "duration": "1.0"
        },
        {
          "pitch": 57,
          "velocity": 75,
          "start": 569.0,
          "duration": "1.0"
        },
        {
          "pitch": 50,
          "velocity": 75,
          "start": 569.0,
          "duration": "1.0"
        },
        {
          "pitch": 57,
          "velocity": 73,
          "start": 570.0,
          "duration": "0.5"
        },
        {
          "pitch": 50,
          "velocity": 73,
          "start": 570.0,
          "duration": "0.5"
        },
        {
          "pitch": 50,
          "velocity": 81,
          "start": 570.5,
          "duration": "1.0"
        },
        {
          "pitch": 57,
          "velocity": 81,
          "start": 570.5,
          "duration": "1.0"
        },
        {
          "pitch": 50,
          "velocity": 80,
          "start": 571.5,
          "duration": "1.0"
        },
        {
          "pitch": 57,
          "velocity": 80,
          "start": 571.5,
          "duration": "1.0"
        },
        {
          "pitch": 50,
          "velocity": 79,
          "start": 572.5,
          "duration": "1.0"
        },
        {
          "pitch": 57,
          "velocity": 79,
          "start": 572.5,
          "duration": "1.0"
        },
        {
          "pitch": 50,
          "velocity": 71,
          "start": 573.5,
          "duration": "1.0"
        },
        {
          "pitch": 57,
          "velocity": 71,
          "start": 573.5,
          "duration": "1.0"
        },
        {
          "pitch": 50,
          "velocity": 75,
          "start": 574.5,
          "duration": "0.5"
        },
        {
          "pitch": 57,
          "velocity": 75,
          "start": 574.5,
          "duration": "0.5"
        },
        {
          "pitch": 57,
          "velocity": 74,
          "start": 575.0,
          "duration": "1.0"
        },
        {
          "pitch": 50,
          "velocity": 74,
          "start": 575.0,
          "duration": "1.0"
        }
      ]
    }
  ]
}